SplineFontDB: 3.0
FontName: FatemiMaqala-Bold
FullName: FatemiMaqala Bold
FamilyName: FatemiMaqala
Weight: Bold
Copyright: All the rights are reserved to Dawat Hadiyah
Version: 1.3
ItalicAngle: 0
UnderlinePosition: -1250
UnderlineWidth: 100
Ascent: 1638
Descent: 410
InvalidEm: 0
LayerCount: 4
Layer: 0 1 "Back" 1
Layer: 1 1 "Fore" 0
Layer: 2 0 "Back 2" 1
Layer: 3 1 "Back 3" 1
NeedsXUIDChange: 1
XUID: [1021 574 -2067448607 31912]
UseXUID: 1
UseUniqueID: 1
FSType: 0
OS2Version: 0
OS2_WeightWidthSlopeOnly: 0
OS2_UseTypoMetrics: 1
CreationTime: 1033018408
ModificationTime: 1453827666
PfmFamily: 17
TTFWeight: 700
TTFWidth: 5
LineGap: -100
VLineGap: 0
Panose: 0 0 0 0 0 0 0 0 0 0
OS2TypoAscent: 2200
OS2TypoAOffset: 0
OS2TypoDescent: -1400
OS2TypoDOffset: 0
OS2TypoLinegap: -100
OS2WinAscent: 2200
OS2WinAOffset: 0
OS2WinDescent: 1400
OS2WinDOffset: 0
HheadAscent: 2200
HheadAOffset: 0
HheadDescent: -1400
HheadDOffset: 0
OS2Vendor: 'GLYF'
Lookup: 1 0 0 "dotlessi" { "'ccmp' Glyph Composition/Decomposition in Latin lookup 10 subtable"  } ['ccmp' ('latn' <'TRK ' > ) ]
Lookup: 1 8 0 "'locl' Localized Forms in Arabic lookup 18" { "'locl' Localized Forms in Arabic lookup 18-1"  } ['locl' ('arab' <'URD ' > ) ]
Lookup: 1 8 0 "'locl' Localized Forms in Arabic lookup 25" { "'locl' Localized Forms in Arabic lookup 25-1"  } ['locl' ('arab' <'FAR ' > ) ]
Lookup: 2 0 0 "longlaamkaafs" { "longlaamkaafs-1"  } []
Lookup: 3 0 0 "shortalefs" { "'aalt' Access All Alternates lookup 8 subtable"  } []
Lookup: 1 0 0 "straightrehs" { "straightrehs-1"  } []
Lookup: 1 8 0 "hehgoal" { "hehgoal-1"  } []
Lookup: 1 8 0 "'fina' Terminal Forms in Arabic lookup 4" { "'fina' Terminal Forms in Arabic lookup 4 subtable"  } ['fina' ('DFLT' <'dflt' > 'arab' <'ARA ' 'FAR ' 'URD ' 'dflt' > 'cyrl' <'dflt' > 'latn' <'TRK ' 'dflt' > ) ]

StartChar: .notdef
Encoding: 65536 -1 0
Width: 748
Flags: W
LayerCount: 4
Fore
SplineSet
43 0 m 2,0,-1
 43 1365 l 2,1,2
 43 1376 43 1376 51 1383 c 128,-1,3
 59 1390 59 1390 68 1390 c 2,4,-1
 612 1390 l 2,5,6
 623 1390 623 1390 630 1382 c 128,-1,7
 637 1374 637 1374 637 1365 c 2,8,-1
 637 0 l 2,9,10
 637 -11 637 -11 629 -18 c 128,-1,11
 621 -25 621 -25 612 -25 c 2,12,-1
 68 -25 l 2,13,14
 57 -25 57 -25 50 -17 c 128,-1,15
 43 -9 43 -9 43 0 c 2,0,-1
161 93 m 1,16,-1
 519 93 l 1,17,-1
 519 1272 l 1,18,-1
 161 1272 l 1,19,-1
 161 93 l 1,16,-1
EndSplineSet
Validated: 1
EndChar

StartChar: exclam
Encoding: 33 33 4
Width: 482
GlyphClass: 2
Flags: W
LayerCount: 4
Fore
SplineSet
105 90 m 0,0,1
 105 145.808725942 105 145.808725942 146.374363656 184.712978334 c 0,2,3
 187.092307332 223 187.092307332 223 242 223 c 0,4,5
 297.355339059 223 297.355339059 223 336.17766953 184.17766953 c 128,-1,6
 375 145.355339059 375 145.355339059 375 90 c 0,7,8
 375 35.092307332 375 35.092307332 336.712978334 -5.6256363442 c 0,9,10
 297.808725942 -47 297.808725942 -47 242 -47 c 0,11,12
 186.644660941 -47 186.644660941 -47 145.82233047 -6.17766952966 c 128,-1,13
 105 34.6446609407 105 34.6446609407 105 90 c 0,0,1
250 1309 m 0,14,15
 306.753346033 1309 306.753346033 1309 336.615994531 1261.88337682 c 0,16,17
 363 1220.2552793 363 1220.2552793 363 1168 c 0,18,19
 363 1141.94257314 363 1141.94257314 355.410707622 1052.38892308 c 0,20,21
 347.899924425 963.761681352 347.899924425 963.761681352 328.90066441 751.273587653 c 128,-1,22
 309.903856336 538.809286822 309.903856336 538.809286822 292.907432595 341.850627644 c 0,23,24
 292.49677706 337.091854683 292.49677706 337.091854683 290.360679775 332.819660113 c 0,25,26
 272.198426518 296.495153599 272.198426518 296.495153599 238.487592976 293.124070245 c 0,27,28
 232.159685737 292.491279521 232.159685737 292.491279521 226.298574999 294.959115622 c 0,29,30
 198.77519713 306.547906303 198.77519713 306.547906303 187.639320225 328.819660113 c 0,31,32
 185.507030518 333.084239526 185.507030518 333.084239526 185.093985295 337.834259591 c 0,33,34
 125 1028.91509048 125 1028.91509048 125 1168 c 0,35,36
 125 1221.55041476 125 1221.55041476 157.736254693 1263.80994355 c 0,37,38
 192.742636452 1309 192.742636452 1309 250 1309 c 0,14,15
EndSplineSet
Validated: 1
Substitution2: "'smcp' Lowercase to Small Capitals lookup 12 subtable" exclam.sc
EndChar

StartChar: quotedbl
Encoding: 34 34 5
Width: 560
GlyphClass: 2
Flags: W
LayerCount: 4
Fore
SplineSet
422 1423 m 0,0,1
 464.943798014 1423 464.943798014 1423 493.448529505 1387.70842768 c 0,2,3
 499 1380.83517849 499 1380.83517849 499 1372 c 0,4,5
 499 1327.11161015 499 1327.11161015 489.436940708 1192.72546115 c 0,6,7
 479.896728215 1058.6603698 479.896728215 1058.6603698 470.830959287 981.097680083 c 0,8,9
 470.321855074 976.742010711 470.321855074 976.742010711 468.360679775 972.819660113 c 0,10,11
 452.633899812 941.366100188 452.633899812 941.366100188 417.180339887 923.639320225 c 0,12,13
 411.901699437 921 411.901699437 921 406 921 c 0,14,15
 378.549150281 921 378.549150281 921 365.639320225 946.819660113 c 0,16,17
 364.631189606 948.83592135 364.631189606 948.83592135 364 951 c 0,18,19
 293 1194 293 1194 293 1258 c 0,20,21
 293 1312.36466686 293 1312.36466686 326.992583794 1365.05317175 c 0,22,23
 364.377634281 1423 364.377634281 1423 422 1423 c 0,0,1
182 1423 m 0,24,25
 224.943798014 1423 224.943798014 1423 253.448529505 1387.70842768 c 0,26,27
 259 1380.83517849 259 1380.83517849 259 1372 c 0,28,29
 259 1327.11161015 259 1327.11161015 249.436940708 1192.72546115 c 0,30,31
 239.896728215 1058.6603698 239.896728215 1058.6603698 230.830959287 981.097680083 c 0,32,33
 230.321855074 976.742010711 230.321855074 976.742010711 228.360679775 972.819660113 c 0,34,35
 212.633899812 941.366100188 212.633899812 941.366100188 177.180339887 923.639320225 c 0,36,37
 171.901699437 921 171.901699437 921 166 921 c 0,38,39
 138.549150281 921 138.549150281 921 125.639320225 946.819660113 c 0,40,41
 124.631189606 948.83592135 124.631189606 948.83592135 124 951 c 0,42,43
 53 1194 53 1194 53 1258 c 0,44,45
 53 1312.36466686 53 1312.36466686 86.9925837944 1365.05317175 c 0,46,47
 124.377634281 1423 124.377634281 1423 182 1423 c 0,24,25
EndSplineSet
Validated: 1
EndChar

StartChar: numbersign
Encoding: 35 35 6
Width: 960
GlyphClass: 2
Flags: W
LayerCount: 4
Fore
SplineSet
680.273154952 479 m 1,0,-1
 785 479 l 2,1,2
 804.511945141 479 804.511945141 479 813.909202925 464.678263731 c 128,-1,3
 823.306460709 450.356527462 823.306460709 450.356527462 824.442092317 433.700597203 c 0,4,5
 826.310652831 406.295043004 826.310652831 406.295043004 815.408229439 377.22191396 c 0,6,7
 802.961160689 344.029730626 802.961160689 344.029730626 782.180339887 333.639320225 c 0,8,9
 776.901699437 331 776.901699437 331 771 331 c 2,10,-1
 656.351354923 331 l 1,11,-1
 627.692088703 150.088381988 l 2,12,13
 627.520124242 149.002856329 627.520124242 149.002856329 627.253562504 147.936609374 c 0,14,15
 622.970340019 130.803719434 622.970340019 130.803719434 602.230249471 116.445195209 c 0,16,17
 582.809411947 103 582.809411947 103 555 103 c 0,18,19
 541.595625558 103 541.595625558 103 531.956423423 106.505164413 c 0,20,21
 517.094377998 111.909544567 517.094377998 111.909544567 511.639320225 122.819660113 c 2,22,-1
 510.639320225 124.819660113 l 2,23,24
 507.049217818 131.999864927 507.049217818 131.999864927 508.310492342 139.927876218 c 2,25,-1
 538.708330216 331 l 1,26,-1
 333.247251927 331 l 1,27,-1
 303.672925492 149.969274548 l 2,28,29
 303.505467831 148.944230683 303.505467831 148.944230683 303.253562504 147.936609374 c 0,30,31
 299.100812505 131.325609379 299.100812505 131.325609379 280 117 c 0,32,33
 261 103 261 103 233 103 c 0,34,35
 219.595625558 103 219.595625558 103 209.956423423 106.505164413 c 0,36,37
 195.094377998 111.909544567 195.094377998 111.909544567 189.639320225 122.819660113 c 2,38,-1
 188.639320225 124.819660113 l 2,39,40
 185.049217818 131.999864927 185.049217818 131.999864927 186.310492342 139.927876218 c 2,41,-1
 216.708330216 331 l 1,42,-1
 113 331 l 2,43,44
 109.652047908 331 109.652047908 331 106.422064855 331.880904469 c 0,45,46
 77.4613631615 339.779277658 77.4613631615 339.779277658 76.5074327339 378.890425189 c 0,47,48
 75.882312809 404.520342112 75.882312809 404.520342112 87.7880827279 434.284766909 c 0,49,50
 102.094347883 470.050429796 102.094347883 470.050429796 125.09430585 477.717082451 c 0,51,52
 128.943058496 479 128.943058496 479 133 479 c 2,53,-1
 240.649380259 479 l 1,54,-1
 277.726845048 713 l 1,55,-1
 169 713 l 2,56,57
 133.537571586 713 133.537571586 713 132.505905279 760.456650115 c 0,58,59
 131.901265653 788.270072951 131.901265653 788.270072951 142.591770561 816.77808604 c 0,60,61
 155.779549696 851.945497067 155.779549696 851.945497067 179.09430585 859.717082451 c 0,62,63
 182.943058496 861 182.943058496 861 187 861 c 2,64,-1
 301.682022198 861 l 1,65,-1
 330.313984202 1039.94976253 l 2,66,67
 330.576637592 1041.59134621 330.576637592 1041.59134621 331.054342869 1043.18369714 c 0,68,69
 334.674358897 1055.25041723 334.674358897 1055.25041723 336.639320225 1059.18033989 c 0,70,71
 339.15316328 1064.208026 339.15316328 1064.208026 345.917646344 1071.72411829 c 0,72,73
 356.65187583 1083.65103994 356.65187583 1083.65103994 373.899131635 1085.80694692 c 0,74,75
 383.443556293 1087 383.443556293 1087 399 1087 c 0,76,77
 423.569390943 1087 423.569390943 1087 438.867504906 1076.80125736 c 0,78,79
 452.273833196 1067.86370516 452.273833196 1067.86370516 449.671864572 1051.9627858 c 2,80,-1
 418.423408715 861 l 1,81,-1
 623.682022198 861 l 1,82,-1
 652.313984202 1039.94976253 l 2,83,84
 652.576637592 1041.59134621 652.576637592 1041.59134621 653.054342869 1043.18369714 c 0,85,86
 656.674358897 1055.25041723 656.674358897 1055.25041723 658.639320225 1059.18033989 c 0,87,88
 661.15316328 1064.208026 661.15316328 1064.208026 667.917646344 1071.72411829 c 0,89,90
 678.65187583 1083.65103994 678.65187583 1083.65103994 695.899131635 1085.80694692 c 0,91,92
 705.443556293 1087 705.443556293 1087 721 1087 c 0,93,94
 745.569390943 1087 745.569390943 1087 760.867504906 1076.80125736 c 0,95,96
 774.208711539 1067.9071196 774.208711539 1067.9071196 771.689507658 1052.07212378 c 2,97,-1
 741.291669784 861 l 1,98,-1
 839 861 l 2,99,100
 858.300760299 861 858.300760299 861 867.843471725 846.943005384 c 128,-1,101
 877.386183151 832.886010768 877.386183151 832.886010768 878.897330162 816.263393651 c 0,102,103
 881.39283463 788.812844504 881.39283463 788.812844504 871.065680629 759.653821444 c 0,104,105
 859.199323049 726.148811806 859.199323049 726.148811806 838.180339887 715.639320225 c 0,106,107
 832.901699437 713 832.901699437 713 827 713 c 2,108,-1
 717.350619741 713 l 1,109,-1
 680.273154952 479 l 1,0,-1
562.649380259 479 m 1,110,-1
 599.726845048 713 l 1,111,-1
 395.276517071 713 l 1,112,-1
 357.37510862 479 l 1,113,-1
 562.649380259 479 l 1,110,-1
EndSplineSet
Validated: 1
EndChar

StartChar: dollar
Encoding: 36 36 7
Width: 996
GlyphClass: 2
Flags: W
LayerCount: 4
Fore
SplineSet
584 1391 m 0,0,1
 586 1391 586 1391 595.5 1391 c 128,-1,2
 605 1391 605 1391 609.5 1391 c 128,-1,3
 614 1391 614 1391 623 1390.5 c 128,-1,4
 632 1390 632 1390 637 1389 c 128,-1,5
 642 1388 642 1388 650 1386.5 c 128,-1,6
 658 1385 658 1385 662 1382 c 128,-1,7
 666 1379 666 1379 670.5 1375 c 128,-1,8
 675 1371 675 1371 677 1365 c 128,-1,9
 679 1359 679 1359 679 1352 c 0,10,11
 679 1350.00136179 679 1350.00136179 678.68246508 1348.02810907 c 2,12,-1
 668.378119454 1283.99396125 l 1,13,14
 690.202040884 1278.56658903 690.202040884 1278.56658903 721.499336836 1270.14039396 c 0,15,16
 772.895020255 1256.30309458 772.895020255 1256.30309458 809.283319813 1248.43535414 c 0,17,18
 824.82774199 1245.07439799 824.82774199 1245.07439799 828.371462664 1229.57062004 c 0,19,20
 836.662557259 1193.29708119 836.662557259 1193.29708119 842.319330508 1146.50013885 c 0,21,22
 847.914995397 1100.20872931 847.914995397 1100.20872931 849.460046143 1072.9128328 c 0,23,24
 850.984296177 1045.98441555 850.984296177 1045.98441555 851.993829446 1000.55541843 c 128,-1,25
 853 955.277743493 853 955.277743493 853 952 c 0,26,27
 853 938.030120149 853 938.030120149 841.102435642 930.708542082 c 0,28,29
 822.076054758 919 822.076054758 919 792 919 c 0,30,31
 763.644660941 919 763.644660941 919 746.32233047 936.32233047 c 0,32,33
 740.279078039 942.365582902 740.279078039 942.365582902 739.200052207 950.843643008 c 0,34,35
 732.851141271 1000.72794322 732.851141271 1000.72794322 697.973463121 1059.78747822 c 0,36,37
 674.605889037 1099.35657034 674.605889037 1099.35657034 642.772251321 1128.47498601 c 1,38,-1
 575.360651855 723.129913899 l 1,39,40
 592.126785504 712.078688172 592.126785504 712.078688172 624.862393886 692.437323143 c 0,41,42
 660.011257007 671.34800527 660.011257007 671.34800527 681.158865365 658.256628667 c 0,43,44
 702.769305257 644.878737306 702.769305257 644.878737306 736.857052715 620.96643685 c 0,45,46
 771.624649959 596.577226843 771.624649959 596.577226843 793.772833099 576.538394478 c 0,47,48
 815.677682027 556.719721639 815.677682027 556.719721639 841.498501835 528.31681985 c 0,49,50
 868.559315741 498.549924553 868.559315741 498.549924553 884.011777498 469.852495576 c 0,51,52
 899.173718795 441.694604596 899.173718795 441.694604596 909.894475218 406.852146221 c 0,53,54
 921 370.75919068 921 370.75919068 921 332 c 0,55,56
 921 222.052139553 921 222.052139553 858.410390988 133.563381984 c 0,57,58
 827.611467969 90.0200770266 827.611467969 90.0200770266 787.801374991 56.6222780659 c 128,-1,59
 747.991282014 23.2244791052 747.991282014 23.2244791052 699.680798984 0.396448662432 c 0,60,61
 603.609244838 -45 603.609244838 -45 494 -45 c 0,62,63
 471.760290037 -45 471.760290037 -45 449.032492526 -43.6538632328 c 1,64,-1
 438.68246508 -107.971890932 l 2,65,66
 437.225659537 -117.024896803 437.225659537 -117.024896803 429.974934425 -123.012448402 c 128,-1,67
 422.724209313 -129 422.724209313 -129 414 -129 c 0,68,69
 390.723125477 -129 390.723125477 -129 363.983711992 -124.088679156 c 0,70,71
 363.398642552 -123.981217422 363.398642552 -123.981217422 362.096245483 -123.750326711 c 0,72,73
 319 -116.110166117 319 -116.110166117 319 -86 c 0,74,75
 319 -83.9309367425 319 -83.9309367425 319.340151904 -81.8900253174 c 2,76,-1
 328.323122966 -27.9921989459 l 1,77,78
 279.51738488 -18.1117034483 279.51738488 -18.1117034483 142.699992887 11.5682598941 c 0,79,80
 126.782793849 15.0211972515 126.782793849 15.0211972515 123.509932484 30.976396407 c 0,81,82
 107.381304067 109.60345994 107.381304067 109.60345994 92.2849348455 208.736284494 c 0,83,84
 77 309.107356646 77 309.107356646 77 330 c 0,85,86
 77 340.355339059 77 340.355339059 84.3223304703 347.67766953 c 0,87,88
 94.7530779792 358.108417038 94.7530779792 358.108417038 117.249815118 364.925610111 c 0,89,90
 137.295301752 371 137.295301752 371 152 371 c 0,91,92
 184.450849719 371 184.450849719 371 196.360679775 347.180339887 c 0,93,94
 197.737042511 344.427614415 197.737042511 344.427614415 198.404676505 341.423261445 c 0,95,96
 204.095349377 315.815233518 204.095349377 315.815233518 213.129755137 289.66300632 c 128,-1,97
 222.15110072 263.548584895 222.15110072 263.548584895 242.513790909 221.368726646 c 0,98,99
 261.525073717 181.988212257 261.525073717 181.988212257 297.206510798 148.136592463 c 0,100,101
 321.27217813 125.305061917 321.27217813 125.305061917 350.763275601 108.913390603 c 1,102,-1
 424.537911795 555.159970511 l 1,103,104
 388.127161166 576.689333233 388.127161166 576.689333233 364.7500265 591.3000424 c 0,105,106
 336.09632894 609.208603375 336.09632894 609.208603375 293.469045157 639.65666322 c 0,107,108
 249.59201252 670.997400818 249.59201252 670.997400818 221.991994663 699.658957823 c 0,109,110
 194.883971609 727.809597149 194.883971609 727.809597149 167.931403801 764.091899967 c 0,111,112
 139.288923105 802.649085519 139.288923105 802.649085519 126.030047182 847.397791758 c 0,113,114
 113 891.374200998 113 891.374200998 113 940 c 0,115,116
 113 1045.72787729 113 1045.72787729 171.360912471 1131.10773072 c 0,117,118
 229.144557499 1215.64306326 229.144557499 1215.64306326 320.690295332 1259.542189 c 0,119,120
 411.315730462 1303 411.315730462 1303 514 1303 c 0,121,122
 527.906858025 1303 527.906858025 1303 548.009484914 1302.12597274 c 1,123,-1
 559.340151904 1370.10997468 l 2,124,125
 560.843769892 1379.13168261 560.843769892 1379.13168261 568.116663774 1385.06584131 c 128,-1,126
 575.389557655 1391 575.389557655 1391 584 1391 c 0,0,1
537.9494688 491.338475183 m 1,127,-1
 468.957051253 73.8906829408 l 1,128,129
 482.41272568 73 482.41272568 73 498 73 c 0,130,131
 583.260936391 73 583.260936391 73 643.588365166 128.411860505 c 0,132,133
 703 182.982547315 703 182.982547315 703 280 c 0,134,135
 703 300.64026046 703 300.64026046 699.441535839 319.322197303 c 0,136,137
 695.642678759 339.266196977 695.642678759 339.266196977 691.433726496 354.231360577 c 0,138,139
 688.182015532 365.792999559 688.182015532 365.792999559 677.931403801 379.591899967 c 0,140,141
 664.465084728 397.71963718 664.465084728 397.71963718 657.538909592 408.375291235 c 0,142,143
 653.343411395 414.829903847 653.343411395 414.829903847 636.685708364 427.739623696 c 0,144,145
 616.841907112 443.118569666 616.841907112 443.118569666 609 449 c 0,146,147
 602.060135846 454.204898116 602.060135846 454.204898116 577.198386442 469.026325645 c 0,148,149
 551.992619722 484.05284042 551.992619722 484.05284042 544.462931569 487.817684497 c 2,150,-1
 537.9494688 491.338475183 l 1,127,-1
463.512303428 792.472221864 m 1,151,-1
 528.414048167 1185.34411669 l 1,152,153
 515.656987938 1187 515.656987938 1187 502 1187 c 0,154,155
 447.403761639 1187 447.403761639 1187 409.325122962 1169.73178014 c 0,156,157
 372.70770111 1153.12620511 372.70770111 1153.12620511 354.15568357 1125.91657938 c 0,158,159
 333.998712147 1096.3530213 333.998712147 1096.3530213 325.602900744 1065.86296936 c 0,160,161
 317 1034.62085613 317 1034.62085613 317 1000 c 0,162,163
 317 960.783920299 317 960.783920299 329.733802151 928.729866608 c 128,-1,164
 342.406670391 896.829198279 342.406670391 896.829198279 368.965053544 869.385535688 c 0,165,166
 397.586203589 839.810347308 397.586203589 839.810347308 424 820 c 0,167,168
 440.446768521 807.664923609 440.446768521 807.664923609 463.512303428 792.472221864 c 1,151,-1
EndSplineSet
Validated: 1
EndChar

StartChar: percent
Encoding: 37 37 8
Width: 1334
GlyphClass: 2
Flags: W
LayerCount: 4
Fore
SplineSet
372 1217 m 0,0,1
 326.44994617 1217 326.44994617 1217 295.291348747 1185.43674547 c 0,2,3
 261.293378416 1150.99724305 261.293378416 1150.99724305 247.546405909 1102.66111392 c 0,4,5
 233 1051.51407379 233 1051.51407379 233 992 c 0,6,7
 233 891.924599124 233 891.924599124 284.937323143 805.362393886 c 0,8,9
 333.154759474 725 333.154759474 725 392 725 c 0,10,11
 424.883667277 725 424.883667277 725 449.315117778 742.732504395 c 0,12,13
 474.667250833 761.13324613 474.667250833 761.13324613 487.959115622 792.701425001 c 0,14,15
 502.878728331 828.135505186 502.878728331 828.135505186 509.889310612 867.394765962 c 0,16,17
 517 907.214626533 517 907.214626533 517 952 c 0,18,19
 517 1017.26825012 517 1017.26825012 498.089794288 1079.19917383 c 0,20,21
 479.685224734 1139.47413912 479.685224734 1139.47413912 443.314767033 1180.39090403 c 0,22,23
 410.773348392 1217 410.773348392 1217 372 1217 c 0,0,1
380 1315 m 0,24,25
 519.316031741 1315 519.316031741 1315 609.78360178 1211.99776664 c 0,26,27
 699 1110.42006023 699 1110.42006023 699 968 c 0,28,29
 699 881.319637469 699 881.319637469 662.045400718 804.196995489 c 0,30,31
 624.608136178 726.067052102 624.608136178 726.067052102 549.971336552 675.76833931 c 0,32,33
 474.637671769 625 474.637671769 625 380 625 c 0,34,35
 244.195695624 625 244.195695624 625 149.292126551 725.868936271 c 0,36,37
 55 826.087996492 55 826.087996492 55 968 c 0,38,39
 55 1113.66132616 55 1113.66132616 145.996997538 1213.81186783 c 0,40,41
 237.936752038 1315 237.936752038 1315 380 1315 c 0,24,25
950 553 m 0,42,43
 904.355339059 553 904.355339059 553 872.67766953 521.32233047 c 0,44,45
 838.190046123 486.834707064 838.190046123 486.834707064 823.987638881 438.457757393 c 0,46,47
 809 387.406112456 809 387.406112456 809 328 c 0,48,49
 809 228.03119369 809 228.03119369 861.834896031 141.531585143 c 0,50,51
 887.568359077 99.4015792722 887.568359077 99.4015792722 914.460975216 80.2007896361 c 128,-1,52
 941.353591356 61 941.353591356 61 970 61 c 0,53,54
 1002.77645854 61 1002.77645854 61 1026.65877629 78.6181032571 c 0,55,56
 1051.62677663 97.0371199081 1051.62677663 97.0371199081 1064.95911562 128.701425001 c 0,57,58
 1079.82192059 164.000586804 1079.82192059 164.000586804 1086.3401519 203.109974683 c 0,59,60
 1093 243.069063257 1093 243.069063257 1093 288 c 0,61,62
 1093 353.357619905 1093 353.357619905 1074.53929344 415.36665988 c 0,63,64
 1056.60094947 475.621097334 1056.60094947 475.621097334 1020.7114701 516.507845978 c 0,65,66
 988.679468239 553 988.679468239 553 950 553 c 0,42,43
958 651 m 0,67,68
 1097.36694921 651 1097.36694921 651 1186.83922643 548.4342188 c 0,69,70
 1275 447.371868609 1275 447.371868609 1275 304 c 0,71,72
 1275 167.825679672 1275 167.825679672 1188.06571255 65.3290815035 c 0,73,74
 1099.57717222 -39 1099.57717222 -39 956 -39 c 0,75,76
 820.195695624 -39 820.195695624 -39 725.292126551 61.8689362714 c 0,77,78
 631 162.087996492 631 162.087996492 631 304 c 0,79,80
 631 449.703548012 631 449.703548012 722.546456656 549.866141766 c 0,81,82
 814.980628161 651 814.980628161 651 958 651 c 0,67,68
1215.76957673 1232.69758725 m 2,83,-1
 249.885938155 -15.1520824604 l 2,84,85
 239.596605451 -28.8711927321 239.596605451 -28.8711927321 211.218342801 -39.4305462764 c 0,86,87
 185.500435918 -49 185.500435918 -49 164 -49 c 0,88,89
 123.549150281 -49 123.549150281 -49 105.639320225 -13.1803398875 c 0,90,91
 98.625299749 0.847701064577 98.625299749 0.847701064577 108.203255433 13.2672494101 c 2,92,-1
 1072.49189161 1263.64151831 l 2,93,94
 1100.29062635 1297 1100.29062635 1297 1132 1297 c 0,95,96
 1154.69669426 1297 1154.69669426 1297 1167.37783012 1295.2707542 c 0,97,98
 1181.73432508 1293.31305034 1181.73432508 1293.31305034 1188.34798246 1290.47862575 c 0,99,100
 1198.27750834 1286.22311466 1198.27750834 1286.22311466 1207.34333678 1273.53095484 c 0,101,102
 1211.14071819 1268.21462087 1211.14071819 1268.21462087 1213.67766953 1265.67766953 c 0,103,104
 1220.39973101 1258.95560805 1220.39973101 1258.95560805 1220.70803963 1248.89629915 c 128,-1,105
 1221.01634825 1238.83699025 1221.01634825 1238.83699025 1215.76957673 1232.69758725 c 2,83,-1
EndSplineSet
Validated: 1
EndChar

StartChar: ampersand
Encoding: 38 38 9
Width: 1366
GlyphClass: 2
Flags: W
LayerCount: 4
Fore
SplineSet
776.885031503 190.589750297 m 1,0,1
 723.172156283 248.459121625 723.172156283 248.459121625 651.989040434 343.514623887 c 0,2,3
 569.556909728 453.591676476 569.556909728 453.591676476 516.158750192 534.192672002 c 2,4,-1
 477.181507688 593.026245593 l 1,5,6
 449.218081811 573.767167677 449.218081811 573.767167677 434.26274986 562.824241859 c 0,7,8
 414.749787335 548.546464402 414.749787335 548.546464402 382.661615074 519.861583138 c 0,9,10
 352.487308625 492.887581919 352.487308625 492.887581919 339.437323143 471.137606114 c 0,11,12
 325.795931733 448.401953764 325.795931733 448.401953764 314.151487166 414.400175628 c 0,13,14
 303 381.837833105 303 381.837833105 303 344 c 0,15,16
 303 223.969993578 303 223.969993578 375.67523513 165.475292132 c 0,17,18
 450.811204142 105 450.811204142 105 562 105 c 0,19,20
 618.902036054 105 618.902036054 105 684.711120898 133.003865891 c 0,21,22
 738.158054035 155.747241694 738.158054035 155.747241694 776.885031503 190.589750297 c 1,0,1
626 1215 m 0,23,24
 569.865259282 1215 569.865259282 1215 531.072096952 1178.73682652 c 0,25,26
 493 1143.14769241 493 1143.14769241 493 1086 c 0,27,28
 493 972.480294289 493 972.480294289 581.601785045 804.771303486 c 1,29,30
 633.098431784 836.169516473 633.098431784 836.169516473 663.710202137 862.464242288 c 0,31,32
 698.633567534 892.462517694 698.633567534 892.462517694 721.856047508 942.094876854 c 128,-1,33
 745 991.559402768 745 991.559402768 745 1060 c 0,34,35
 745 1123.74925596 745 1123.74925596 709.911070166 1171.11931123 c 0,36,37
 677.406856266 1215 677.406856266 1215 626 1215 c 0,23,24
616 1337 m 0,38,39
 758.333333333 1337 758.333333333 1337 843 1273.5 c 0,40,41
 931 1207.5 931 1207.5 931 1088 c 0,42,43
 931 1017.96705947 931 1017.96705947 905.552490947 957.326186835 c 0,44,45
 880.204882624 896.923375513 880.204882624 896.923375513 830.364718967 846.01138038 c 0,46,47
 782.574514686 797.19342977 782.574514686 797.19342977 735.604870334 761.579084052 c 0,48,49
 696.649916504 732.041811368 696.649916504 732.041811368 642.144118314 697.756316286 c 1,50,51
 747.450323074 525.217355153 747.450323074 525.217355153 900.837581919 349.39323805 c 1,52,53
 938.07995321 409.199484923 938.07995321 409.199484923 963.291461677 463.955729875 c 0,54,55
 992.509563422 527.413794604 992.509563422 527.413794604 993.001955894 542.077857898 c 0,56,57
 992.986187894 542.636307895 992.986187894 542.636307895 992.937398609 543.046951043 c 0,58,59
 992 543.75 992 543.75 990.384615385 544.423076923 c 0,60,61
 976.325114969 550.281202096 976.325114969 550.281202096 954.087167199 551.539953857 c 0,62,63
 930.879001999 552.853623585 930.879001999 552.853623585 927.179204917 553.014484328 c 0,64,65
 912.935675109 553.637634099 912.935675109 553.637634099 906.146068097 565.858926721 c 0,66,67
 897.790205132 580.899480057 897.790205132 580.899480057 898.512997142 603.30603235 c 0,68,69
 899.331740603 628.687079663 899.331740603 628.687079663 912.32233047 641.67766953 c 0,70,71
 919.644660941 649 919.644660941 649 930 649 c 2,72,-1
 1088 649 l 2,73,74
 1118.43211136 649 1118.43211136 649 1150.86480848 650.474213505 c 0,75,76
 1183.59144735 651.961787999 1183.59144735 651.961787999 1227.81842369 654.94338191 c 0,77,78
 1272.79128946 657.975260501 1272.79128946 657.975260501 1307.26502371 658.989193862 c 0,79,80
 1316.00499745 659.246251913 1316.00499745 659.246251913 1323 654 c 0,81,82
 1330.29003677 648.532472421 1330.29003677 648.532472421 1333.83070992 641.072981445 c 128,-1,83
 1337.37138307 633.61349047 1337.37138307 633.61349047 1337.75264519 629.090205203 c 128,-1,84
 1338.13390731 624.566919935 1338.13390731 624.566919935 1337.33068461 615.143286459 c 128,-1,85
 1336.52746191 605.719652983 1336.52746191 605.719652983 1336.49555121 604.028385826 c 0,86,87
 1336.49309722 603.898324505 1336.49309722 603.898324505 1336.92986947 600.240289161 c 128,-1,88
 1337.36664173 596.582253817 1337.36664173 596.582253817 1337.44958892 592.437572417 c 128,-1,89
 1337.53253611 588.292891016 1337.53253611 588.292891016 1337.19009836 582.642989816 c 128,-1,90
 1336.84766061 576.993088616 1336.84766061 576.993088616 1334.88457928 572.006193574 c 128,-1,91
 1332.92149794 567.019298531 1332.92149794 567.019298531 1329.69523431 562.608144713 c 128,-1,92
 1326.46897069 558.196990895 1326.46897069 558.196990895 1320.35524495 555.598495447 c 128,-1,93
 1314.24151921 553 1314.24151921 553 1306 553 c 0,94,95
 1283.07764064 553 1283.07764064 553 1238.06339063 541.746437496 c 0,96,97
 1199.75666058 532.169754985 1199.75666058 532.169754985 1184.52239279 524.595900261 c 1,98,99
 1177.89989777 514.853766989 1177.89989777 514.853766989 1160.4590562 485.673897441 c 0,100,101
 1134.08291757 441.544588565 1134.08291757 441.544588565 1083.6705468 367.438403538 c 0,102,103
 1040.07326599 303.350400746 1040.07326599 303.350400746 993.585711995 247.095155279 c 1,104,105
 1027.30493035 211.953014635 1027.30493035 211.953014635 1041.91814827 196.933873995 c 0,106,107
 1059.33199212 179.036312264 1059.33199212 179.036312264 1088.20669544 153.098019451 c 0,108,109
 1114.99563645 129.033377526 1114.99563645 129.033377526 1130.70215862 121.593445972 c 0,110,111
 1144.62165567 115 1144.62165567 115 1156 115 c 0,112,113
 1173.53438054 115 1173.53438054 115 1199.18991908 141.044258819 c 0,114,115
 1228.65750549 170.958323814 1228.65750549 170.958323814 1236.78808273 191.284766909 c 0,116,117
 1243.07417596 207 1243.07417596 207 1260 207 c 0,118,119
 1285.05124838 207 1285.05124838 207 1307.00460999 188.70553199 c 0,120,121
 1331 168.70937365 1331 168.70937365 1331 146 c 0,122,123
 1331 141 1331 141 1329.07692308 136.384615385 c 0,124,125
 1323.57379348 123.177104362 1323.57379348 123.177104362 1316.94738932 111.028696733 c 0,126,127
 1309.98593777 98.2660355468 1309.98593777 98.2660355468 1289.75549503 72.1794120177 c 0,128,129
 1268.91433143 45.3052800098 1268.91433143 45.3052800098 1244.56308915 25.9349736456 c 0,130,131
 1219.41600535 5.93161153475 1219.41600535 5.93161153475 1177.64263397 -9.45857792043 c 0,132,133
 1135.45877404 -25 1135.45877404 -25 1088 -25 c 0,134,135
 1050 -25 1050 -25 1009.38461538 -8.07692307692 c 0,136,137
 970.398339161 8.16735868296 970.398339161 8.16735868296 940.327159916 31.1308046518 c 0,138,139
 911.954306905 52.7973469511 911.954306905 52.7973469511 888.143265899 74.5378626518 c 0,140,141
 867.720573366 93.1846688782 867.720573366 93.1846688782 854.615940229 108.384519523 c 1,142,143
 782.820667812 50.1391399516 782.820667812 50.1391399516 695.37669803 12.53370217 c 0,144,145
 594.147727924 -31 594.147727924 -31 494 -31 c 0,146,147
 308.101404709 -31 308.101404709 -31 195.704088212 60.6224570502 c 0,148,149
 81 154.125315687 81 154.125315687 81 316 c 0,150,151
 81 390.398368189 81 390.398368189 109.727525691 453.815736225 c 0,152,153
 138.349323812 516.999705661 138.349323812 516.999705661 193.647517356 567.466018216 c 0,154,155
 246.656101233 615.842784083 246.656101233 615.842784083 299.868140514 650.456440703 c 0,156,157
 343.704926727 678.971631735 343.704926727 678.971631735 403.282451517 710.234371994 c 1,158,159
 375.282851178 759.27437997 375.282851178 759.27437997 358.814864517 790.975254294 c 0,160,161
 337.694182502 831.632567172 337.694182502 831.632567172 317.510125987 900.465375289 c 0,162,163
 297 970.41016391 297 970.41016391 297 1038 c 0,164,165
 297 1163.80455471 297 1163.80455471 389.369243533 1250.70816253 c 0,166,167
 481.088240588 1337 481.088240588 1337 616 1337 c 0,38,39
EndSplineSet
Validated: 1
Substitution2: "'smcp' Lowercase to Small Capitals lookup 12 subtable" ampersand.sc
EndChar

StartChar: quotesingle
Encoding: 39 39 10
Width: 320
GlyphClass: 2
Flags: W
LayerCount: 4
Fore
SplineSet
182 1423 m 0,0,1
 224.943798014 1423 224.943798014 1423 253.448529505 1387.70842768 c 0,2,3
 259 1380.83517849 259 1380.83517849 259 1372 c 0,4,5
 259 1327.11161015 259 1327.11161015 249.436940708 1192.72546115 c 0,6,7
 239.896728215 1058.6603698 239.896728215 1058.6603698 230.830959287 981.097680083 c 0,8,9
 230.321855074 976.742010711 230.321855074 976.742010711 228.360679775 972.819660113 c 0,10,11
 212.633899812 941.366100188 212.633899812 941.366100188 177.180339887 923.639320225 c 0,12,13
 171.901699437 921 171.901699437 921 166 921 c 0,14,15
 138.549150281 921 138.549150281 921 125.639320225 946.819660113 c 0,16,17
 124.631189606 948.83592135 124.631189606 948.83592135 124 951 c 0,18,19
 53 1194 53 1194 53 1258 c 0,20,21
 53 1312.36466686 53 1312.36466686 86.9925837944 1365.05317175 c 0,22,23
 124.377634281 1423 124.377634281 1423 182 1423 c 0,0,1
EndSplineSet
Validated: 1
Substitution2: "'smcp' Lowercase to Small Capitals lookup 12 subtable" quotesingle.sc
EndChar

StartChar: parenleft
Encoding: 40 40 11
Width: 524
GlyphClass: 2
Flags: W
LayerCount: 4
Fore
SplineSet
245 570 m 128,-1,1
 245 328.090098725 245 328.090098725 321.696575191 99.9669520038 c 0,2,3
 397.562333496 -125.685047059 397.562333496 -125.685047059 528.540540927 -241.254053616 c 0,4,5
 542.961593732 -253.978511973 542.961593732 -253.978511973 534.360679775 -271.180339887 c 0,6,7
 532.203085581 -275.495528275 532.203085581 -275.495528275 525.570801275 -283.569613517 c 0,8,9
 518.444523199 -292.910815861 518.444523199 -292.910815861 507.67766953 -303.67766953 c 0,10,11
 495.927235291 -315.428103768 495.927235291 -315.428103768 487.867504906 -320.801257358 c 0,12,13
 472.773991576 -330.863599578 472.773991576 -330.863599578 458.526199161 -319.635719686 c 0,14,15
 270.016622443 -171.081977164 270.016622443 -171.081977164 159.509459314 56.5832431724 c 128,-1,16
 49 284.253194073 49 284.253194073 49 570 c 0,17,18
 49 856.757795277 49 856.757795277 159.018582033 1082.93553136 c 128,-1,19
 269.040410412 1309.11994133 269.040410412 1309.11994133 458.577958419 1457.67639788 c 0,20,21
 472.815758682 1468.83575484 472.815758682 1468.83575484 487.867504906 1458.80125736 c 0,22,23
 495.927235291 1453.42810377 495.927235291 1453.42810377 507.67766953 1441.67766953 c 0,24,25
 518.479546601 1430.87579246 518.479546601 1430.87579246 524.20553199 1424.00460999 c 0,26,27
 531.063063822 1415.77557179 531.063063822 1415.77557179 534.360679775 1409.18033989 c 0,28,29
 542.924997183 1392.05170507 542.924997183 1392.05170507 528.617618527 1379.32234612 c 0,30,31
 397.560275045 1262.7198567 397.560275045 1262.7198567 321.680879174 1038.48651377 c 0,32,0
 245 811.88468493 245 811.88468493 245 570 c 128,-1,1
EndSplineSet
Validated: 1
Substitution2: "'smcp' Lowercase to Small Capitals lookup 12 subtable" parenleft.sc
EndChar

StartChar: parenright
Encoding: 41 41 12
Width: 524
GlyphClass: 2
Flags: W
LayerCount: 4
Fore
SplineSet
475 570 m 0,0,1
 475 284.253194073 475 284.253194073 364.490540686 56.5832431724 c 128,-1,2
 253.983377557 -171.081977164 253.983377557 -171.081977164 65.4738008394 -319.635719686 c 0,3,4
 51.2260084242 -330.863599578 51.2260084242 -330.863599578 36.1324950944 -320.801257358 c 0,5,6
 28.0727647086 -315.428103768 28.0727647086 -315.428103768 16.3223304703 -303.67766953 c 0,7,8
 5.06601717798 -292.421356237 5.06601717798 -292.421356237 -0.5 -285 c 2,9,-1
 -8 -275 l 2,10,11
 -13.7953142001 -267.201190123 -13.7953142001 -267.201190123 -12.755751797 -257.393349134 c 128,-1,12
 -11.7161893939 -247.585508145 -11.7161893939 -247.585508145 -4.54054092717 -241.254053616 c 0,13,14
 126.437666504 -125.685047059 126.437666504 -125.685047059 202.303424809 99.9669520038 c 0,15,16
 279 328.090098725 279 328.090098725 279 570 c 128,-1,17
 279 811.88468493 279 811.88468493 202.319120826 1038.48651377 c 0,18,19
 126.439724955 1262.7198567 126.439724955 1262.7198567 -4.61761852661 1379.32234612 c 0,20,21
 -18.9249971833 1392.05170507 -18.9249971833 1392.05170507 -10.360679775 1409.18033989 c 0,22,23
 -8.22579355542 1413.45011233 -8.22579355542 1413.45011233 -1.15795847056 1422.4455388 c 0,24,25
 5.26546142783 1430.62080049 5.26546142783 1430.62080049 16.3223304703 1441.67766953 c 0,26,27
 28.0727647086 1453.42810377 28.0727647086 1453.42810377 36.1324950944 1458.80125736 c 0,28,29
 51.1842413184 1468.83575484 51.1842413184 1468.83575484 65.4220415807 1457.67639788 c 0,30,31
 254.959589588 1309.11994133 254.959589588 1309.11994133 364.981417967 1082.93553136 c 128,-1,32
 475 856.757795277 475 856.757795277 475 570 c 0,0,1
EndSplineSet
Validated: 1
Substitution2: "'smcp' Lowercase to Small Capitals lookup 12 subtable" parenright.sc
EndChar

StartChar: plus
Encoding: 43 43 13
Width: 1084
GlyphClass: 2
Flags: W
LayerCount: 4
Fore
SplineSet
475.265438769 971.42450512 m 0,0,1
 538.490629584 995 538.490629584 995 570 995 c 0,2,3
 584.490921097 995 584.490921097 995 595.976454437 989.698984613 c 0,4,5
 608.885670791 983.740884757 608.885670791 983.740884757 614.801257358 974.867504906 c 2,6,-1
 616.801257358 971.867504906 l 2,7,8
 621 965.569390943 621 965.569390943 621 958 c 2,9,-1
 621 573 l 1,10,-1
 1004 573 l 2,11,12
 1022.59497378 573 1022.59497378 573 1035.58465713 557.648556037 c 0,13,14
 1047 544.157696286 1047 544.157696286 1047 524 c 0,15,16
 1047 495.494395662 1047 495.494395662 1035.92705287 465.772274421 c 0,17,18
 1024.52672001 435.17138095 1024.52672001 435.17138095 1007.67766953 418.32233047 c 0,19,20
 1000.35533906 411 1000.35533906 411 990 411 c 2,21,-1
 621 411 l 1,22,-1
 621 32 l 2,23,24
 621 19.5857332359 621 19.5857332359 611.109662034 12.0827182274 c 0,25,26
 575.40971528 -15 575.40971528 -15 510 -15 c 0,27,28
 491.666666667 -15 491.666666667 -15 477 -4 c 0,29,30
 459 9.5 459 9.5 459 28 c 2,31,-1
 459 411 l 1,32,-1
 74 411 l 2,33,34
 54 411 54 411 45.5 425.5 c 128,-1,35
 37 440 37 440 37 456 c 128,-1,36
 37 472.034341203 37 472.034341203 46.2258847068 509.48057913 c 0,37,38
 56.8197095841 552.479044809 56.8197095841 552.479044809 76.7572309788 567.815599728 c 0,39,40
 83.4969513329 573 83.4969513329 573 92 573 c 2,41,-1
 459 573 l 1,42,-1
 459 948 l 2,43,44
 459 965.359426257 459 965.359426257 475.265438769 971.42450512 c 0,0,1
EndSplineSet
Validated: 1
EndChar

StartChar: comma
Encoding: 44 44 14
Width: 402
GlyphClass: 2
Flags: W
LayerCount: 4
Fore
SplineSet
212 271 m 0,0,1
 246.758728534 271 246.758728534 271 276.596775638 253.594472522 c 0,2,3
 282.302720334 250.266004783 282.302720334 250.266004783 285.619723665 244.553387935 c 0,4,5
 325 176.731800914 325 176.731800914 325 92 c 0,6,7
 325 0.587031457781 325 0.587031457781 241.959119591 -127.12774031 c 0,8,9
 159.548621131 -253.8730006 159.548621131 -253.8730006 76.0695127295 -299.893534719 c 0,10,11
 70.4345291957 -303 70.4345291957 -303 64 -303 c 0,12,13
 40.1438089623 -303 40.1438089623 -303 22.8000423999 -275.2499735 c 0,14,15
 9 -253.16990566 9 -253.16990566 9 -236 c 0,16,17
 9 -223.390544248 9 -223.390544248 19.1402234729 -215.895596463 c 0,18,19
 41.1713782695 -199.61169944 41.1713782695 -199.61169944 55.2758817094 -186.917646344 c 0,20,21
 68.9908357531 -174.574187705 68.9908357531 -174.574187705 91.8772200471 -147.396606355 c 0,22,23
 112.762723392 -122.595071134 112.762723392 -122.595071134 123.751855251 -89.18811028 c 0,24,25
 135 -54.9937502441 135 -54.9937502441 135 -14 c 0,26,27
 135 9.81573809605 135 9.81573809605 106.839875104 48.2159084093 c 0,28,29
 69 99.815738096 69 99.815738096 69 148 c 0,30,31
 69 193.808725942 69 193.808725942 110.374363656 232.712978334 c 0,32,33
 151.092307332 271 151.092307332 271 212 271 c 0,0,1
EndSplineSet
Validated: 1
Substitution2: "'smcp' Lowercase to Small Capitals lookup 12 subtable" comma.sc
Substitution2: "'c2sc' Capitals to Small Capitals in Latin lookup 11 subtable" comma.sc
EndChar

StartChar: hyphen
Encoding: 45 45 15
Width: 754
GlyphClass: 2
Flags: W
LayerCount: 4
Fore
SplineSet
140.679729581 546.965113379 m 0,0,1
 556.961118743 568.979994536 556.961118743 568.979994536 623.621299039 571 c 0,2,3
 642.103412626 571 642.103412626 571 652.551706313 557.549169157 c 128,-1,4
 663 544.098338314 663 544.098338314 663 528 c 0,5,6
 663 469.388610868 663 469.388610868 634.601806663 409.315509578 c 0,7,8
 628.369083411 396.130902699 628.369083411 396.130902699 613.824390958 395.06665691 c 0,9,10
 572.450571084 392.039304237 572.450571084 392.039304237 130.538299068 373 c 0,11,12
 110.563294791 373 110.563294791 373 99.5961582785 388.31917481 c 0,13,14
 91 400.326507009 91 400.326507009 91 420 c 0,15,16
 91 471.520573232 91 471.520573232 119.324775806 532.527782661 c 0,17,18
 125.659009897 546.170748396 125.659009897 546.170748396 140.679729581 546.965113379 c 0,0,1
EndSplineSet
Validated: 1
EndChar

StartChar: period
Encoding: 46 46 16
Width: 414
GlyphClass: 2
Flags: W
LayerCount: 4
Fore
SplineSet
71 90 m 0,0,1
 71 145.808725942 71 145.808725942 112.374363656 184.712978334 c 0,2,3
 153.092307332 223 153.092307332 223 208 223 c 0,4,5
 263.355339059 223 263.355339059 223 302.17766953 184.17766953 c 128,-1,6
 341 145.355339059 341 145.355339059 341 90 c 0,7,8
 341 35.092307332 341 35.092307332 302.712978334 -5.6256363442 c 0,9,10
 263.808725942 -47 263.808725942 -47 208 -47 c 0,11,12
 152.644660941 -47 152.644660941 -47 111.82233047 -6.17766952966 c 128,-1,13
 71 34.6446609407 71 34.6446609407 71 90 c 0,0,1
EndSplineSet
Validated: 1
Substitution2: "'smcp' Lowercase to Small Capitals lookup 12 subtable" period.sc
Substitution2: "'c2sc' Capitals to Small Capitals in Latin lookup 11 subtable" period.sc
EndChar

StartChar: slash
Encoding: 47 47 17
Width: 826
GlyphClass: 2
Flags: W
LayerCount: 4
Fore
SplineSet
738 1547 m 0,0,1
 754.884671981 1547 754.884671981 1547 768.621413356 1537.49123866 c 128,-1,2
 782.35815473 1527.98247731 782.35815473 1527.98247731 787.717082451 1511.90569415 c 0,3,4
 790.559240287 1503.37922064 790.559240287 1503.37922064 787.321818715 1494.99484749 c 2,5,-1
 197.267708075 -33.1452899025 l 2,6,7
 188.569908245 -54.8897894766 188.569908245 -54.8897894766 161.846307421 -74.6143519896 c 0,8,9
 134.227042375 -95 134.227042375 -95 96 -95 c 0,10,11
 78.3099717292 -95 78.3099717292 -95 64.9388434711 -89.8001167885 c 0,12,13
 51.0394631662 -84.3948022255 51.0394631662 -84.3948022255 44.3223304703 -77.6776695297 c 0,14,15
 41.4536396218 -74.8089786812 41.4536396218 -74.8089786812 39.639320225 -71.1803398875 c 2,16,-1
 37.639320225 -67.1803398875 l 2,17,18
 32.6980782276 -57.2978558928 32.6980782276 -57.2978558928 36.6795862609 -46.9912096796 c 2,19,-1
 633.379478017 1497.64329272 l 2,20,21
 636.108809803 1504.90215386 636.108809803 1504.90215386 639.118968179 1509.65282877 c 128,-1,22
 642.129126554 1514.40350369 642.129126554 1514.40350369 643.378039482 1515.775873 c 128,-1,23
 644.62695241 1517.14824231 644.62695241 1517.14824231 649.132150122 1519.88540388 c 128,-1,24
 653.637347834 1522.62256545 653.637347834 1522.62256545 654.38290211 1523.13268153 c 0,25,26
 666.689833698 1531.55321367 666.689833698 1531.55321367 688.907808023 1539.15409962 c 0,27,28
 711.841978354 1547 711.841978354 1547 738 1547 c 0,0,1
EndSplineSet
Validated: 1
Substitution2: "'smcp' Lowercase to Small Capitals lookup 12 subtable" slash.sc
EndChar

StartChar: zero
Encoding: 48 48 18
Width: 1090
GlyphClass: 2
Flags: W
LayerCount: 4
Fore
SplineSet
556 1183 m 0,0,1
 485.906762643 1183 485.906762643 1183 430.910558523 1115.24467652 c 0,2,3
 371.877349829 1042.51576341 371.877349829 1042.51576341 340.731127638 919.847565248 c 0,4,5
 309 794.875739473 309 794.875739473 309 640 c 0,6,7
 309 486.974527787 309 486.974527787 339.802055214 359.366013328 c 0,8,9
 370.083178533 233.915645293 370.083178533 233.915645293 425.45356079 160.561720081 c 0,10,11
 476.4517624 93 476.4517624 93 536 93 c 0,12,13
 609.652808073 93 609.652808073 93 664.148012856 164.195348184 c 0,14,15
 722.805828747 240.828946364 722.805828747 240.828946364 750.604221249 364.963147365 c 0,16,17
 779 491.76498696 779 491.76498696 779 650 c 0,18,19
 779 802.992962291 779 802.992962291 748.713065684 927.071693198 c 0,20,21
 718.967146294 1048.93400812 718.967146294 1048.93400812 665.19435408 1118.74429976 c 0,22,23
 615.700098493 1183 615.700098493 1183 556 1183 c 0,0,1
544 1307 m 0,24,25
 688.443252246 1307 688.443252246 1307 796.52825301 1211.75678151 c 0,26,27
 902.502301993 1118.37370864 902.502301993 1118.37370864 954.150799839 967.601831087 c 0,28,29
 1005 819.16325688 1005 819.16325688 1005 638 c 0,30,31
 1005 457.77111909 1005 457.77111909 953.109123147 308.777512283 c 0,32,33
 900.461899733 157.612217335 900.461899733 157.612217335 795.074390225 64.2839750834 c 0,34,35
 687.478440833 -31 687.478440833 -31 544 -31 c 0,36,37
 402.521559167 -31 402.521559167 -31 294.925609775 64.2839750834 c 0,38,39
 189.599400806 157.557931285 189.599400806 157.557931285 135.941784997 308.632771913 c 0,40,41
 83 457.692166564 83 457.692166564 83 638 c 128,-1,42
 83 818.22888091 83 818.22888091 134.890876853 967.222487717 c 0,43,44
 187.538100266 1118.38778267 187.538100266 1118.38778267 292.925609775 1211.71602492 c 0,45,46
 400.521559167 1307 400.521559167 1307 544 1307 c 0,24,25
EndSplineSet
Validated: 1
Substitution2: "'ordn' Ordinals lookup 17 subtable" zero.ordn
Substitution2: "'onum' Oldstyle Figures lookup 16 subtable" zero.onum
Substitution2: "'zero' Slashed Zero lookup 15 subtable" zero.slash
Substitution2: "'pnum' Proportional Numbers lookup 14 subtable" zero.prop
EndChar

StartChar: one
Encoding: 49 49 19
Width: 1090
GlyphClass: 2
Flags: W
LayerCount: 4
Fore
SplineSet
280.526615319 1142.45314868 m 0,0,1
 355.53647632 1176.18128006 355.53647632 1176.18128006 442.781388692 1217.58564526 c 0,2,3
 531.306510129 1259.59756729 531.306510129 1259.59756729 581.365971504 1283.12559254 c 0,4,5
 591.680493236 1287.97341776 591.680493236 1287.97341776 602.767582777 1293.88276343 c 128,-1,6
 613.854672318 1299.79210911 613.854672318 1299.79210911 618.918226414 1302.44513271 c 128,-1,7
 623.981780511 1305.0981563 623.981780511 1305.0981563 630.531044523 1307.04907815 c 128,-1,8
 637.080308535 1309 637.080308535 1309 644 1309 c 2,9,-1
 648 1309 l 2,10,11
 682.748157181 1309 682.748157181 1309 692.571804673 1256.60721338 c 0,12,13
 693.515370578 1251.57486188 693.515370578 1251.57486188 692.404676505 1246.57673855 c 0,14,15
 677 1177.25569428 677 1177.25569428 677 1058 c 2,16,-1
 677 232 l 2,17,18
 677 128.2665703 677 128.2665703 684.854797143 95.1502868715 c 1,19,20
 694.57966424 90.0297023056 694.57966424 90.0297023056 718.154038096 85.5629788382 c 0,21,22
 763.347537519 77 763.347537519 77 790 77 c 0,23,24
 802 77 802 77 810 67 c 0,25,26
 820.802399431 52.596800758 820.802399431 52.596800758 821.492916844 23.5950694487 c 0,27,28
 822.22462478 -7.13666386864 822.22462478 -7.13666386864 808.814417368 -22.4626151967 c 0,29,30
 800.854877032 -31.5592327232 800.854877032 -31.5592327232 788.781936157 -30.9703087781 c 0,31,32
 585.282499673 -21.0435069984 585.282499673 -21.0435069984 568.02683822 -20.9999540922 c 0,33,34
 556.884611082 -21.1329162298 556.884611082 -21.1329162298 355.218063843 -30.9703087781 c 0,35,36
 343.145122968 -31.5592327232 343.145122968 -31.5592327232 335.185582632 -22.4626151967 c 0,37,38
 321.77537522 -7.13666386865 321.77537522 -7.13666386865 322.507083156 23.5950694487 c 0,39,40
 323.197600569 52.596800758 323.197600569 52.596800758 334 67 c 0,41,42
 342 77 342 77 354 77 c 0,43,44
 380.652462481 77 380.652462481 77 425.845961904 85.5629788382 c 0,45,46
 449.42033576 90.0297023056 449.42033576 90.0297023056 459.222327083 95.1908962819 c 1,47,48
 469 131.915370156 469 131.915370156 469 232 c 2,49,-1
 469 1040 l 2,50,51
 469 1075.19229269 469 1075.19229269 462.451644621 1086.32449684 c 0,52,53
 459.701348642 1091 459.701348642 1091 452 1091 c 0,54,55
 423.520137264 1091 423.520137264 1091 320.754097603 1052.58278891 c 0,56,57
 307.462850506 1047.61409841 307.462850506 1047.61409841 296.382623811 1056.47827976 c 0,58,59
 277.023958456 1071.96521205 277.023958456 1071.96521205 270.365261889 1090.66078318 c 0,60,61
 267 1100.1094031 267 1100.1094031 267 1110 c 0,62,63
 267 1116.37261123 267 1116.37261123 271.124945835 1128.1951745 c 128,-1,64
 275.249891669 1140.01773776 275.249891669 1140.01773776 280.526615319 1142.45314868 c 0,0,1
EndSplineSet
Validated: 1
Substitution2: "'ordn' Ordinals lookup 17 subtable" one.ordn
Substitution2: "'onum' Oldstyle Figures lookup 16 subtable" one.onum
Substitution2: "'pnum' Proportional Numbers lookup 14 subtable" one.prop
EndChar

StartChar: two
Encoding: 50 50 20
Width: 1090
GlyphClass: 2
Flags: W
LayerCount: 4
Fore
SplineSet
979.121425104 290.492124256 m 0,0,1
 935.454058508 184.301028216 935.454058508 184.301028216 871.729348769 -7.86879959169 c 0,2,3
 866.048536198 -25 866.048536198 -25 848 -25 c 2,4,-1
 156 -25 l 2,5,6
 150.098300563 -25 150.098300563 -25 144.819660113 -22.360679775 c 0,7,8
 133.4408925 -16.6712959688 133.4408925 -16.6712959688 122.873604066 -2.32997595125 c 0,9,10
 111 13.7842009957 111 13.7842009957 111 28 c 0,11,12
 111 37.6181996836 111 37.6181996836 117.446585792 44.7562173901 c 0,13,14
 433.307713652 394.495194926 433.307713652 394.495194926 591.331488971 626.064626683 c 0,15,16
 646.098274776 706.773574185 646.098274776 706.773574185 664.495991333 769.986241329 c 0,17,18
 683 833.564117262 683 833.564117262 683 912 c 0,19,20
 683 1006.41808902 683 1006.41808902 627.404251578 1068.29077678 c 0,21,22
 572.853935061 1129 572.853935061 1129 488 1129 c 0,23,24
 436.792849034 1129 436.792849034 1129 389.745873005 1110.27256294 c 0,25,26
 342.138370463 1091.32200368 342.138370463 1091.32200368 309.313078384 1063.05577994 c 0,27,28
 274.637669396 1033.19639998 274.637669396 1033.19639998 254.290642227 1010.01025274 c 0,29,30
 234.27752181 987.204603892 234.27752181 987.204603892 223.437323143 969.137606114 c 0,31,32
 216.154759474 957 216.154759474 957 202 957 c 0,33,34
 181.203261014 957 181.203261014 957 160.514799213 976.15598315 c 0,35,36
 139 996.077093532 139 996.077093532 139 1014 c 0,37,38
 139 1017.2072027 139 1017.2072027 139.80956819 1020.31054743 c 0,39,40
 146.959321729 1047.71793599 146.959321729 1047.71793599 178.589609012 1092.43661802 c 0,41,42
 208.623928435 1134.89893168 208.623928435 1134.89893168 255.356150042 1184.19885777 c 0,43,44
 303.934430025 1235.44627402 303.934430025 1235.44627402 377.947983019 1271.92438228 c 0,45,46
 453.173874045 1309 453.173874045 1309 532 1309 c 0,47,48
 683.319551218 1309 683.319551218 1309 793.134395135 1199.72083825 c 128,-1,49
 903 1090.39116316 903 1090.39116316 903 950 c 0,50,51
 903 779.108854487 903 779.108854487 783.362870702 632.186064122 c 0,52,53
 639.415187025 456.45772301 639.415187025 456.45772301 383.987155562 171 c 1,54,-1
 724 171 l 2,55,56
 771.934393717 171 771.934393717 171 803.176960981 201.025324384 c 0,57,58
 837.891236981 234.387096124 837.891236981 234.387096124 868.90598296 309.574359104 c 0,59,60
 880.333333333 337 880.333333333 337 916 337 c 0,61,62
 948 337 948 337 971 320 c 0,63,64
 986.480992992 308.389255256 986.480992992 308.389255256 979.121425104 290.492124256 c 0,0,1
EndSplineSet
Validated: 1
Substitution2: "'ordn' Ordinals lookup 17 subtable" two.ordn
Substitution2: "'onum' Oldstyle Figures lookup 16 subtable" two.onum
Substitution2: "'pnum' Proportional Numbers lookup 14 subtable" two.prop
EndChar

StartChar: three
Encoding: 51 51 21
Width: 1090
GlyphClass: 2
Flags: W
LayerCount: 4
Fore
SplineSet
564 1309 m 0,0,1
 608.739086949 1309 608.739086949 1309 657.649396623 1289.76560856 c 0,2,3
 705.482964341 1270.95465496 705.482964341 1270.95465496 748.314291636 1237.7603763 c 0,4,5
 792.611184004 1203.43028472 792.611184004 1203.43028472 821.637202316 1148.11655171 c 0,6,7
 851 1092.16103159 851 1092.16103159 851 1028 c 0,8,9
 851 977.01037427 851 977.01037427 830.584589616 927.903035778 c 0,10,11
 810.451059596 879.47373384 810.451059596 879.47373384 777.10954483 842.306143608 c 0,12,13
 745.454788648 807.018874422 745.454788648 807.018874422 715.133791229 781.402859361 c 0,14,15
 707.946220074 775.330600971 707.946220074 775.330600971 699.90581851 769.0147796 c 1,16,17
 721.521525828 761.421507666 721.521525828 761.421507666 743.369428914 750.265131623 c 0,18,19
 793.331669336 724.752498216 793.331669336 724.752498216 838.795373462 683.517975869 c 0,20,21
 885.591370781 641.075094579 885.591370781 641.075094579 915.226620572 576.416367762 c 0,22,23
 945 511.456267193 945 511.456267193 945 436 c 0,24,25
 945 330.944646017 945 330.944646017 898.22917309 240.060425544 c 0,26,27
 851.730060102 149.704194624 851.730060102 149.704194624 775.433472094 89.8325665347 c 0,28,29
 700.137230916 30.745932832 700.137230916 30.745932832 605.177764097 -2.12465183601 c 128,-1,30
 510.204536068 -35 510.204536068 -35 412 -35 c 0,31,32
 294.098300563 -35 294.098300563 -35 196.819660113 13.639320225 c 0,33,34
 195.427534539 14.3353830116 195.427534539 14.3353830116 194.132495094 15.1987426416 c 0,35,36
 177.420730386 26.3399191135 177.420730386 26.3399191135 160.522461402 54.7048706226 c 0,37,38
 143 84.1175736908 143 84.1175736908 143 112 c 0,39,40
 143 163.796738986 143 163.796738986 174.65598315 197.985200787 c 0,41,42
 207.077093532 233 207.077093532 233 252 233 c 0,43,44
 284.734093974 233 284.734093974 233 310.11709789 215.632681531 c 0,45,46
 332.43170384 200.36479325 332.43170384 200.36479325 355.869195348 169.672840084 c 0,47,48
 375.85698363 143.498355429 375.85698363 143.498355429 381.67766953 137.67766953 c 0,49,50
 424.355339059 95 424.355339059 95 512 95 c 0,51,52
 548.907900553 95 548.907900553 95 584.221483991 110.008272961 c 0,53,54
 619.92473513 125.182154695 619.92473513 125.182154695 652.076646409 156.428378333 c 0,55,56
 683.299677681 186.771887597 683.299677681 186.771887597 702.859652508 243.632279537 c 0,57,58
 723 302.179801315 723 302.179801315 723 380 c 0,59,60
 723 489.057926692 723 489.057926692 652.827763266 563.3311383 c 0,61,62
 583.226507426 637 583.226507426 637 492 637 c 0,63,64
 475.47548784 637 475.47548784 637 455.402903378 632.985483108 c 0,65,66
 434.077941197 628.720490671 434.077941197 628.720490671 408.725114798 621.06680723 c 0,67,68
 382.566947805 613.1700021 382.566947805 613.1700021 379.90569415 612.282917549 c 0,69,70
 363.368076222 606.770378239 363.368076222 606.770378239 352.478279764 620.382623811 c 0,71,72
 335 642.230473516 335 642.230473516 335 676 c 0,73,74
 335 697.569390943 335 697.569390943 343.198742642 709.867504906 c 0,75,76
 348.797474574 718.265602804 348.797474574 718.265602804 358.65757803 720.422500435 c 0,77,78
 420.182594969 733.88109789 420.182594969 733.88109789 470.866546865 756.354170901 c 0,79,80
 521.050336932 778.605474044 521.050336932 778.605474044 564.121511836 812.210456661 c 0,81,82
 605.166392495 844.234484428 605.166392495 844.234484428 628.139320225 890.180339887 c 0,83,84
 651 935.901699437 651 935.901699437 651 992 c 0,85,86
 651 1061.30565359 651 1061.30565359 603.234232717 1106.91980973 c 0,87,88
 554.980448568 1153 554.980448568 1153 480 1153 c 0,89,90
 442.461571363 1153 442.461571363 1153 404.925571695 1135.77760015 c 0,91,92
 365.728090413 1117.79287345 365.728090413 1117.79287345 344.462615197 1099.18558263 c 0,93,94
 321.481570725 1079.07716872 321.481570725 1079.07716872 299.398275294 1055.07358673 c 0,95,96
 294.576020846 1049.83200581 294.576020846 1049.83200581 289.533129982 1043.76781572 c 128,-1,97
 284.490239118 1037.70362563 284.490239118 1037.70362563 282.168678567 1034.9986383 c 128,-1,98
 279.847118015 1032.29365097 279.847118015 1032.29365097 276.039037467 1029.22913986 c 128,-1,99
 272.230956918 1026.16462874 272.230956918 1026.16462874 267.180339887 1023.63932023 c 0,100,101
 261.901699437 1021 261.901699437 1021 256 1021 c 0,102,103
 231.549150281 1021 231.549150281 1021 217.139320225 1049.81966011 c 0,104,105
 207 1070.09830056 207 1070.09830056 207 1090 c 0,106,107
 207 1097.68550918 207 1097.68550918 211.317343689 1104.04377898 c 0,108,109
 269.073997027 1189.10357753 269.073997027 1189.10357753 358.160770446 1248.32007986 c 0,110,111
 449.449145879 1309 449.449145879 1309 564 1309 c 0,0,1
EndSplineSet
Validated: 1
Substitution2: "'ordn' Ordinals lookup 17 subtable" three.ordn
Substitution2: "'onum' Oldstyle Figures lookup 16 subtable" three.onum
Substitution2: "'pnum' Proportional Numbers lookup 14 subtable" three.prop
EndChar

StartChar: four
Encoding: 52 52 22
Width: 1090
GlyphClass: 2
Flags: W
LayerCount: 4
Fore
SplineSet
812 1313 m 0,0,1
 825.410484673 1313 825.410484673 1313 836.505524661 1307.18831239 c 0,2,3
 846.927617943 1301.72912067 846.927617943 1301.72912067 854.218402108 1291.70429244 c 0,4,5
 867 1274.12959534 867 1274.12959534 867 1252 c 2,6,-1
 867 487 l 1,7,-1
 960 487 l 2,8,9
 964.74948046 487 964.74948046 487 968.938272884 486.140303867 c 128,-1,10
 973.127065308 485.280607734 973.127065308 485.280607734 976.578367636 483.15959987 c 128,-1,11
 980.029669964 481.038592005 980.029669964 481.038592005 982.708111798 479.290876949 c 128,-1,12
 985.386553632 477.543161892 985.386553632 477.543161892 987.915764395 473.868421625 c 128,-1,13
 990.444975158 470.193681358 990.444975158 470.193681358 991.935790871 468.251803001 c 128,-1,14
 993.426606584 466.309924644 993.426606584 466.309924644 995.356450251 461.775307597 c 128,-1,15
 997.286293918 457.24069055 997.286293918 457.24069055 997.912207978 455.798504515 c 128,-1,16
 998.538122039 454.356318481 998.538122039 454.356318481 1000.19132308 449.655680277 c 128,-1,17
 1001.84452412 444.955042074 1001.84452412 444.955042074 1001.98162309 444.579823823 c 0,18,19
 1013 414.424265977 1013 414.424265977 1013 380 c 0,20,21
 1013 352.430609057 1013 352.430609057 1000.80125736 334.132495094 c 0,22,23
 993.379593962 323 993.379593962 323 980 323 c 2,24,-1
 867 323 l 1,25,-1
 867 -2 l 2,26,27
 867 -10.769526484 867 -10.769526484 861.521720236 -17.6173761889 c 0,28,29
 856.785113894 -23.5381341167 856.785113894 -23.5381341167 849.843903363 -27.4997561058 c 128,-1,30
 842.902692832 -31.4613780948 842.902692832 -31.4613780948 836.853406907 -33.4936980349 c 128,-1,31
 830.804120982 -35.526017975 830.804120982 -35.526017975 819.303146999 -36.4324348418 c 128,-1,32
 807.802173016 -37.3388517086 807.802173016 -37.3388517086 801.249562363 -37.4091385231 c 128,-1,33
 794.69695171 -37.4794253375 794.69695171 -37.4794253375 778.958667624 -37.2397126687 c 128,-1,34
 763.220383538 -37 763.220383538 -37 756 -37 c 0,35,36
 753 -37 753 -37 743.5 -37 c 128,-1,37
 734 -37 734 -37 729.5 -37 c 128,-1,38
 725 -37 725 -37 715.5 -36.5 c 128,-1,39
 706 -36 706 -36 701 -35 c 128,-1,40
 696 -34 696 -34 688.5 -32.5 c 128,-1,41
 681 -31 681 -31 676.5 -27.5 c 128,-1,42
 672 -24 672 -24 667.5 -20 c 128,-1,43
 663 -16 663 -16 661 -10 c 128,-1,44
 659 -4 659 -4 659 4 c 2,45,-1
 659 323 l 1,46,-1
 120 323 l 2,47,48
 113.578580861 323 113.578580861 323 107.952031256 326.094602283 c 0,49,50
 75 344.218219474 75 344.218219474 75 386 c 0,51,52
 75 394.468190528 75 394.468190528 80.146346758 401.19317126 c 2,53,-1
 732.072705227 1253.0969403 l 2,54,55
 745.384855607 1270.84647414 745.384855607 1270.84647414 765.584367766 1289.40818802 c 0,56,57
 791.257810216 1313 791.257810216 1313 812 1313 c 0,0,1
659 974.136643737 m 1,58,-1
 286.58154199 487 l 1,59,-1
 659 487 l 1,60,-1
 659 974.136643737 l 1,58,-1
EndSplineSet
Validated: 1
Substitution2: "'ordn' Ordinals lookup 17 subtable" four.ordn
Substitution2: "'onum' Oldstyle Figures lookup 16 subtable" four.onum
Substitution2: "'pnum' Proportional Numbers lookup 14 subtable" four.prop
EndChar

StartChar: five
Encoding: 53 53 23
Width: 1090
GlyphClass: 2
Flags: W
LayerCount: 4
Fore
SplineSet
544 815 m 0,0,1
 634.196392144 815 634.196392144 815 711.462370186 781.429264713 c 128,-1,2
 788.746648959 747.850578074 788.746648959 747.850578074 839.300465108 693.532116041 c 0,3,4
 889.383174639 639.719843034 889.383174639 639.719843034 917.109348338 572.537191378 c 0,5,6
 945 504.955996967 945 504.955996967 945 436 c 0,7,8
 945 330.944646017 945 330.944646017 898.22917309 240.060425544 c 0,9,10
 851.730060102 149.704194624 851.730060102 149.704194624 775.433472094 89.8325665347 c 0,11,12
 700.137230916 30.745932832 700.137230916 30.745932832 605.177764097 -2.12465183601 c 128,-1,13
 510.204536068 -35 510.204536068 -35 412 -35 c 0,14,15
 294.098300563 -35 294.098300563 -35 196.819660113 13.639320225 c 0,16,17
 195.427534539 14.3353830116 195.427534539 14.3353830116 194.132495094 15.1987426416 c 0,18,19
 177.420730386 26.3399191135 177.420730386 26.3399191135 160.522461402 54.7048706226 c 0,20,21
 143 84.1175736908 143 84.1175736908 143 112 c 0,22,23
 143 163.796738986 143 163.796738986 174.65598315 197.985200787 c 0,24,25
 207.077093532 233 207.077093532 233 252 233 c 0,26,27
 284.734093974 233 284.734093974 233 310.11709789 215.632681531 c 0,28,29
 332.43170384 200.36479325 332.43170384 200.36479325 355.869195348 169.672840084 c 0,30,31
 375.85698363 143.498355429 375.85698363 143.498355429 381.67766953 137.67766953 c 0,32,33
 424.355339059 95 424.355339059 95 512 95 c 0,34,35
 549.046205648 95 549.046205648 95 584.466726926 109.610965027 c 128,-1,36
 620.023493678 124.278131313 620.023493678 124.278131313 652.076646409 155.428378333 c 0,37,38
 683.299677681 185.771887597 683.299677681 185.771887597 702.859652508 242.632279537 c 0,39,40
 723 301.179801315 723 301.179801315 723 380 c 0,41,42
 723 415.77340723 723 415.77340723 713.319225866 452.65254679 c 0,43,44
 703.803104702 488.904436936 703.803104702 488.904436936 680.875495063 525.130060166 c 128,-1,45
 657.866216274 561.484720652 657.866216274 561.484720652 624.686921616 590.055779941 c 0,46,47
 592.313474175 617.932915238 592.313474175 617.932915238 541.83699368 635.370244863 c 0,48,49
 490.803491969 653 490.803491969 653 428 653 c 0,50,51
 396.12419249 653 396.12419249 653 342.717933566 643.858388112 c 0,52,53
 290.647479124 634.945427442 290.647479124 634.945427442 270.786387433 625.446644459 c 0,54,55
 265.670676291 623 265.670676291 623 260 623 c 0,56,57
 239.289916275 623 239.289916275 623 227.146068097 644.858926721 c 0,58,59
 219 659.521849295 219 659.521849295 219 676 c 0,60,61
 219 678.422684947 219 678.422684947 219.465183628 680.80029016 c 0,62,63
 327.452252152 1232.73419595 327.452252152 1232.73419595 335.441535839 1274.6778027 c 0,64,65
 337.134158279 1283.5640705 337.134158279 1283.5640705 344.49205832 1289.28203525 c 128,-1,66
 351.849958361 1295 351.849958361 1295 360 1295 c 2,67,-1
 656 1295 l 2,68,69
 690.780085591 1295 690.780085591 1295 735.565966873 1299.38122752 c 0,70,71
 780.580241469 1303.78479786 780.580241469 1303.78479786 808.03364852 1308.68719197 c 2,72,-1
 836.464466094 1312.74873734 l 2,73,74
 845.920081607 1314.09953956 845.920081607 1314.09953956 853.867504906 1308.80125736 c 0,75,76
 856.646239972 1306.94876731 856.646239972 1306.94876731 861.921887305 1303.59153719 c 128,-1,77
 867.144415109 1300.26811041 867.144415109 1300.26811041 869.362393886 1298.93732314 c 0,78,79
 875.494148176 1295.25827057 875.494148176 1295.25827057 880.70553199 1289.00460999 c 0,80,81
 889 1279.05124838 889 1279.05124838 889 1266 c 0,82,83
 889 1246.5233021 889 1246.5233021 868.946546067 1192.32477796 c 128,-1,84
 848.907376165 1138.1648593 848.907376165 1138.1648593 823.031080762 1107.78833861 c 0,85,86
 816.570101856 1100.2037112 816.570101856 1100.2037112 806.663328091 1099.14227115 c 0,87,88
 693.335464006 1087 693.335464006 1087 572 1087 c 2,89,-1
 424.521244671 1087 l 1,90,91
 417.189575578 1049.89641147 417.189575578 1049.89641147 406.045480511 992.254540435 c 0,92,93
 391.533249424 917.191276193 391.533249424 917.191276193 379.514516892 857.097096622 c 0,94,95
 372.417470582 821.611865068 372.417470582 821.611865068 365.602243421 789.295529704 c 1,96,97
 395.286299218 797.332260968 395.286299218 797.332260968 432.297116041 803.644183217 c 0,98,99
 498.883496269 815 498.883496269 815 544 815 c 0,0,1
EndSplineSet
Validated: 1
Substitution2: "'ordn' Ordinals lookup 17 subtable" five.ordn
Substitution2: "'onum' Oldstyle Figures lookup 16 subtable" five.onum
Substitution2: "'pnum' Proportional Numbers lookup 14 subtable" five.prop
EndChar

StartChar: six
Encoding: 54 54 24
Width: 1090
GlyphClass: 2
Flags: W
LayerCount: 4
Fore
SplineSet
349.693906013 600.690290791 m 1,0,1
 343 548.520324884 343 548.520324884 343 476 c 0,2,3
 343 408.576506721 343 408.576506721 357.474510493 339.098856353 c 128,-1,4
 371.96178817 269.559923506 371.96178817 269.559923506 398.469333755 207.869635598 c 0,5,6
 423.659201313 149.245943828 423.659201313 149.245943828 466.202965738 113.038484742 c 0,7,8
 506.198185311 79 506.198185311 79 554 79 c 0,9,10
 635.965719951 79 635.965719951 79 691.003076259 157.813494233 c 0,11,12
 749 240.86508903 749 240.86508903 749 368 c 0,13,14
 749 452.807902852 749 452.807902852 725.867444628 519.845104132 c 0,15,16
 703.742971887 583.960923097 703.742971887 583.960923097 650.943896861 625.929418631 c 0,17,18
 599.274455784 667 599.274455784 667 522 667 c 0,19,20
 414.3912901 667 414.3912901 667 349.693906013 600.690290791 c 1,0,1
578 815 m 0,21,22
 662.900351881 815 662.900351881 815 732.438078463 786.650003778 c 0,23,24
 802.184939294 758.214745132 802.184939294 758.214745132 845.78712562 714.067531477 c 0,25,26
 888.479731845 670.841267673 888.479731845 670.841267673 917.232195058 614.933700316 c 0,27,28
 945.705740656 559.568472763 945.705740656 559.568472763 957.404676505 506.923261445 c 0,29,30
 969 454.744305716 969 454.744305716 969 406 c 0,31,32
 969 225.975212696 969 225.975212696 843.57395833 94.7277091766 c 0,33,34
 781.056341877 29.3084312002 781.056341877 29.3084312002 704.186423394 -3.8457843999 c 128,-1,35
 627.316504911 -37 627.316504911 -37 538 -37 c 0,36,37
 444.786562216 -37 444.786562216 -37 363.796085688 5.90886173641 c 0,38,39
 283.383502731 48.511554694 283.383502731 48.511554694 231.036915294 117.950905375 c 0,40,41
 179.690968332 186.062875835 179.690968332 186.062875835 150.403541091 269.741239382 c 0,42,43
 121 353.751356784 121 353.751356784 121 440 c 0,44,45
 121 598.351247697 121 598.351247697 171.470133231 738.94661884 c 0,46,47
 222.160790013 880.156305589 222.160790013 880.156305589 319.516440463 986.833241721 c 0,48,49
 424.064963847 1101.63162034 424.064963847 1101.63162034 577.827625814 1192.05019565 c 0,50,51
 731.301414989 1282.29890224 731.301414989 1282.29890224 867.637667518 1318.17686343 c 0,52,53
 870.765586478 1319 870.765586478 1319 874 1319 c 0,54,55
 904.978504983 1319 904.978504983 1319 916.079907533 1279.2199742 c 0,56,57
 923 1254.42297619 923 1254.42297619 923 1236 c 0,58,59
 923 1217.78006494 923 1217.78006494 905.655286505 1212.20091202 c 0,60,61
 502.619526291 1082.55921235 502.619526291 1082.55921235 386.737802415 760.975386628 c 1,62,63
 416.291233851 777.434766652 416.291233851 777.434766652 449.456423423 789.494835587 c 0,64,65
 519.595625558 815 519.595625558 815 578 815 c 0,21,22
EndSplineSet
Validated: 1
Substitution2: "'ordn' Ordinals lookup 17 subtable" six.ordn
Substitution2: "'onum' Oldstyle Figures lookup 16 subtable" six.onum
Substitution2: "'pnum' Proportional Numbers lookup 14 subtable" six.prop
EndChar

StartChar: seven
Encoding: 55 55 25
Width: 1090
GlyphClass: 2
Flags: W
LayerCount: 4
Fore
SplineSet
816 1291 m 2,0,1
 846.27944523 1291 846.27944523 1291 897.560086623 1293.95849854 c 0,2,3
 950.27944523 1297 950.27944523 1297 952 1297 c 0,4,5
 971 1297 971 1297 980 1283 c 128,-1,6
 989 1269 989 1269 989 1254 c 0,7,8
 989 1240.82307129 989 1240.82307129 982.142164983 1220.87300579 c 0,9,10
 976.22091512 1203.64755164 976.22091512 1203.64755164 969.175224194 1188.47221734 c 0,11,12
 962.564133325 1174.2329447 962.564133325 1174.2329447 949.948018068 1148.49606957 c 0,13,14
 937.690541008 1123.49081637 937.690541008 1123.49081637 930.497293819 1109.09284951 c 2,15,-1
 402.627762029 -14.6294113448 l 2,16,17
 400.768984376 -18.5863546837 400.768984376 -18.5863546837 397.67766953 -21.6776695297 c 0,18,19
 384.355339059 -35 384.355339059 -35 360 -35 c 0,20,21
 330.579205926 -35 330.579205926 -35 294.926500652 -21.9839329955 c 0,22,23
 281.271818149 -16.9988901768 281.271818149 -16.9988901768 273.046264237 -12.9199298597 c 128,-1,24
 264.820710325 -8.84096954255 264.820710325 -8.84096954255 255.910355162 1.66308026767 c 128,-1,25
 247 12.1671300779 247 12.1671300779 247 26 c 0,26,27
 247 33.5240032405 247 33.5240032405 251.152709972 39.7982063498 c 0,28,29
 342.422179859 177.694470637 342.422179859 177.694470637 483.81227907 450.019767357 c 0,30,31
 625.587365493 723.086571136 625.587365493 723.086571136 721.379532445 926.644925908 c 2,32,-1
 800.605449665 1095 l 1,33,-1
 332 1095 l 2,34,35
 285.239795704 1095 285.239795704 1095 261.199756953 1067.90725791 c 0,36,37
 233.767497416 1036.99153685 233.767497416 1036.99153685 212.369539555 960.322256727 c 0,38,39
 205.296771907 929 205.296771907 929 164 929 c 0,40,41
 132 929 132 929 109 946 c 0,42,43
 94.8472036453 956.614597266 94.8472036453 956.614597266 100.149136786 973.492417764 c 0,44,45
 159.820573367 1163.44649088 159.820573367 1163.44649088 183.584828774 1271.37581752 c 0,46,47
 185.464136278 1279.91100577 185.464136278 1279.91100577 192.504522926 1285.45550288 c 128,-1,48
 199.544909573 1291 199.544909573 1291 208 1291 c 2,49,-1
 816 1291 l 2,0,1
EndSplineSet
Validated: 1
Substitution2: "'ordn' Ordinals lookup 17 subtable" seven.ordn
Substitution2: "'onum' Oldstyle Figures lookup 16 subtable" seven.onum
Substitution2: "'pnum' Proportional Numbers lookup 14 subtable" seven.prop
EndChar

StartChar: eight
Encoding: 56 56 26
Width: 1090
GlyphClass: 2
Flags: W
LayerCount: 4
Fore
SplineSet
544 79 m 0,0,1
 632.458805691 79 632.458805691 79 683.599996509 131.452503403 c 0,2,3
 735 184.170455701 735 184.170455701 735 276 c 0,4,5
 735 316.935817609 735 316.935817609 712.778462961 360.045599464 c 0,6,7
 689.338445396 405.519233541 689.338445396 405.519233541 660.650927338 436.520261119 c 0,8,9
 631.031787055 468.528041748 631.031787055 468.528041748 589.635613685 500.778548909 c 0,10,11
 547.478947568 533.621532976 547.478947568 533.621532976 528.375291235 546.038909592 c 0,12,13
 509.537129579 558.283714669 509.537129579 558.283714669 492.551319426 567.760684313 c 1,14,15
 418.37626098 519.091082299 418.37626098 519.091082299 385.154639651 461.506938663 c 0,16,17
 351 402.305563267 351 402.305563267 351 314 c 0,18,19
 351 206.828858769 351 206.828858769 410.806153047 142.526002485 c 0,20,21
 469.889777736 79 469.889777736 79 544 79 c 0,0,1
544 1191 m 0,22,23
 484.310037436 1191 484.310037436 1191 441.815599728 1135.75723098 c 0,24,25
 397 1077.49695133 397 1077.49695133 397 996 c 0,26,27
 397 949.095267837 397 949.095267837 413.5058925 910.284115201 c 0,28,29
 429.921687646 871.684813102 429.921687646 871.684813102 461.521166924 842.310649266 c 0,30,31
 495.585513167 810.645200645 495.585513167 810.645200645 519.959409215 794.23969369 c 0,32,33
 545.004901817 777.382150593 545.004901817 777.382150593 582.966706878 754.9665473 c 0,34,35
 588.364851541 752.220122822 588.364851541 752.220122822 591.965059264 750.01999588 c 0,36,37
 715 832.797180272 715 832.797180272 715 972 c 0,38,39
 715 1056.85952424 715 1056.85952424 664.793177778 1125.77979838 c 0,40,41
 617.281772625 1191 617.281772625 1191 544 1191 c 0,22,23
556 1311 m 0,42,43
 704.117268798 1311 704.117268798 1311 805.594040728 1225.63065219 c 0,44,45
 909 1138.63833724 909 1138.63833724 909 992 c 0,46,47
 909 931.933494552 909 931.933494552 886.527456462 878.766745207 c 128,-1,48
 864.127818249 825.77247919 864.127818249 825.77247919 822.17766953 783.82233047 c 0,49,50
 782.536667986 744.181328926 782.536667986 744.181328926 750.758453549 719.69647518 c 0,51,52
 728.205829887 702.319863506 728.205829887 702.319863506 698.02946635 682.58916427 c 1,53,54
 790.965054882 625.085233204 790.965054882 625.085233204 862.517846593 541.227184321 c 0,55,56
 947 442.216252939 947 442.216252939 947 334 c 0,57,58
 947 175.826068013 947 175.826068013 824.174626184 65.8732224576 c 0,59,60
 702.555270366 -43 702.555270366 -43 540 -43 c 0,61,62
 365.611501945 -43 365.611501945 -43 255.043822447 53.6799516382 c 0,63,64
 143 151.650636966 143 151.650636966 143 308 c 0,65,66
 143 336.958001102 143 336.958001102 149.69031745 364.834323812 c 0,67,68
 155.963284752 390.971687568 155.963284752 390.971687568 163.341253598 412.578596332 c 0,69,70
 171.517194037 436.522421903 171.517194037 436.522421903 189.626116886 461.988094659 c 0,71,72
 205.572378402 484.412524916 205.572378402 484.412524916 216.019201987 499.336558609 c 0,73,74
 228.200118757 516.737868281 228.200118757 516.737868281 252.890904029 538.685232967 c 0,75,76
 275.308712513 558.612173841 275.308712513 558.612173841 285.727166901 568.038394478 c 0,77,78
 297.384664396 578.585654116 297.384664396 578.585654116 323.663441391 596.980798013 c 0,79,80
 348.565915993 614.412530234 348.565915993 614.412530234 355.469045157 619.34333678 c 0,81,82
 362.987264306 624.713493315 362.987264306 624.713493315 388.523657589 641.056785017 c 2,83,-1
 390.624595233 642.400273468 l 1,84,85
 322.776655488 689.457593344 322.776655488 689.457593344 267.130804652 762.327159916 c 0,86,87
 199 851.54607077 199 851.54607077 199 960 c 0,88,89
 199 1098.42900652 199 1098.42900652 306.411385052 1204.76627773 c 128,-1,90
 413.718175228 1311 413.718175228 1311 556 1311 c 0,42,43
EndSplineSet
Validated: 1
Substitution2: "'ordn' Ordinals lookup 17 subtable" eight.ordn
Substitution2: "'onum' Oldstyle Figures lookup 16 subtable" eight.onum
Substitution2: "'pnum' Proportional Numbers lookup 14 subtable" eight.prop
EndChar

StartChar: nine
Encoding: 57 57 27
Width: 1090
GlyphClass: 2
Flags: W
LayerCount: 4
Fore
SplineSet
740.306093987 681.309709209 m 1,0,1
 747 733.479675116 747 733.479675116 747 806 c 0,2,3
 747 873.423493279 747 873.423493279 732.525489507 942.901143647 c 128,-1,4
 718.03821183 1012.44007649 718.03821183 1012.44007649 691.530666245 1074.1303644 c 0,5,6
 666.340798687 1132.75405617 666.340798687 1132.75405617 623.797034262 1168.96151526 c 0,7,8
 583.801814689 1203 583.801814689 1203 536 1203 c 0,9,10
 455.094196769 1203 455.094196769 1203 400.550670828 1124.2637811 c 0,11,12
 343 1041.18660305 343 1041.18660305 343 914 c 0,13,14
 343 828.138697421 343 828.138697421 365.666247651 761.556594945 c 0,15,16
 387.319480594 697.950223175 387.319480594 697.950223175 439.63787357 656.005304668 c 0,17,18
 490.784275092 615 490.784275092 615 568 615 c 0,19,20
 675.6087099 615 675.6087099 615 740.306093987 681.309709209 c 1,0,1
184.344713495 69.7990879769 m 0,21,22
 587.380473709 199.440787652 587.380473709 199.440787652 703.262197585 521.024613372 c 1,23,24
 673.708766149 504.565233348 673.708766149 504.565233348 640.543576577 492.505164413 c 0,25,26
 570.404374442 467 570.404374442 467 512 467 c 0,27,28
 427.099648119 467 427.099648119 467 357.561921537 495.349996222 c 0,29,30
 287.739164751 523.816197065 287.739164751 523.816197065 244.602757769 568.044664984 c 0,31,32
 202.44917336 611.265428745 202.44917336 611.265428745 173.724012579 667.651855465 c 0,33,34
 145.252147917 723.541071282 145.252147917 723.541071282 134.06605299 775.21017642 c 0,35,36
 123 826.324802135 123 826.324802135 123 876 c 0,37,38
 123 1055.96343192 123 1055.96343192 247.353105809 1187.19564571 c 0,39,40
 372.248360887 1319 372.248360887 1319 552 1319 c 0,41,42
 645.213437784 1319 645.213437784 1319 726.203914312 1276.09113826 c 0,43,44
 806.616497269 1233.48844531 806.616497269 1233.48844531 858.963084706 1164.04909462 c 0,45,46
 910.309031668 1095.93712417 910.309031668 1095.93712417 939.596458909 1012.25876062 c 0,47,48
 969 928.248643216 969 928.248643216 969 842 c 0,49,50
 969 683.648752303 969 683.648752303 918.529866769 543.05338116 c 0,51,52
 867.839209987 401.84369441 867.839209987 401.84369441 770.483559537 295.166758279 c 0,53,54
 665.935036153 180.368379661 665.935036153 180.368379661 512.172374186 89.9498043512 c 0,55,56
 358.698585011 -0.298902239651 358.698585011 -0.298902239651 222.362332482 -36.1768634316 c 0,57,58
 219.234413522 -37 219.234413522 -37 216 -37 c 0,59,60
 185.021495017 -37 185.021495017 -37 173.920092467 2.78002580465 c 0,61,62
 167 27.5770238102 167 27.5770238102 167 46 c 0,63,64
 167 64.2199350583 167 64.2199350583 184.344713495 69.7990879769 c 0,21,22
EndSplineSet
Validated: 1
Substitution2: "'onum' Oldstyle Figures lookup 16 subtable" nine.onum
Substitution2: "'pnum' Proportional Numbers lookup 14 subtable" nine.prop
EndChar

StartChar: colon
Encoding: 58 58 28
Width: 452
GlyphClass: 2
Flags: W
LayerCount: 4
Fore
SplineSet
91 90 m 0,0,1
 91 145.808725942 91 145.808725942 132.374363656 184.712978334 c 0,2,3
 173.092307332 223 173.092307332 223 228 223 c 0,4,5
 283.355339059 223 283.355339059 223 322.17766953 184.17766953 c 128,-1,6
 361 145.355339059 361 145.355339059 361 90 c 0,7,8
 361 35.092307332 361 35.092307332 322.712978334 -5.6256363442 c 0,9,10
 283.808725942 -47 283.808725942 -47 228 -47 c 0,11,12
 172.644660941 -47 172.644660941 -47 131.82233047 -6.17766952966 c 128,-1,13
 91 34.6446609407 91 34.6446609407 91 90 c 0,0,1
91 754 m 0,14,15
 91 809.808725942 91 809.808725942 132.374363656 848.712978334 c 0,16,17
 173.092307332 887 173.092307332 887 228 887 c 0,18,19
 283.355339059 887 283.355339059 887 322.17766953 848.17766953 c 128,-1,20
 361 809.355339059 361 809.355339059 361 754 c 0,21,22
 361 699.092307332 361 699.092307332 322.712978334 658.374363656 c 0,23,24
 283.808725942 617 283.808725942 617 228 617 c 0,25,26
 172.644660941 617 172.644660941 617 131.82233047 657.82233047 c 128,-1,27
 91 698.644660941 91 698.644660941 91 754 c 0,14,15
EndSplineSet
Validated: 1
Substitution2: "'smcp' Lowercase to Small Capitals lookup 12 subtable" colon.sc
EndChar

StartChar: semicolon
Encoding: 59 59 29
Width: 464
GlyphClass: 2
Flags: W
LayerCount: 4
Fore
SplineSet
254 271 m 0,0,1
 288.758728534 271 288.758728534 271 318.596775638 253.594472522 c 0,2,3
 324.302720334 250.266004783 324.302720334 250.266004783 327.619723665 244.553387935 c 0,4,5
 367 176.731800914 367 176.731800914 367 92 c 0,6,7
 367 0.587031457788 367 0.587031457788 283.959119591 -127.12774031 c 0,8,9
 201.548621131 -253.8730006 201.548621131 -253.8730006 118.069512729 -299.893534719 c 0,10,11
 112.434529196 -303 112.434529196 -303 106 -303 c 0,12,13
 82.1438089623 -303 82.1438089623 -303 64.8000423999 -275.2499735 c 0,14,15
 51 -253.16990566 51 -253.16990566 51 -236 c 0,16,17
 51 -223.390544248 51 -223.390544248 61.1402234729 -215.895596463 c 0,18,19
 83.1713782695 -199.61169944 83.1713782695 -199.61169944 97.2758817094 -186.917646344 c 0,20,21
 110.990835753 -174.574187705 110.990835753 -174.574187705 133.877220047 -147.396606355 c 0,22,23
 154.762723392 -122.595071134 154.762723392 -122.595071134 165.751855251 -89.18811028 c 0,24,25
 177 -54.9937502441 177 -54.9937502441 177 -14 c 0,26,27
 177 9.81573809605 177 9.81573809605 148.839875104 48.2159084093 c 0,28,29
 111 99.8157380961 111 99.8157380961 111 148 c 0,30,31
 111 193.808725942 111 193.808725942 152.374363656 232.712978334 c 0,32,33
 193.092307332 271 193.092307332 271 254 271 c 0,0,1
97 754 m 0,34,35
 97 809.808725942 97 809.808725942 138.374363656 848.712978334 c 0,36,37
 179.092307332 887 179.092307332 887 234 887 c 0,38,39
 289.355339059 887 289.355339059 887 328.17766953 848.17766953 c 128,-1,40
 367 809.355339059 367 809.355339059 367 754 c 0,41,42
 367 699.092307332 367 699.092307332 328.712978334 658.374363656 c 0,43,44
 289.808725942 617 289.808725942 617 234 617 c 0,45,46
 178.644660941 617 178.644660941 617 137.82233047 657.82233047 c 128,-1,47
 97 698.644660941 97 698.644660941 97 754 c 0,34,35
EndSplineSet
Validated: 1
Substitution2: "'smcp' Lowercase to Small Capitals lookup 12 subtable" semicolon.sc
EndChar

StartChar: less
Encoding: 60 60 30
Width: 984
GlyphClass: 2
Flags: W
LayerCount: 4
Fore
SplineSet
913 70 m 0,0,1
 913 52.5770238102 913 52.5770238102 900.079907533 6.28002580465 c 0,2,3
 899.408687953 3.87482230829 899.408687953 3.87482230829 897.038447223 -7.18773146242 c 128,-1,4
 894.668206493 -18.2502852331 894.668206493 -18.2502852331 892.443909056 -24.2703212368 c 128,-1,5
 890.21961162 -30.2903572404 890.21961162 -30.2903572404 885.756982331 -38.6329581423 c 128,-1,6
 881.294353042 -46.9755590442 881.294353042 -46.9755590442 873.78878288 -50.9877795221 c 128,-1,7
 866.283212717 -55 866.283212717 -55 856 -55 c 0,8,9
 848.098300563 -55 848.098300563 -55 834.76019064 -48.3309450388 c 2,10,-1
 84.5151608801 331.793203373 l 2,11,12
 35 357.926204949 35 357.926204949 35 434 c 0,13,14
 35 479.450849719 35 479.450849719 84.7592262843 504.330462861 c 2,15,-1
 822.759226284 878.330462861 l 2,16,17
 836.098300563 885 836.098300563 885 844 885 c 0,18,19
 853.174260427 885 853.174260427 885 860.54041467 881.761200033 c 128,-1,20
 867.906568914 878.522400065 867.906568914 878.522400065 873.302943723 870.885451555 c 128,-1,21
 878.699318533 863.248503045 878.699318533 863.248503045 882.406015189 856.539158515 c 128,-1,22
 886.112711845 849.829813985 886.112711845 849.829813985 889.392051117 836.779662642 c 128,-1,23
 892.671390388 823.729511299 892.671390388 823.729511299 894.284546601 816.180638698 c 128,-1,24
 895.897702815 808.631766097 895.897702815 808.631766097 898.625923693 792.799428413 c 128,-1,25
 901.354144571 776.967090729 901.354144571 776.967090729 902.534610421 770.802435734 c 0,26,27
 904.816553668 759.3927195 904.816553668 759.3927195 901.217082451 748.59430585 c 0,28,29
 897.850801222 738.495462163 897.850801222 738.495462163 891.67766953 732.32233047 c 2,30,-1
 889.67766953 730.32233047 l 2,31,32
 886.853374962 727.498035903 886.853374962 727.498035903 883.289681591 725.694326068 c 2,33,-1
 275.298659473 417.968808738 l 1,34,-1
 893.314837473 104.292923831 l 2,35,36
 901.881004214 99.9451413166 901.881004214 99.9451413166 907.440502107 89.6349154164 c 128,-1,37
 913 79.3246895161 913 79.3246895161 913 70 c 0,0,1
EndSplineSet
Validated: 1
Substitution2: "'smcp' Lowercase to Small Capitals lookup 12 subtable" less.sc
EndChar

StartChar: equal
Encoding: 61 61 31
Width: 1130
GlyphClass: 2
Flags: W
LayerCount: 4
Fore
SplineSet
957 215 m 2,0,-1
 145 215 l 2,1,2
 140.185439911 215 140.185439911 215 135.715233091 216.788082728 c 0,3,4
 108.846867955 227.535428782 108.846867955 227.535428782 111.555371054 268.162975263 c 0,5,6
 113.364946881 295.306612667 113.364946881 295.306612667 128.324775806 327.527782661 c 0,7,8
 145.584445866 364.702456635 145.584445866 364.702456635 168.025523017 373.333640155 c 0,9,10
 172.358058614 375 172.358058614 375 177 375 c 2,11,-1
 983 375 l 2,12,13
 987.056941504 375 987.056941504 375 990.90569415 373.717082451 c 0,14,15
 1020.42253013 363.878137125 1020.42253013 363.878137125 1019.49324233 323.918761806 c 0,16,17
 1018.88096432 297.59080754 1018.88096432 297.59080754 1004.97862575 265.152017536 c 0,18,19
 989.539493284 229.127375114 989.539493284 229.127375114 968.852495576 217.988222502 c 0,20,21
 963.302939501 215 963.302939501 215 957 215 c 2,0,-1
957 503 m 2,22,-1
 145 503 l 2,23,24
 140.185439911 503 140.185439911 503 135.715233091 504.788082728 c 0,25,26
 108.846867955 515.535428782 108.846867955 515.535428782 111.555371054 556.162975263 c 0,27,28
 113.364946881 583.306612667 113.364946881 583.306612667 128.324775806 615.527782661 c 0,29,30
 145.584445866 652.702456635 145.584445866 652.702456635 168.025523017 661.333640155 c 0,31,32
 172.358058614 663 172.358058614 663 177 663 c 2,33,-1
 983 663 l 2,34,35
 987.056941504 663 987.056941504 663 990.90569415 661.717082451 c 0,36,37
 1020.42253013 651.878137125 1020.42253013 651.878137125 1019.49324233 611.918761806 c 0,38,39
 1018.88096432 585.59080754 1018.88096432 585.59080754 1004.97862575 553.152017536 c 0,40,41
 989.539493284 517.127375114 989.539493284 517.127375114 968.852495576 505.988222502 c 0,42,43
 963.302939501 503 963.302939501 503 957 503 c 2,22,-1
EndSplineSet
Validated: 1
Substitution2: "'smcp' Lowercase to Small Capitals lookup 12 subtable" equal.sc
EndChar

StartChar: greater
Encoding: 62 62 32
Width: 986
GlyphClass: 2
Flags: W
LayerCount: 4
Fore
SplineSet
71 70 m 0,0,1
 71 79.9016994375 71 79.9016994375 75.139320225 88.1803398875 c 0,2,3
 78.4536396218 94.8089786812 78.4536396218 94.8089786812 82.3223304703 98.6776695297 c 0,4,5
 85.1910213188 101.546360378 85.1910213188 101.546360378 88.8196601125 103.360679775 c 2,6,-1
 90.7523092784 104.327004358 l 1,7,-1
 708.768827034 418.003061708 l 1,8,-1
 104.001411684 725.038826424 l 2,9,10
 83 734.761702204 83 734.761702204 83 764 c 128,-1,11
 83 793.272837066 83 793.272837066 96.9191165209 832.803127986 c 0,12,13
 97.686772144 834.983269955 97.686772144 834.983269955 100.201796058 844.147611762 c 128,-1,14
 102.716819972 853.31195357 102.716819972 853.31195357 105.03119743 858.615824692 c 128,-1,15
 107.345574887 863.919695814 107.345574887 863.919695814 111.750909509 870.971485804 c 128,-1,16
 116.156244132 878.023275793 116.156244132 878.023275793 123.292647408 881.511637897 c 128,-1,17
 130.429050685 885 130.429050685 885 140 885 c 0,18,19
 147.901699437 885 147.901699437 885 161.228582769 878.336558334 c 2,20,-1
 901.228582769 504.336558334 l 2,21,22
 949 480.450849719 949 480.450849719 949 434 c 0,23,24
 949 356.947964615 949 356.947964615 901.499080851 331.800419183 c 2,25,-1
 151.23980936 -48.3309450388 l 2,26,27
 137.901699437 -55 137.901699437 -55 130 -55 c 0,28,29
 119.88732207 -55 119.88732207 -55 112.429516731 -51.1150655011 c 128,-1,30
 104.971711392 -47.2301310021 104.971711392 -47.2301310021 100.381929274 -39.0855323066 c 128,-1,31
 95.7921471567 -30.9409336111 95.7921471567 -30.9409336111 93.4644052516 -25.0634168222 c 128,-1,32
 91.1366633464 -19.1859000332 91.1366633464 -19.1859000332 88.4991713311 -8.25510343392 c 128,-1,33
 85.8616793157 2.67569316539 85.8616793157 2.67569316539 85.0933951337 5.18739145266 c 0,34,35
 71 51.2619524667 71 51.2619524667 71 70 c 0,0,1
EndSplineSet
Validated: 1
Substitution2: "'smcp' Lowercase to Small Capitals lookup 12 subtable" greater.sc
EndChar

StartChar: question
Encoding: 63 63 33
Width: 712
GlyphClass: 2
Flags: W
LayerCount: 4
Fore
SplineSet
101 90 m 0,0,1
 101 145.808725942 101 145.808725942 142.374363656 184.712978334 c 0,2,3
 183.092307332 223 183.092307332 223 238 223 c 0,4,5
 293.355339059 223 293.355339059 223 332.17766953 184.17766953 c 128,-1,6
 371 145.355339059 371 145.355339059 371 90 c 0,7,8
 371 35.092307332 371 35.092307332 332.712978334 -5.6256363442 c 0,9,10
 293.808725942 -47 293.808725942 -47 238 -47 c 0,11,12
 182.644660941 -47 182.644660941 -47 141.82233047 -6.17766952966 c 128,-1,13
 101 34.6446609407 101 34.6446609407 101 90 c 0,0,1
200 1071 m 0,14,15
 163.264730118 1071 163.264730118 1071 125.593217683 1105.58368355 c 0,16,17
 87 1141.01352273 87 1141.01352273 87 1196 c 0,18,19
 87 1253.06367167 87 1253.06367167 109.711641464 1284.60761815 c 0,20,21
 113.310575306 1289.60613737 113.310575306 1289.60613737 118.819660113 1292.36067977 c 0,22,23
 152.098300563 1309 152.098300563 1309 226 1309 c 0,24,25
 270.7151242 1309 270.7151242 1309 325.269708258 1292.41968524 c 0,26,27
 379.252732388 1276.01307986 379.252732388 1276.01307986 434.921727476 1242.40161113 c 0,28,29
 490.34034836 1208.94131173 490.34034836 1208.94131173 536.872071323 1163.97807381 c 0,30,31
 584.757076349 1117.70717008 584.757076349 1117.70717008 614.720738643 1052.42919151 c 0,32,33
 645 986.463657838 645 986.463657838 645 914 c 0,34,35
 645 803.544369109 645 803.544369109 595.416284151 727.80660534 c 0,36,37
 546.651349654 653.319507592 546.651349654 653.319507592 430.637873255 586.428854533 c 0,38,39
 390.206948456 562.362827867 390.206948456 562.362827867 339.003216649 521.88749701 c 0,40,41
 291.305012022 484.183201924 291.305012022 484.183201924 283.838498418 471.827583327 c 0,42,43
 279.982108904 464.471877402 279.982108904 464.471877402 277.709292441 449.698570394 c 0,44,45
 274.929315797 431.628722203 274.929315797 431.628722203 274.482870844 419.574708487 c 0,46,47
 274.00826507 406.760352581 274.00826507 406.760352581 274.496014984 379.44635741 c 0,48,49
 275 351.223196494 275 351.223196494 275 344 c 0,50,51
 275 338.098300563 275 338.098300563 272.360679775 332.819660113 c 0,52,53
 254.198426518 296.495153599 254.198426518 296.495153599 220.487592976 293.124070245 c 0,54,55
 214.159685737 292.491279521 214.159685737 292.491279521 208.298574999 294.959115622 c 0,56,57
 180.77519713 306.547906303 180.77519713 306.547906303 169.639320225 328.819660113 c 0,58,59
 168.352233745 331.393833073 168.352233745 331.393833073 167.683744222 334.193132949 c 0,60,61
 151 404.056311879 151 404.056311879 151 522 c 0,62,63
 151 565.720109144 151 565.720109144 162.583152989 603.779040395 c 0,64,65
 173.89171367 640.935739775 173.89171367 640.935739775 187.763586065 665.35023519 c 0,66,67
 202.195537842 690.750470318 202.195537842 690.750470318 230.073586729 716.398275294 c 0,68,69
 256.239424823 740.47084634 256.239424823 740.47084634 273.031324851 752.387678618 c 0,70,71
 289.16046043 763.834161932 289.16046043 763.834161932 318.976027431 782.340375933 c 0,72,73
 328.031729828 787.773797371 328.031729828 787.773797371 331 790 c 0,74,75
 331.783917767 790.587938325 331.783917767 790.587938325 332.611449366 791.112714461 c 0,76,77
 373.370192708 816.959722434 373.370192708 816.959722434 389.632495094 827.801257358 c 0,78,79
 405.297012901 838.24426923 405.297012901 838.24426923 433.008892786 860.122069138 c 0,80,81
 458.605319537 880.329774468 458.605319537 880.329774468 467.990045831 893.794816542 c 0,82,83
 477.852015755 907.944599477 477.852015755 907.944599477 486.788082728 930.284766909 c 0,84,85
 495 950.814560089 495 950.814560089 495 974 c 0,86,87
 495 1038.72730178 495 1038.72730178 458.222740348 1075.92248484 c 128,-1,88
 421.56182648 1113 421.56182648 1113 372 1113 c 0,89,90
 317.383397685 1113 317.383397685 1113 275.789668061 1094.21573501 c 0,91,92
 224.383397685 1071 224.383397685 1071 200 1071 c 0,14,15
EndSplineSet
Validated: 1
Substitution2: "'smcp' Lowercase to Small Capitals lookup 12 subtable" question.sc
EndChar

StartChar: at
Encoding: 64 64 34
Width: 1496
GlyphClass: 2
Flags: W
LayerCount: 4
Fore
SplineSet
836 1181 m 0,0,1
 954.254548413 1181 954.254548413 1181 1055.26959375 1145.59266452 c 0,2,3
 1156.73225575 1110.02843248 1156.73225575 1110.02843248 1228.81528365 1047.94232085 c 0,4,5
 1300.23958986 986.423575365 1300.23958986 986.423575365 1350.76816841 904.640205958 c 128,-1,6
 1401.25771748 822.920007982 1401.25771748 822.920007982 1425.20480905 730.255175372 c 0,7,8
 1449 638.178132124 1449 638.178132124 1449 540 c 0,9,10
 1449 383.949184916 1449 383.949184916 1393.53917663 252.294520083 c 0,11,12
 1337.52443823 119.324954174 1337.52443823 119.324954174 1237.42724139 40.8276787597 c 0,13,14
 1186.88449516 1.19152513425 1186.88449516 1.19152513425 1130.2380898 -18.9042374329 c 128,-1,15
 1073.59168444 -39 1073.59168444 -39 1012 -39 c 0,16,17
 925.065311306 -39 925.065311306 -39 873.340411069 9.81900696574 c 0,18,19
 825.093039403 55.3558521339 825.093039403 55.3558521339 821.301397039 143.287872787 c 1,20,21
 797.324043663 110.705624626 797.324043663 110.705624626 767.920575194 76.6595032413 c 0,22,23
 727.549468745 29.9140115635 727.549468745 29.9140115635 678.495809622 -1.54431330895 c 0,24,25
 626.327620206 -35 626.327620206 -35 578 -35 c 0,26,27
 475.309599386 -35 475.309599386 -35 417.435954474 55.5350088724 c 0,28,29
 363 140.692244584 363 140.692244584 363 260 c 0,30,31
 363 372.517102908 363 372.517102908 416.82198963 488.521779586 c 0,32,33
 469.992275596 603.121813416 469.992275596 603.121813416 552.695331546 692.027598562 c 0,34,35
 635.625275849 781.177288688 635.625275849 781.177288688 743.939474619 837.66651197 c 0,36,37
 853.872492952 895 853.872492952 895 960 895 c 0,38,39
 1039.43350556 895 1039.43350556 895 1114.5966503 867.475468124 c 0,40,41
 1123.20389848 864.323518086 1123.20389848 864.323518086 1127.70063252 856.067682252 c 128,-1,42
 1132.19736656 847.811846417 1132.19736656 847.811846417 1130.5468307 839.261529517 c 2,43,-1
 1008.5468307 207.261529517 l 2,44,45
 1008.41818225 206.595088361 1008.41818225 206.595088361 1008.2535625 205.936609374 c 0,46,47
 1003 184.92235936 1003 184.92235936 1003 162 c 0,48,49
 1003 127.737717168 1003 127.737717168 1020.46888439 113.235247108 c 0,50,51
 1040.0249775 97 1040.0249775 97 1074 97 c 0,52,53
 1112.46226234 97 1112.46226234 97 1154.20801022 129.277640116 c 0,54,55
 1199.177647 164.047977832 1199.177647 164.047977832 1235.30972663 221.765455686 c 0,56,57
 1271.91785712 280.243378417 1271.91785712 280.243378417 1295.44622416 363.31291917 c 128,-1,58
 1319 446.472168581 1319 446.472168581 1319 534 c 0,59,60
 1319 613.980197406 1319 613.980197406 1300.71904522 688.547249796 c 0,61,62
 1282.59608201 762.469862904 1282.59608201 762.469862904 1243.46759063 828.797427563 c 0,63,64
 1204.4600442 894.919975768 1204.4600442 894.919975768 1148.89090403 944.314767033 c 0,65,66
 1094.00507189 993.102173379 1094.00507189 993.102173379 1013.55652526 1021.96900482 c 0,67,68
 932.65047311 1051 932.65047311 1051 836 1051 c 0,69,70
 721.87772375 1051 721.87772375 1051 620.397700513 1009.83357548 c 128,-1,71
 518.734623303 968.592893215 518.734623303 968.592893215 444.64144057 898.801895286 c 0,72,73
 369.600882348 828.118530767 369.600882348 828.118530767 313.857145673 736.504911363 c 128,-1,74
 258.198896834 645.031789357 258.198896834 645.031789357 230.627031865 543.451234208 c 0,75,76
 203 441.667432601 203 441.667432601 203 340 c 0,77,78
 203 179.688533673 203 179.688533673 275.160142918 54.4835174834 c 128,-1,79
 347.336417292 -70.7494883835 347.336417292 -70.7494883835 456.555524309 -134.381489863 c 0,80,81
 528.543786508 -176.05890482 528.543786508 -176.05890482 598.001778964 -187.322363056 c 0,82,83
 607.04806474 -188.789328317 607.04806474 -188.789328317 613.02403237 -196.044902388 c 128,-1,84
 619 -203.300476458 619 -203.300476458 619 -212 c 0,85,86
 619 -224.581993059 619 -224.581993059 611.246907356 -234.625899936 c 128,-1,87
 603.493814713 -244.669806814 603.493814713 -244.669806814 596.94729606 -248.504611871 c 128,-1,88
 590.400777407 -252.339416929 590.400777407 -252.339416929 578.165466893 -258.110789813 c 0,89,90
 546.600341296 -273 546.600341296 -273 522 -273 c 0,91,92
 470.330124423 -273 470.330124423 -273 435.169418966 -259.38940434 c 0,93,94
 283.412179688 -203.534309327 283.412179688 -203.534309327 177.878525534 -36.8747267778 c 0,95,96
 73 128.750271466 73 128.750271466 73 340 c 0,97,98
 73 461.306514413 73 461.306514413 105.359606037 581.499336836 c 0,99,100
 137.78556503 701.938613097 137.78556503 701.938613097 203.135172357 809.482455075 c 128,-1,101
 268.452472835 916.973130664 268.452472835 916.973130664 358.021109061 999.849857288 c 0,102,103
 448.473047048 1083.54389186 448.473047048 1083.54389186 572.349656127 1132.26523602 c 128,-1,104
 696.260385824 1181 696.260385824 1181 836 1181 c 0,0,1
876 753 m 0,105,106
 827.797806259 753 827.797806259 753 772.712854533 714.933163441 c 0,107,108
 714.648837347 674.80762311 714.648837347 674.80762311 668.126395934 611.670024049 c 0,109,110
 621.274077025 548.084734101 621.274077025 548.084734101 591.006646249 464.48897291 c 0,111,112
 561 381.613473746 561 381.613473746 561 302 c 0,113,114
 561 131 561 131 638 131 c 0,115,116
 674.385683956 131 674.385683956 131 726.394800033 192.62424678 c 0,117,118
 783.69605392 260.51900979 783.69605392 260.51900979 829.275129222 359.920184649 c 0,119,120
 875.047528524 459.74297036 875.047528524 459.74297036 893.471412375 552.832067714 c 2,121,-1
 930.63924871 742.388033021 l 1,122,123
 912.266290955 753 912.266290955 753 876 753 c 0,105,106
EndSplineSet
Validated: 1
Substitution2: "'smcp' Lowercase to Small Capitals lookup 12 subtable" at.sc
EndChar

StartChar: A
Encoding: 65 65 35
Width: 1254
GlyphClass: 2
Flags: W
LayerCount: 4
Fore
SplineSet
166.707773222 287.081449572 m 0,0,1
 430.685203212 966.023400189 430.685203212 966.023400189 552.726667629 1277.12973167 c 0,2,3
 553.257341872 1278.48251601 553.257341872 1278.48251601 553.941176471 1279.76470588 c 0,4,5
 564.432032725 1299.43506136 564.432032725 1299.43506136 596.10195084 1324.19517916 c 0,6,7
 630.387186801 1351 630.387186801 1351 652 1351 c 0,8,9
 663.011626335 1351 663.011626335 1351 673.030954843 1343.84333678 c 2,10,-1
 675.231745742 1342.34904536 l 2,11,12
 684.064860656 1337.55234397 684.064860656 1337.55234397 687.36115367 1328.90261193 c 2,13,-1
 1094.33590235 260.968873383 l 2,14,15
 1141.89402466 138.268917834 1141.89402466 138.268917834 1145.27950133 129.140721423 c 0,16,17
 1154.66859771 108.338054574 1154.66859771 108.338054574 1193.25215794 93.9179361051 c 0,18,19
 1238.51906806 77 1238.51906806 77 1258 77 c 0,20,21
 1271.37959396 77 1271.37959396 77 1278.80125736 65.8675049056 c 0,22,23
 1289 50.5693909433 1289 50.5693909433 1289 22.5 c 0,24,25
 1289 -1.07764064044 1289 -1.07764064044 1286.2535625 -12.0633906259 c 0,26,27
 1284.06703021 -20.8095197945 1284.06703021 -20.8095197945 1276.4127788 -26.0893383284 c 128,-1,28
 1268.75852738 -31.3691568622 1268.75852738 -31.3691568622 1260.75155958 -30.9688084719 c 0,29,30
 1061.37539014 -21 1061.37539014 -21 1042 -21 c 0,31,32
 1001.52793348 -21 1001.52793348 -21 966.555396317 -22.4777128379 c 0,33,34
 931.378226953 -23.9640721068 931.378226953 -23.9640721068 887.700597203 -26.942092317 c 0,35,36
 843.241154001 -29.9734179899 843.241154001 -29.9734179899 810.780868809 -30.9878019022 c 0,37,38
 798.968125694 -31.3569501245 798.968125694 -31.3569501245 791.185582632 -22.4626151967 c 0,39,40
 777.77537522 -7.13666386864 777.77537522 -7.13666386864 778.507083156 23.5950694487 c 0,41,42
 779.245311273 54.600650332 779.245311273 54.600650332 794.32233047 69.6776695297 c 0,43,44
 801.644660941 77 801.644660941 77 812 77 c 0,45,46
 832.58760895 77 832.58760895 77 868.719728959 84.038724677 c 0,47,48
 895.756173751 89.3055645715 895.756173751 89.3055645715 905.861000561 95.532322714 c 0,49,50
 907 99.1628834264 907 99.1628834264 907 106 c 0,51,52
 907 128.766050302 907 128.766050302 874.394120073 222.268205974 c 0,53,54
 840.596137934 319.188890051 840.596137934 319.188890051 806.826329669 402.620181057 c 2,55,-1
 775.738137932 479.42630182 l 1,56,57
 738.362806163 481 738.362806163 481 586 481 c 0,58,59
 466.612877673 481 466.612877673 481 379.7618995 475.578393484 c 1,60,61
 326.30167949 334.084877052 326.30167949 334.084877052 293.6129716 241.787348892 c 0,62,63
 267 163.849360634 267 163.849360634 267 108 c 0,64,65
 267 104.582536583 267 104.582536583 274.104777627 99.9740321757 c 0,66,67
 288.671202785 90.5255401819 288.671202785 90.5255401819 310.580411421 85.9783459367 c 0,68,69
 335.858358145 80.7319796355 335.858358145 80.7319796355 353.617119613 78.862636323 c 128,-1,70
 371.312164682 77 371.312164682 77 380 77 c 0,71,72
 390.355339059 77 390.355339059 77 397.67766953 69.6776695297 c 0,73,74
 401.688498331 65.666840728 401.688498331 65.666840728 404.247936177 61.6152279877 c 128,-1,75
 406.807374023 57.5636152475 406.807374023 57.5636152475 407.962507028 52.5981434911 c 128,-1,76
 409.117640032 47.6326717348 409.117640032 47.6326717348 409.520883203 44.7778539031 c 128,-1,77
 409.924126374 41.9230360714 409.924126374 41.9230360714 410.115090135 35.5823185393 c 128,-1,78
 410.306053897 29.2416010073 410.306053897 29.2416010073 410.444628946 27.1629752631 c 0,79,80
 412.271630609 -0.242049676952 412.271630609 -0.242049676952 407.717082451 -13.9056941504 c 0,81,82
 401.809322695 -31.628973418 401.809322695 -31.628973418 383.138443104 -30.9851499838 c 0,83,84
 353.469452415 -29.9620813394 353.469452415 -29.9620813394 318.802654743 -26.9032462506 c 0,85,86
 285.255063117 -23.9431646366 285.255063117 -23.9431646366 256.708622864 -22.4666246236 c 128,-1,87
 228.353880142 -21 228.353880142 -21 190 -21 c 0,88,89
 149.594901041 -21 149.594901041 -21 118.689128735 -22.4717034431 c 0,90,91
 87.578729625 -23.9531510198 87.578729625 -23.9531510198 49.9675621355 -26.9224537163 c 0,92,93
 11.3520932986 -29.9710433614 11.3520932986 -29.9710433614 -23.26502371 -30.9891938616 c 0,94,95
 -34.0489702981 -31.3063687613 -34.0489702981 -31.3063687613 -41.6776695297 -23.6776695297 c 0,96,97
 -45.8966842994 -19.4586547599 -45.8966842994 -19.4586547599 -48.5022971889 -15.1472735696 c 128,-1,98
 -51.1079100784 -10.8358923792 -51.1079100784 -10.8358923792 -52.0474539673 -5.62926708399 c 128,-1,99
 -52.9869978563 -0.422641788778 -52.9869978563 -0.422641788778 -53.2461826821 2.49947410752 c 128,-1,100
 -53.5053675079 5.42159000382 -53.5053675079 5.42159000382 -53.252683754 11.8348550754 c 128,-1,101
 -53 18.2481201469 -53 18.2481201469 -53 20 c 0,102,103
 -53 46.8145600892 -53 46.8145600892 -47.2119172721 61.2847669089 c 0,104,105
 -40.9258240357 77 -40.9258240357 77 -24 77 c 0,106,107
 -2.15038454195 77 -2.15038454195 77 35.7977223192 86.7184176108 c 0,108,109
 68.4042365165 95.0688663686 68.4042365165 95.0688663686 76.1308046518 105.172840084 c 0,110,111
 115.996741304 157.378233319 115.996741304 157.378233319 166.707773222 287.081449572 c 0,0,1
581.575452629 1012.01313083 m 1,112,-1
 430.739031881 611.968710585 l 1,113,114
 517.143637101 609 517.143637101 609 584 609 c 0,115,116
 648.017736581 609 648.017736581 609 726.493410517 613.488746635 c 1,117,-1
 581.575452629 1012.01313083 l 1,112,-1
EndSplineSet
Validated: 1
EndChar

StartChar: B
Encoding: 66 66 36
Width: 1192
GlyphClass: 2
Flags: W
LayerCount: 4
Fore
SplineSet
438 639 m 1,0,-1
 438 220 l 2,1,2
 438 194.216624051 438 194.216624051 441.876482067 154.482682865 c 0,3,4
 445.256906345 121.354524941 445.256906345 121.354524941 449.916052205 110.406961357 c 1,5,6
 465.36636256 94.8921851723 465.36636256 94.8921851723 493.208709558 89.5525569809 c 0,7,8
 527.375613815 83 527.375613815 83 589 83 c 0,9,10
 740 83 740 83 811 148.5 c 128,-1,11
 882 214 882 214 882 352 c 0,12,13
 882 498 882 498 798 568.5 c 128,-1,14
 714 639 714 639 535 639 c 2,15,-1
 438 639 l 1,0,-1
438 765 m 1,16,-1
 580 765 l 2,17,18
 693.973018473 765 693.973018473 765 749.537862652 825.856734101 c 0,19,20
 806 887.696217863 806 887.696217863 806 974 c 0,21,22
 806 1094.7509803 806 1094.7509803 730.918738156 1161.29006265 c 0,23,24
 654.516308848 1229 654.516308848 1229 523 1229 c 0,25,26
 463.831769169 1229 463.831769169 1229 444.996147871 1220.95371517 c 1,27,28
 438 1194.79888544 438 1194.79888544 438 1117 c 2,29,-1
 438 765 l 1,16,-1
611 1343 m 0,30,31
 671.069063257 1343 671.069063257 1343 727.109974683 1333.6598481 c 0,32,33
 783.755704472 1324.21889313 783.755704472 1324.21889313 840.24767537 1301.72671953 c 0,34,35
 897.961122932 1278.74821726 897.961122932 1278.74821726 940.528485071 1243.18561092 c 0,36,37
 984.300503651 1206.61658274 984.300503651 1206.61658274 1011.1545785 1149.07213663 c 128,-1,38
 1038 1091.54623342 1038 1091.54623342 1038 1020 c 0,39,40
 1038 907.94875162 1038 907.94875162 964.70553199 819.995390008 c 0,41,42
 918.390744508 764.41764503 918.390744508 764.41764503 871.194511063 733.138171186 c 1,43,44
 890.218351428 726.73907709 890.218351428 726.73907709 909.622678425 717.630923602 c 0,45,46
 961.642662766 693.213379932 961.642662766 693.213379932 1010.68526264 651.55353703 c 0,47,48
 1060.98231785 608.828081529 1060.98231785 608.828081529 1095.25284563 541.893456961 c 0,49,50
 1130 474.027921075 1130 474.027921075 1130 398 c 0,51,52
 1130 203.323865012 1130 203.323865012 986.018013978 82.8056100448 c 0,53,54
 854.187578008 -26.8773126823 854.187578008 -26.8773126823 551.170060158 -31 c 1,55,-1
 91 -31 l 2,56,57
 79.6557943352 -31 79.6557943352 -31 72.1855826323 -22.4626151967 c 0,58,59
 58.7753752203 -7.13666386865 58.7753752203 -7.13666386865 59.5070831564 23.5950694487 c 0,60,61
 60.1976005685 52.596800758 60.1976005685 52.596800758 71 67 c 0,62,63
 78 77 78 77 91 77 c 0,64,65
 118.8525022 77 118.8525022 77 168.736464157 85.6337626464 c 0,66,67
 195.530204119 90.2711407166 195.530204119 90.2711407166 206.255240335 95.6129807345 c 1,68,69
 214 128.983783407 214 128.983783407 214 232 c 2,70,-1
 214 1086 l 2,71,72
 214 1189.01621659 214 1189.01621659 206.255240335 1222.38701927 c 1,73,74
 195.530204119 1227.72885928 195.530204119 1227.72885928 168.736464157 1232.36623735 c 0,75,76
 118.8525022 1241 118.8525022 1241 91 1241 c 0,77,78
 79 1241 79 1241 71 1251 c 0,79,80
 60.1976005685 1265.40319924 60.1976005685 1265.40319924 59.5070831564 1294.40493055 c 0,81,82
 58.7753752203 1325.13666387 58.7753752203 1325.13666387 72.1855826323 1340.4626152 c 0,83,84
 80.145122968 1349.55923272 80.145122968 1349.55923272 92.2180638428 1348.97030878 c 0,85,86
 296.609393795 1339 296.609393795 1339 327 1339 c 0,87,88
 360.731213869 1339 360.731213869 1339 453.462489871 1340.99422099 c 0,89,90
 546.73121387 1343 546.73121387 1343 611 1343 c 0,30,31
EndSplineSet
Validated: 1
EndChar

StartChar: C
Encoding: 67 67 37
Width: 1348
GlyphClass: 2
Flags: W
LayerCount: 4
Fore
SplineSet
772 1359 m 0,0,1
 1004.67519786 1359 1004.67519786 1359 1201.28982358 1316.43394701 c 0,2,3
 1217.8708021 1312.84425063 1217.8708021 1312.84425063 1220.6598481 1296.10997468 c 0,4,5
 1266.33032802 1022.08709513 1266.33032802 1022.08709513 1266.95863014 998.170638314 c 0,6,7
 1267.99068949 972.426491294 1267.99068949 972.426491294 1240.3253143 956.749445354 c 0,8,9
 1219.59099897 945 1219.59099897 945 1198 945 c 0,10,11
 1175.43060906 945 1175.43060906 945 1160.13249509 955.198742642 c 0,12,13
 1151.46005216 960.980371267 1151.46005216 960.980371267 1149.46312052 971.210266677 c 0,14,15
 1122.61889517 1108.72805269 1122.61889517 1108.72805269 1032.49934432 1175.86402635 c 128,-1,16
 942.379793465 1243 942.379793465 1243 782 1243 c 0,17,18
 648.52667279 1243 648.52667279 1243 541.27630444 1160.21024198 c 0,19,20
 432.256545961 1076.05463894 432.256545961 1076.05463894 375.823847346 949.798431868 c 0,21,22
 319 822.667112383 319 822.667112383 319 686 c 0,23,24
 319 593.796073038 319 593.796073038 338.882284943 506.02305902 c 0,25,26
 358.658965325 418.716250508 358.658965325 418.716250508 399.637758985 340.615490826 c 0,27,28
 440.393665389 262.939528032 440.393665389 262.939528032 498.25026684 204.60477285 c 0,29,30
 555.245046457 147.138961997 555.245046457 147.138961997 636.653452203 113.061024708 c 128,-1,31
 718.021455671 79 718.021455671 79 814 79 c 0,32,33
 959.560400086 79 959.560400086 79 1061.37573282 168.67221966 c 0,34,35
 1145.22956353 244.140667297 1145.22956353 244.140667297 1175.54315105 387.182908387 c 0,36,37
 1177.3626639 395.768734661 1177.3626639 395.768734661 1184.37787458 401.38436733 c 128,-1,38
 1191.39308527 407 1191.39308527 407 1200 407 c 2,39,-1
 1209 407 l 2,40,41
 1246.315069 407 1246.315069 407 1277.47634241 387.056785017 c 0,42,43
 1289 379.681644159 1289 379.681644159 1289 366 c 0,44,45
 1289 325.307247581 1289 325.307247581 1262.92657927 205.676258364 c 0,46,47
 1247.80194395 136.280872769 1247.80194395 136.280872769 1237.49634981 104.773725153 c 128,-1,48
 1227.19075566 73.2665775367 1227.19075566 73.2665775367 1210.10339364 58.8772200471 c 0,49,50
 1208.30532938 57.3630606646 1208.30532938 57.3630606646 1206.25653099 56.2106115719 c 0,51,52
 1040.54877709 -37 1040.54877709 -37 764 -37 c 0,53,54
 613.956091096 -37 613.956091096 -37 483.306751934 17.9556744093 c 128,-1,55
 352.582970585 72.942661802 352.582970585 72.942661802 263.021926189 165.627928677 c 0,56,57
 173.707753696 258.057711838 173.707753696 258.057711838 122.389034973 382.466726926 c 128,-1,58
 71 507.046205648 71 507.046205648 71 644 c 0,59,60
 71 787.849868396 71 787.849868396 123.813450555 918.84793693 c 128,-1,61
 176.571894633 1049.70956783 176.571894633 1049.70956783 267.795000183 1146.63411748 c 0,62,63
 359.301222773 1243.85947898 359.301222773 1243.85947898 490.988992484 1301.40807125 c 128,-1,64
 622.775928537 1359 622.775928537 1359 772 1359 c 0,0,1
EndSplineSet
Validated: 1
EndChar

StartChar: D
Encoding: 68 68 38
Width: 1420
GlyphClass: 2
Flags: W
LayerCount: 4
Fore
SplineSet
440 1112 m 2,0,-1
 440 230 l 2,1,2
 440 123.53520536 440 123.53520536 447.450227972 100.523614124 c 0,3,4
 451.850012879 96.9612699754 451.850012879 96.9612699754 468.116981097 93.14179154 c 128,-1,5
 484.383949315 89.3223131046 484.383949315 89.3223131046 517.506312836 86.1611565523 c 128,-1,6
 550.628676356 83 550.628676356 83 591 83 c 0,7,8
 695.557127551 83 695.557127551 83 785.386298074 115.969216841 c 0,9,10
 874.733674464 148.761604984 874.733674464 148.761604984 945.084367766 213.408188019 c 0,11,12
 1014.76981706 277.443465751 1014.76981706 277.443465751 1055.16635984 382.474476983 c 0,13,14
 1096 488.641941386 1096 488.641941386 1096 626 c 0,15,16
 1096 754.490724497 1096 754.490724497 1066.46616385 857.617070398 c 0,17,18
 1037.19455042 959.827786138 1037.19455042 959.827786138 987.830847656 1027.22822645 c 128,-1,19
 938.447619592 1094.65532631 938.447619592 1094.65532631 870.132495094 1140.19874264 c 0,20,21
 801.547642414 1185.92197776 801.547642414 1185.92197776 725.511486678 1206.35669462 c 0,22,23
 648.699187574 1227 648.699187574 1227 563 1227 c 0,24,25
 473.691811889 1227 473.691811889 1227 447.445667575 1217.19762836 c 1,26,27
 440 1185.52918617 440 1185.52918617 440 1112 c 2,0,-1
617 1341 m 0,28,29
 782.501426947 1341 782.501426947 1341 919.72014208 1289.9298767 c 0,30,31
 1057.6510987 1238.59467104 1057.6510987 1238.59467104 1150.42408311 1148.42766933 c 128,-1,32
 1243.17624799 1058.28090234 1243.17624799 1058.28090234 1293.65104996 934.435511957 c 0,33,34
 1344 810.898912882 1344 810.898912882 1344 668 c 0,35,36
 1344 558.241447209 1344 558.241447209 1322.39855376 461.549259267 c 0,37,38
 1300.53114736 363.666583022 1300.53114736 363.666583022 1246.00136635 271.744952167 c 0,39,40
 1191.10560436 179.206381965 1191.10560436 179.206381965 1106.90770654 113.312374975 c 128,-1,41
 1022.66772167 47.3854302914 1022.66772167 47.3854302914 890.114957211 8.03382834305 c 0,42,43
 824.179381998 -11.5407955481 824.179381998 -11.5407955481 749.413657014 -21.270397774 c 128,-1,44
 674.647932029 -31 674.647932029 -31 591 -31 c 2,45,-1
 91 -31 l 2,46,47
 79.6557943352 -31 79.6557943352 -31 72.1855826323 -22.4626151967 c 0,48,49
 58.7753752203 -7.13666386865 58.7753752203 -7.13666386865 59.5070831564 23.5950694487 c 0,50,51
 60.1976005685 52.596800758 60.1976005685 52.596800758 71 67 c 0,52,53
 78 77 78 77 91 77 c 0,54,55
 118.8525022 77 118.8525022 77 168.736464157 85.6337626464 c 0,56,57
 195.530204119 90.2711407166 195.530204119 90.2711407166 206.255240335 95.6129807345 c 1,58,59
 214 128.983783407 214 128.983783407 214 232 c 2,60,-1
 214 1086 l 2,61,62
 214 1189.01621659 214 1189.01621659 206.255240335 1222.38701927 c 1,63,64
 195.530204119 1227.72885928 195.530204119 1227.72885928 168.736464157 1232.36623735 c 0,65,66
 118.8525022 1241 118.8525022 1241 91 1241 c 0,67,68
 79 1241 79 1241 71 1251 c 0,69,70
 60.1976005685 1265.40319924 60.1976005685 1265.40319924 59.5070831564 1294.40493055 c 0,71,72
 58.7753752203 1325.13666387 58.7753752203 1325.13666387 72.1855826323 1340.4626152 c 0,73,74
 80.145122968 1349.55923272 80.145122968 1349.55923272 92.2180638428 1348.97030878 c 0,75,76
 296.609393795 1339 296.609393795 1339 327 1339 c 0,77,78
 364.879229872 1339 364.879229872 1339 468.25846538 1339.99883319 c 0,79,80
 571.879229871 1341 571.879229871 1341 617 1341 c 0,28,29
EndSplineSet
Validated: 1
EndChar

StartChar: E
Encoding: 69 69 39
Width: 1174
GlyphClass: 2
Flags: W
LayerCount: 4
Fore
SplineSet
327 1339 m 0,0,1
 416.603274534 1339 416.603274534 1339 636.706748829 1345.98741188 c 0,2,3
 857.603274534 1353 857.603274534 1353 971 1353 c 0,4,5
 980.259391422 1353 980.259391422 1353 987.384633941 1346.75970514 c 128,-1,6
 994.50987646 1340.51941027 994.50987646 1340.51941027 995.765528231 1331.41593493 c 0,7,8
 1003.60230906 1274.5992739 1003.60230906 1274.5992739 1025.82700719 1180.7616596 c 0,9,10
 1048.40525981 1085.43125964 1048.40525981 1085.43125964 1053.47451049 1061.09885635 c 0,11,12
 1056.22962858 1047.87428952 1056.22962858 1047.87428952 1046.67766953 1038.32233047 c 0,13,14
 1029.35533906 1021 1029.35533906 1021 993 1021 c 0,15,16
 949.374314328 1021 949.374314328 1021 940.592671864 1054.44772644 c 0,17,18
 912.061398869 1155.79241681 912.061398869 1155.79241681 864.250510704 1188.95852842 c 0,19,20
 815.17773998 1223 815.17773998 1223 733 1223 c 2,21,-1
 561 1223 l 2,22,23
 471.691811889 1223 471.691811889 1223 445.434934222 1213.19361968 c 1,24,25
 438 1181.64206873 438 1181.64206873 438 1112 c 2,26,-1
 438 725.4269344 l 1,27,28
 461.29857024 723 461.29857024 723 499 723 c 2,29,-1
 605 723 l 2,30,31
 654.553713694 723 654.553713694 723 682.107711737 723.984071359 c 0,32,33
 708.034063761 724.910012502 708.034063761 724.910012502 730.5009997 729.49510147 c 0,34,35
 749.684214014 733.410043166 749.684214014 733.410043166 756.295707558 738.218402108 c 0,36,37
 763.843283206 743.707548033 763.843283206 743.707548033 771.419680352 754.693323895 c 128,-1,38
 779.017016033 765.709460632 779.017016033 765.709460632 783.39486518 781.628912076 c 0,39,40
 788.761628371 801.144414589 788.761628371 801.144414589 796.588795242 830.484226289 c 0,41,42
 798.560356559 841.037878044 798.560356559 841.037878044 800.949498358 848.907992206 c 0,43,44
 809.45508689 881 809.45508689 881 855 881 c 0,45,46
 889.355339059 881 889.355339059 881 906.67766953 863.67766953 c 0,47,48
 914 856.355339059 914 856.355339059 914 846 c 2,49,-1
 914 468 l 2,50,51
 914 457.644660941 914 457.644660941 906.67766953 450.32233047 c 0,52,53
 891.355339059 435 891.355339059 435 857 435 c 0,54,55
 813.674988296 435 813.674988296 435 801.591770561 467.22191396 c 0,56,57
 801.157092333 468.381055901 801.157092333 468.381055901 800.839057915 469.577471091 c 0,58,59
 780.404211725 546.451416285 780.404211725 546.451416285 771.331972203 565.956731257 c 0,60,61
 764.592115597 580.44742296 764.592115597 580.44742296 755.653108382 586.845092587 c 0,62,63
 746.282534771 591.118608343 746.282534771 591.118608343 691.808500677 595.059304171 c 128,-1,64
 637.334466583 599 637.334466583 599 557 599 c 2,65,-1
 526 599 l 2,66,67
 515.312451187 599 515.312451187 599 495.624804779 598.50780884 c 0,68,69
 476.35161302 598.025979046 476.35161302 598.025979046 465.076136996 597.086356044 c 128,-1,70
 453.942335753 596.158539274 453.942335753 596.158539274 441.801429606 594.290707559 c 0,71,72
 440.239832346 594.050461826 440.239832346 594.050461826 438 593.633421913 c 2,73,-1
 438 205 l 2,74,75
 438 177.814286324 438 177.814286324 438.977854778 144.118372496 c 0,76,77
 440.780840186 116.510158438 440.780840186 116.510158438 443.9356184 105.185313568 c 1,78,79
 455.812328582 97.7092370531 455.812328582 97.7092370531 472.312225382 95.8413242079 c 0,80,81
 497.410589218 93 497.410589218 93 567 93 c 2,82,-1
 663 93 l 2,83,84
 732.419864162 93 732.419864162 93 799.394112973 106.973044716 c 0,85,86
 864.669466921 120.591643741 864.669466921 120.591643741 902.024620334 143.36917631 c 128,-1,87
 939.406290023 165.972046355 939.406290023 165.972046355 962.179352263 206.700792283 c 0,88,89
 987.067535348 251.212350492 987.067535348 251.212350492 1017.21518589 331.770656728 c 0,90,91
 1026.26236357 361 1026.26236357 361 1069 361 c 0,92,93
 1117.35533906 361 1117.35533906 361 1136.67766953 341.67766953 c 0,94,95
 1147.74396789 330.61137117 1147.74396789 330.61137117 1142.62465184 315.822235903 c 0,96,97
 1133.54390979 289.588981112 1133.54390979 289.588981112 1112.45857792 232.357366029 c 0,98,99
 1091.52095589 175.526677654 1091.52095589 175.526677654 1079.08088348 140.196872014 c 0,100,101
 1066.77645373 105.252291534 1066.77645373 105.252291534 1053.44565713 60.8163028608 c 0,102,103
 1040.41882457 17.3935276662 1040.41882457 17.3935276662 1035.68102802 -11.9808109706 c 0,104,105
 1034.22118876 -21.0318143792 1034.22118876 -21.0318143792 1026.96901355 -27.0159071896 c 128,-1,106
 1019.71683834 -33 1019.71683834 -33 1011 -33 c 0,107,108
 907.772746053 -33 907.772746053 -33 687.545529658 -28.9958687928 c 0,109,110
 467.772746052 -25 467.772746052 -25 329 -25 c 0,111,112
 280.493228994 -25 280.493228994 -25 204.986074168 -27.9805455852 c 0,113,114
 128.493228994 -31 128.493228994 -31 91 -31 c 0,115,116
 79.6557943352 -31 79.6557943352 -31 72.1855826323 -22.4626151967 c 0,117,118
 58.7753752203 -7.13666386865 58.7753752203 -7.13666386865 59.5070831564 23.5950694487 c 0,119,120
 60.1976005685 52.596800758 60.1976005685 52.596800758 71 67 c 0,121,122
 78 77 78 77 91 77 c 0,123,124
 118.8525022 77 118.8525022 77 168.736464157 85.6337626464 c 0,125,126
 195.530204119 90.2711407166 195.530204119 90.2711407166 206.255240335 95.6129807345 c 1,127,128
 214 128.983783407 214 128.983783407 214 232 c 2,129,-1
 214 1086 l 2,130,131
 214 1189.01621659 214 1189.01621659 206.255240335 1222.38701927 c 1,132,133
 195.530204119 1227.72885928 195.530204119 1227.72885928 168.736464157 1232.36623735 c 0,134,135
 118.8525022 1241 118.8525022 1241 91 1241 c 0,136,137
 79 1241 79 1241 71 1251 c 0,138,139
 60.1976005685 1265.40319924 60.1976005685 1265.40319924 59.5070831564 1294.40493055 c 0,140,141
 58.7753752203 1325.13666387 58.7753752203 1325.13666387 72.1855826323 1340.4626152 c 0,142,143
 80.145122968 1349.55923272 80.145122968 1349.55923272 92.2180638428 1348.97030878 c 0,144,145
 296.609393795 1339 296.609393795 1339 327 1339 c 0,0,1
EndSplineSet
Validated: 1
EndChar

StartChar: F
Encoding: 70 70 40
Width: 1070
GlyphClass: 2
Flags: W
LayerCount: 4
Fore
SplineSet
327 1339 m 0,0,1
 416.603274534 1339 416.603274534 1339 636.706748829 1345.98741188 c 0,2,3
 857.603274534 1353 857.603274534 1353 971 1353 c 0,4,5
 980.259391422 1353 980.259391422 1353 987.384633941 1346.75970514 c 128,-1,6
 994.50987646 1340.51941027 994.50987646 1340.51941027 995.765528231 1331.41593493 c 0,7,8
 1003.60230906 1274.5992739 1003.60230906 1274.5992739 1025.82700719 1180.7616596 c 0,9,10
 1048.40525981 1085.43125964 1048.40525981 1085.43125964 1053.47451049 1061.09885635 c 0,11,12
 1056.22962858 1047.87428952 1056.22962858 1047.87428952 1046.67766953 1038.32233047 c 0,13,14
 1029.35533906 1021 1029.35533906 1021 993 1021 c 0,15,16
 949.374314328 1021 949.374314328 1021 940.592671864 1054.44772644 c 0,17,18
 912.061398869 1155.79241681 912.061398869 1155.79241681 864.250510704 1188.95852842 c 0,19,20
 815.17773998 1223 815.17773998 1223 733 1223 c 2,21,-1
 561 1223 l 2,22,23
 471.691811889 1223 471.691811889 1223 445.460940053 1213.2033323 c 1,24,25
 438 1179.71070609 438 1179.71070609 438 1084 c 2,26,-1
 438 725.4269344 l 1,27,28
 461.29857024 723 461.29857024 723 499 723 c 2,29,-1
 605 723 l 2,30,31
 654.553713694 723 654.553713694 723 682.107711737 723.984071359 c 0,32,33
 708.034063761 724.910012502 708.034063761 724.910012502 730.5009997 729.49510147 c 0,34,35
 749.684214014 733.410043166 749.684214014 733.410043166 756.295707558 738.218402108 c 0,36,37
 763.843283206 743.707548033 763.843283206 743.707548033 771.419680352 754.693323895 c 128,-1,38
 779.017016033 765.709460632 779.017016033 765.709460632 783.39486518 781.628912076 c 0,39,40
 788.761628371 801.144414589 788.761628371 801.144414589 796.588795242 830.484226289 c 0,41,42
 798.560356559 841.037878044 798.560356559 841.037878044 800.949498358 848.907992206 c 0,43,44
 809.45508689 881 809.45508689 881 855 881 c 0,45,46
 889.355339059 881 889.355339059 881 906.67766953 863.67766953 c 0,47,48
 914 856.355339059 914 856.355339059 914 846 c 2,49,-1
 914 468 l 2,50,51
 914 457.644660941 914 457.644660941 906.67766953 450.32233047 c 0,52,53
 891.355339059 435 891.355339059 435 857 435 c 0,54,55
 813.674988296 435 813.674988296 435 801.591770561 467.22191396 c 0,56,57
 801.157092333 468.381055901 801.157092333 468.381055901 800.839057915 469.577471091 c 0,58,59
 780.404211725 546.451416285 780.404211725 546.451416285 771.331972203 565.956731257 c 0,60,61
 764.592115597 580.44742296 764.592115597 580.44742296 755.653108382 586.845092587 c 0,62,63
 746.282534771 591.118608343 746.282534771 591.118608343 691.808500677 595.059304171 c 128,-1,64
 637.334466583 599 637.334466583 599 557 599 c 0,65,66
 469.250107817 599 469.250107817 599 438 592.421029933 c 1,67,-1
 438 232 l 2,68,69
 438 130.423046892 438 130.423046892 445.571184936 96.364014954 c 1,70,71
 458.848217702 90.537355381 458.848217702 90.537355381 491.178528737 85.7278876237 c 0,72,73
 549.849328874 77 549.849328874 77 581 77 c 0,74,75
 593 77 593 77 601 67 c 0,76,77
 611.802399431 52.596800758 611.802399431 52.596800758 612.492916844 23.5950694487 c 0,78,79
 613.22462478 -7.13666386864 613.22462478 -7.13666386864 599.814417368 -22.4626151967 c 0,80,81
 591.854877032 -31.5592327232 591.854877032 -31.5592327232 579.781936157 -30.9703087781 c 0,82,83
 375.390606206 -21 375.390606206 -21 327 -21 c 0,84,85
 278.832409459 -21 278.832409459 -21 204.662975263 -25.9446289464 c 0,86,87
 128.832409459 -31 128.832409459 -31 91 -31 c 0,88,89
 79.6557943352 -31 79.6557943352 -31 72.1855826323 -22.4626151967 c 0,90,91
 58.7753752203 -7.13666386865 58.7753752203 -7.13666386865 59.5070831564 23.5950694487 c 0,92,93
 60.1976005685 52.596800758 60.1976005685 52.596800758 71 67 c 0,94,95
 78 77 78 77 91 77 c 0,96,97
 118.8525022 77 118.8525022 77 168.736464157 85.6337626464 c 0,98,99
 195.530204119 90.2711407166 195.530204119 90.2711407166 206.255240335 95.6129807345 c 1,100,101
 214 128.983783407 214 128.983783407 214 232 c 2,102,-1
 214 1086 l 2,103,104
 214 1189.01621659 214 1189.01621659 206.255240335 1222.38701927 c 1,105,106
 195.530204119 1227.72885928 195.530204119 1227.72885928 168.736464157 1232.36623735 c 0,107,108
 118.8525022 1241 118.8525022 1241 91 1241 c 0,109,110
 79 1241 79 1241 71 1251 c 0,111,112
 60.1976005685 1265.40319924 60.1976005685 1265.40319924 59.5070831564 1294.40493055 c 0,113,114
 58.7753752203 1325.13666387 58.7753752203 1325.13666387 72.1855826323 1340.4626152 c 0,115,116
 80.145122968 1349.55923272 80.145122968 1349.55923272 92.2180638428 1348.97030878 c 0,117,118
 296.609393795 1339 296.609393795 1339 327 1339 c 0,0,1
EndSplineSet
Validated: 1
EndChar

StartChar: G
Encoding: 71 71 41
Width: 1440
GlyphClass: 2
Flags: W
LayerCount: 4
Fore
SplineSet
1045 350 m 2,0,1
 1045 453.016216593 1045 453.016216593 1037.23232915 486.48573951 c 1,2,3
 1026.56744567 491.807691204 1026.56744567 491.807691204 1000.65536665 496.38041103 c 0,4,5
 951.811029153 505 951.811029153 505 924 505 c 0,6,7
 912 505 912 505 904 515 c 0,8,9
 893.197600569 529.403199242 893.197600569 529.403199242 892.507083156 558.404930551 c 0,10,11
 891.77537522 589.136663869 891.77537522 589.136663869 905.185582632 604.462615197 c 0,12,13
 913.145122968 613.559232723 913.145122968 613.559232723 925.218063843 612.970308778 c 0,14,15
 1129.60939379 603 1129.60939379 603 1158 603 c 0,16,17
 1176.39060621 603 1176.39060621 603 1380.78193616 612.970308778 c 0,18,19
 1392.85487703 613.559232723 1392.85487703 613.559232723 1400.81441737 604.462615197 c 0,20,21
 1414.22462478 589.136663869 1414.22462478 589.136663869 1413.49291684 558.404930551 c 0,22,23
 1412.80239943 529.403199242 1412.80239943 529.403199242 1402 515 c 0,24,25
 1395 505 1395 505 1382 505 c 0,26,27
 1355.2999554 505 1355.2999554 505 1309.06130541 496.41963196 c 0,28,29
 1285.20524842 491.992734787 1285.20524842 491.992734787 1274.83024033 486.746180161 c 1,30,31
 1267 453.7334297 1267 453.7334297 1267 350 c 2,32,-1
 1267 208 l 2,33,34
 1267 188.905593112 1267 188.905593112 1275.14619109 168.947424936 c 0,35,36
 1287 139.905593112 1287 139.905593112 1287 128 c 0,37,38
 1287 108.136192452 1287 108.136192452 1271.55795626 93.7236182939 c 0,39,40
 1261.56242405 84.3944548987 1261.56242405 84.3944548987 1233.64957946 69.8797757116 c 0,41,42
 1172.85879977 37.4580265466 1172.85879977 37.4580265466 1131.41632731 19.5507853597 c 0,43,44
 1088.37757644 0.953794239694 1088.37757644 0.953794239694 988.160437546 -18.0617654471 c 0,45,46
 888.350823011 -37 888.350823011 -37 764 -37 c 0,47,48
 613.956091096 -37 613.956091096 -37 483.306751934 17.9556744093 c 128,-1,49
 352.582970585 72.942661802 352.582970585 72.942661802 263.021926189 165.627928677 c 0,50,51
 173.707753696 258.057711838 173.707753696 258.057711838 122.389034973 382.466726926 c 128,-1,52
 71 507.046205648 71 507.046205648 71 644 c 0,53,54
 71 787.849868396 71 787.849868396 123.813450555 918.84793693 c 128,-1,55
 176.571894633 1049.70956783 176.571894633 1049.70956783 267.795000183 1146.63411748 c 0,56,57
 359.301222773 1243.85947898 359.301222773 1243.85947898 490.988992484 1301.40807125 c 128,-1,58
 622.775928537 1359 622.775928537 1359 772 1359 c 0,59,60
 1004.67519786 1359 1004.67519786 1359 1201.28982358 1316.43394701 c 0,61,62
 1217.8708021 1312.84425063 1217.8708021 1312.84425063 1220.6598481 1296.10997468 c 0,63,64
 1266.33032802 1022.08709513 1266.33032802 1022.08709513 1266.95863014 998.170638314 c 0,65,66
 1267.99068949 972.426491294 1267.99068949 972.426491294 1240.3253143 956.749445354 c 0,67,68
 1219.59099897 945 1219.59099897 945 1198 945 c 0,69,70
 1175.43060906 945 1175.43060906 945 1160.13249509 955.198742642 c 0,71,72
 1151.46005216 960.980371267 1151.46005216 960.980371267 1149.46312052 971.210266677 c 0,73,74
 1122.61889517 1108.72805269 1122.61889517 1108.72805269 1032.49934432 1175.86402635 c 128,-1,75
 942.379793465 1243 942.379793465 1243 782 1243 c 0,76,77
 648.52667279 1243 648.52667279 1243 541.27630444 1160.21024198 c 0,78,79
 432.256545961 1076.05463894 432.256545961 1076.05463894 375.823847346 949.798431868 c 0,80,81
 319 822.667112383 319 822.667112383 319 686 c 0,82,83
 319 593.729501963 319 593.729501963 338.411006496 505.894697568 c 0,84,85
 357.690057231 418.656992992 357.690057231 418.656992992 398.637758985 340.615490826 c 0,86,87
 439.393665389 262.939528032 439.393665389 262.939528032 497.25026684 204.60477285 c 0,88,89
 554.245046457 147.138961997 554.245046457 147.138961997 635.653452203 113.061024708 c 128,-1,90
 717.021455671 79 717.021455671 79 814 79 c 0,91,92
 921.669695921 79 921.669695921 79 1044.00370727 139.953279241 c 0,93,94
 1045 142.852016656 1045 142.852016656 1045 148 c 2,95,-1
 1045 350 l 2,0,1
EndSplineSet
Validated: 1
EndChar

StartChar: H
Encoding: 72 72 42
Width: 1452
GlyphClass: 2
Flags: W
LayerCount: 4
Fore
SplineSet
327 1339 m 0,0,1
 355.390606205 1339 355.390606205 1339 559.781936157 1348.97030878 c 0,2,3
 571.854877032 1349.55923272 571.854877032 1349.55923272 579.814417368 1340.4626152 c 0,4,5
 593.196442919 1325.16887171 593.196442919 1325.16887171 592.494576418 1291.47927966 c 0,6,7
 591.827008323 1259.4360111 591.827008323 1259.4360111 581 1245 c 0,8,9
 573 1235 573 1235 561 1235 c 0,10,11
 533.1474978 1235 533.1474978 1235 483.263535843 1226.36623735 c 0,12,13
 456.469795881 1221.72885928 456.469795881 1221.72885928 445.744759665 1216.38701927 c 1,14,15
 438 1183.01621659 438 1183.01621659 438 1080 c 2,16,-1
 438 748.577143362 l 1,17,18
 712.018719209 743 712.018719209 743 731 743 c 0,19,20
 765.311994781 743 765.311994781 743 1016 748.540691139 c 1,21,-1
 1016 1080 l 2,22,23
 1016 1183.01621659 1016 1183.01621659 1008.25524034 1216.38701927 c 1,24,25
 997.530204119 1221.72885928 997.530204119 1221.72885928 970.736464157 1226.36623735 c 0,26,27
 920.8525022 1235 920.8525022 1235 893 1235 c 0,28,29
 881 1235 881 1235 873 1245 c 0,30,31
 862.172991677 1259.4360111 862.172991677 1259.4360111 861.505423582 1291.47927966 c 0,32,33
 860.803557081 1325.16887171 860.803557081 1325.16887171 874.185582632 1340.4626152 c 0,34,35
 882.145122968 1349.55923272 882.145122968 1349.55923272 894.218063843 1348.97030878 c 0,36,37
 1098.60939379 1339 1098.60939379 1339 1129 1339 c 0,38,39
 1157.39060621 1339 1157.39060621 1339 1361.78193616 1348.97030878 c 0,40,41
 1373.85487703 1349.55923272 1373.85487703 1349.55923272 1381.81441737 1340.4626152 c 0,42,43
 1395.19644292 1325.16887171 1395.19644292 1325.16887171 1394.49457642 1291.47927966 c 0,44,45
 1393.82700832 1259.4360111 1393.82700832 1259.4360111 1383 1245 c 0,46,47
 1376 1235 1376 1235 1363 1235 c 0,48,49
 1335.1474978 1235 1335.1474978 1235 1285.26353584 1226.36623735 c 0,50,51
 1258.46979588 1221.72885928 1258.46979588 1221.72885928 1247.74475966 1216.38701927 c 1,52,53
 1240 1183.01621659 1240 1183.01621659 1240 1080 c 2,54,-1
 1240 238 l 2,55,56
 1240 134.983783407 1240 134.983783407 1247.74475966 101.612980734 c 1,57,58
 1258.46979588 96.2711407166 1258.46979588 96.2711407166 1285.26353584 91.6337626464 c 0,59,60
 1335.1474978 83 1335.1474978 83 1363 83 c 0,61,62
 1376 83 1376 83 1383 73 c 0,63,64
 1393.82700832 58.5639889024 1393.82700832 58.5639889024 1394.49457642 26.520720342 c 0,65,66
 1395.19644292 -7.16887170917 1395.19644292 -7.16887170917 1381.81441737 -22.4626151967 c 0,67,68
 1373.85487703 -31.5592327232 1373.85487703 -31.5592327232 1361.78193616 -30.9703087781 c 0,69,70
 1157.39060621 -21 1157.39060621 -21 1129 -21 c 0,71,72
 1098.60939379 -21 1098.60939379 -21 894.218063843 -30.9703087781 c 0,73,74
 882.145122968 -31.5592327232 882.145122968 -31.5592327232 874.185582632 -22.4626151967 c 0,75,76
 860.803557081 -7.16887170917 860.803557081 -7.16887170917 861.505423582 26.520720342 c 0,77,78
 862.172991677 58.5639889024 862.172991677 58.5639889024 873 73 c 0,79,80
 881 83 881 83 893 83 c 0,81,82
 920.8525022 83 920.8525022 83 970.736464157 91.6337626464 c 0,83,84
 997.530204119 96.2711407166 997.530204119 96.2711407166 1008.25524034 101.612980734 c 1,85,86
 1016 134.983783407 1016 134.983783407 1016 238 c 2,87,-1
 1016 617.765187434 l 1,88,89
 980.784968656 618.998920443 980.784968656 618.998920443 900.715632976 621.512307662 c 0,90,91
 789.607719927 625 789.607719927 625 731 625 c 0,92,93
 498.581178803 625 498.581178803 625 438 617.460745019 c 1,94,-1
 438 238 l 2,95,96
 438 134.983783407 438 134.983783407 445.744759665 101.612980734 c 1,97,98
 456.469795881 96.2711407166 456.469795881 96.2711407166 483.263535843 91.6337626464 c 0,99,100
 533.1474978 83 533.1474978 83 561 83 c 0,101,102
 573 83 573 83 581 73 c 0,103,104
 591.827008323 58.5639889024 591.827008323 58.5639889024 592.494576418 26.520720342 c 0,105,106
 593.196442919 -7.16887170917 593.196442919 -7.16887170917 579.814417368 -22.4626151967 c 0,107,108
 571.854877032 -31.5592327232 571.854877032 -31.5592327232 559.781936157 -30.9703087781 c 0,109,110
 355.390606206 -21 355.390606206 -21 327 -21 c 0,111,112
 296.609393794 -21 296.609393794 -21 92.2180638428 -30.9703087781 c 0,113,114
 80.145122968 -31.5592327232 80.145122968 -31.5592327232 72.1855826323 -22.4626151967 c 0,115,116
 58.8035570807 -7.16887170917 58.8035570807 -7.16887170917 59.5054235818 26.520720342 c 0,117,118
 60.1729916768 58.5639889024 60.1729916768 58.5639889024 71 73 c 0,119,120
 78 83 78 83 91 83 c 0,121,122
 118.8525022 83 118.8525022 83 168.736464157 91.6337626464 c 0,123,124
 195.530204119 96.2711407166 195.530204119 96.2711407166 206.255240335 101.612980734 c 1,125,126
 214 134.983783407 214 134.983783407 214 238 c 2,127,-1
 214 1080 l 2,128,129
 214 1183.01621659 214 1183.01621659 206.255240335 1216.38701927 c 1,130,131
 195.530204119 1221.72885928 195.530204119 1221.72885928 168.736464157 1226.36623735 c 0,132,133
 118.8525022 1235 118.8525022 1235 91 1235 c 0,134,135
 79 1235 79 1235 71 1245 c 0,136,137
 60.1729916768 1259.4360111 60.1729916768 1259.4360111 59.5054235818 1291.47927966 c 0,138,139
 58.8035570807 1325.16887171 58.8035570807 1325.16887171 72.1855826323 1340.4626152 c 0,140,141
 80.145122968 1349.55923272 80.145122968 1349.55923272 92.2180638428 1348.97030878 c 0,142,143
 296.609393795 1339 296.609393795 1339 327 1339 c 0,0,1
EndSplineSet
Validated: 1
EndChar

StartChar: I
Encoding: 73 73 43
Width: 648
GlyphClass: 2
Flags: W
LayerCount: 4
Fore
SplineSet
327 1339 m 0,0,1
 355.390606205 1339 355.390606205 1339 559.781936157 1348.97030878 c 0,2,3
 571.854877032 1349.55923272 571.854877032 1349.55923272 579.814417368 1340.4626152 c 0,4,5
 593.22462478 1325.13666387 593.22462478 1325.13666387 592.492916844 1294.40493055 c 0,6,7
 591.802399431 1265.40319924 591.802399431 1265.40319924 581 1251 c 0,8,9
 573 1241 573 1241 561 1241 c 0,10,11
 533.1474978 1241 533.1474978 1241 483.263535843 1232.36623735 c 0,12,13
 456.469795881 1227.72885928 456.469795881 1227.72885928 445.744759665 1222.38701927 c 1,14,15
 438 1189.01621659 438 1189.01621659 438 1086 c 2,16,-1
 438 232 l 2,17,18
 438 128.983783407 438 128.983783407 445.744759665 95.6129807345 c 1,19,20
 456.469795881 90.2711407166 456.469795881 90.2711407166 483.263535843 85.6337626464 c 0,21,22
 533.1474978 77 533.1474978 77 561 77 c 0,23,24
 573 77 573 77 581 67 c 0,25,26
 591.802399431 52.596800758 591.802399431 52.596800758 592.492916844 23.5950694487 c 0,27,28
 593.22462478 -7.13666386864 593.22462478 -7.13666386864 579.814417368 -22.4626151967 c 0,29,30
 571.854877032 -31.5592327232 571.854877032 -31.5592327232 559.781936157 -30.9703087781 c 0,31,32
 355.390606206 -21 355.390606206 -21 327 -21 c 0,33,34
 296.609393794 -21 296.609393794 -21 92.2180638428 -30.9703087781 c 0,35,36
 80.145122968 -31.5592327232 80.145122968 -31.5592327232 72.1855826323 -22.4626151967 c 0,37,38
 58.7753752203 -7.13666386865 58.7753752203 -7.13666386865 59.5070831564 23.5950694487 c 0,39,40
 60.1976005685 52.596800758 60.1976005685 52.596800758 71 67 c 0,41,42
 78 77 78 77 91 77 c 0,43,44
 118.8525022 77 118.8525022 77 168.736464157 85.6337626464 c 0,45,46
 195.530204119 90.2711407166 195.530204119 90.2711407166 206.255240335 95.6129807345 c 1,47,48
 214 128.983783407 214 128.983783407 214 232 c 2,49,-1
 214 1086 l 2,50,51
 214 1189.01621659 214 1189.01621659 206.255240335 1222.38701927 c 1,52,53
 195.530204119 1227.72885928 195.530204119 1227.72885928 168.736464157 1232.36623735 c 0,54,55
 118.8525022 1241 118.8525022 1241 91 1241 c 0,56,57
 79 1241 79 1241 71 1251 c 0,58,59
 60.1976005685 1265.40319924 60.1976005685 1265.40319924 59.5070831564 1294.40493055 c 0,60,61
 58.7753752203 1325.13666387 58.7753752203 1325.13666387 72.1855826323 1340.4626152 c 0,62,63
 80.145122968 1349.55923272 80.145122968 1349.55923272 92.2180638428 1348.97030878 c 0,64,65
 296.609393795 1339 296.609393795 1339 327 1339 c 0,0,1
EndSplineSet
Validated: 1
EndChar

StartChar: J
Encoding: 74 74 44
Width: 626
GlyphClass: 2
Flags: W
LayerCount: 4
Fore
SplineSet
316 1339 m 0,0,1
 344.390606205 1339 344.390606205 1339 548.781936157 1348.97030878 c 0,2,3
 560.854877032 1349.55923272 560.854877032 1349.55923272 568.814417368 1340.4626152 c 0,4,5
 582.22462478 1325.13666387 582.22462478 1325.13666387 581.492916844 1294.40493055 c 0,6,7
 580.802399431 1265.40319924 580.802399431 1265.40319924 570 1251 c 0,8,9
 562 1241 562 1241 550 1241 c 0,10,11
 522.1474978 1241 522.1474978 1241 472.263535843 1232.36623735 c 0,12,13
 445.469795881 1227.72885928 445.469795881 1227.72885928 434.744759665 1222.38701927 c 1,14,15
 427 1189.01621659 427 1189.01621659 427 1086 c 2,16,-1
 427 242 l 2,17,18
 427 55.878480015 427 55.878480015 391.73245523 -83.1472037164 c 0,19,20
 355.931019296 -224.277501889 355.931019296 -224.277501889 288.662143531 -309.940210871 c 0,21,22
 220.980544341 -396.12849734 220.980544341 -396.12849734 132.079561361 -437.651112145 c 0,23,24
 43.5505322357 -479 43.5505322357 -479 -66 -479 c 0,25,26
 -93.3226085337 -479 -93.3226085337 -479 -139.029876182 -466.632151107 c 0,27,28
 -186.2784958 -453.847230504 -186.2784958 -453.847230504 -207.186252689 -437.858945824 c 0,29,30
 -208.504350008 -436.850989051 -208.504350008 -436.850989051 -209.67766953 -435.67766953 c 0,31,32
 -233 -412.355339059 -233 -412.355339059 -233 -372 c 0,33,34
 -233 -314.284953065 -233 -314.284953065 -202.582222576 -275.958553511 c 0,35,36
 -170.075434076 -235 -170.075434076 -235 -112 -235 c 0,37,38
 -102.52451216 -235 -102.52451216 -235 -92.5970966215 -236.985483108 c 0,39,40
 -81.2038909173 -239.264124249 -81.2038909173 -239.264124249 -69.7434690092 -245.710611572 c 0,41,42
 -61.8855676727 -250.130681074 -61.8855676727 -250.130681074 -56.528696733 -253.052610677 c 0,43,44
 -49.2504130591 -257.02258359 -49.2504130591 -257.02258359 -38.6514846621 -265.266194566 c 0,45,46
 -29.1818982065 -272.631428476 -29.1818982065 -272.631428476 -25.2302156636 -276.018584941 c 0,47,48
 -21.5006353618 -279.215368057 -21.5006353618 -279.215368057 -11.2758817094 -288.417646344 c 0,49,50
 -1.52987745368 -297.189050174 -1.52987745368 -297.189050174 1.21476588928 -299.865077433 c 0,51,52
 40.0497947701 -335 40.0497947701 -335 74 -335 c 0,53,54
 97.7865534615 -335 97.7865534615 -335 116.494783328 -316.651543785 c 0,55,56
 138.347197773 -295.219368079 138.347197773 -295.219368079 158.418284246 -238.199236054 c 0,57,58
 179.420761993 -178.533106089 179.420761993 -178.533106089 191.123050326 -61.0226274183 c 0,59,60
 203 58.2417422265 203 58.2417422265 203 232 c 2,61,-1
 203 1086 l 2,62,63
 203 1189.01621659 203 1189.01621659 195.255240335 1222.38701927 c 1,64,65
 184.530204119 1227.72885928 184.530204119 1227.72885928 157.736464157 1232.36623735 c 0,66,67
 107.8525022 1241 107.8525022 1241 80 1241 c 0,68,69
 68 1241 68 1241 60 1251 c 0,70,71
 49.1976005685 1265.40319924 49.1976005685 1265.40319924 48.5070831564 1294.40493055 c 0,72,73
 47.7753752203 1325.13666387 47.7753752203 1325.13666387 61.1855826323 1340.4626152 c 0,74,75
 69.145122968 1349.55923272 69.145122968 1349.55923272 81.2180638428 1348.97030878 c 0,76,77
 285.609393795 1339 285.609393795 1339 316 1339 c 0,0,1
EndSplineSet
Validated: 1
EndChar

StartChar: K
Encoding: 75 75 45
Width: 1314
GlyphClass: 2
Flags: W
LayerCount: 4
Fore
SplineSet
327 1339 m 0,0,1
 355.390606205 1339 355.390606205 1339 559.781936157 1348.97030878 c 0,2,3
 571.854877032 1349.55923272 571.854877032 1349.55923272 579.814417368 1340.4626152 c 0,4,5
 593.196442919 1325.16887171 593.196442919 1325.16887171 592.494576418 1291.47927966 c 0,6,7
 591.827008323 1259.4360111 591.827008323 1259.4360111 581 1245 c 0,8,9
 573 1235 573 1235 561 1235 c 0,10,11
 533.1474978 1235 533.1474978 1235 483.263535843 1226.36623735 c 0,12,13
 456.469795881 1221.72885928 456.469795881 1221.72885928 445.731318114 1216.38032441 c 1,14,15
 438 1184.83796509 438 1184.83796509 438 1110 c 2,16,-1
 438 731.853745446 l 1,17,18
 499.384907558 782.545768378 499.384907558 782.545768378 621.463810445 901.818259704 c 0,19,20
 737.080325821 1016.43808098 737.080325821 1016.43808098 782.773174178 1065.11089771 c 0,21,22
 827.988824853 1113.27539517 827.988824853 1113.27539517 873.173492652 1171.229643 c 0,23,24
 896 1201.39324199 896 1201.39324199 896 1218 c 0,25,26
 896 1220.5090789 896 1220.5090789 895.301015387 1222.02354556 c 0,27,28
 894.947585108 1222.78931117 894.947585108 1222.78931117 894 1223.5 c 0,29,30
 889.803398875 1226.64745084 889.803398875 1226.64745084 884.819660113 1229.13932023 c 0,31,32
 880.572385585 1231.26295749 880.572385585 1231.26295749 874.576738555 1232.5953235 c 0,33,34
 866.62822228 1234.36166045 866.62822228 1234.36166045 860.195906998 1235.21930248 c 128,-1,35
 853.719846909 1236.08277716 853.719846909 1236.08277716 844.751559576 1236.53119153 c 0,36,37
 835.375390137 1237 835.375390137 1237 830 1237 c 2,38,-1
 809 1237 l 2,39,40
 794.289916275 1237 794.289916275 1237 787.146068097 1249.85892672 c 0,41,42
 779 1264.5218493 779 1264.5218493 779 1290.5 c 0,43,44
 779 1314.33034374 779 1314.33034374 785.45645221 1332.40840992 c 0,45,46
 791.659714308 1349.7775438 791.659714308 1349.7775438 810.085930607 1348.97640396 c 0,47,48
 833.442982256 1347.96087997 833.442982256 1347.96087997 882.299444241 1344.43515591 c 0,49,50
 930.548355355 1340.95327573 930.548355355 1340.95327573 968.7969525 1338.96633562 c 0,51,52
 1006.64891316 1337 1006.64891316 1337 1039 1337 c 0,53,54
 1090.0595519 1337 1090.0595519 1337 1162.12176171 1342.42934457 c 0,55,56
 1235.36734718 1347.94784759 1235.36734718 1347.94784759 1253.61324951 1348.96150883 c 0,57,58
 1270.83861671 1349.91847367 1270.83861671 1349.91847367 1277.84528872 1334.15346165 c 0,59,60
 1284.10029302 1320.07970197 1284.10029302 1320.07970197 1283.49555121 1288.02838583 c 0,61,62
 1283.49418793 1287.95613207 1283.49418793 1287.95613207 1283.56952267 1282.35277511 c 128,-1,63
 1283.64485741 1276.74941815 1283.64485741 1276.74941815 1283.357847 1273.9481754 c 128,-1,64
 1283.07083658 1271.14693265 1283.07083658 1271.14693265 1282.29304006 1265.15552971 c 128,-1,65
 1281.51524355 1259.16412677 1281.51524355 1259.16412677 1279.46150446 1255.47469844 c 128,-1,66
 1277.40776538 1251.7852701 1277.40776538 1251.7852701 1274.31883028 1247.43603009 c 128,-1,67
 1271.22989519 1243.08679007 1271.22989519 1243.08679007 1265.95142012 1240.53938505 c 128,-1,68
 1260.67294505 1237.99198003 1260.67294505 1237.99198003 1253.79178985 1237.12570633 c 2,69,-1
 1236.55945715 1236.04868554 l 2,70,71
 1221.21405275 1235.08959776 1221.21405275 1235.08959776 1208.8656027 1233.6647766 c 0,72,73
 1197.21548224 1232.32053193 1197.21548224 1232.32053193 1176.54052759 1227.62167861 c 0,74,75
 1156.51558646 1223.07055562 1156.51558646 1223.07055562 1139.89262772 1216.33151829 c 128,-1,76
 1123.23462295 1209.57827312 1123.23462295 1209.57827312 1103.43548347 1197.60670041 c 0,77,78
 1085.17228241 1186.56383465 1085.17228241 1186.56383465 1071.5240693 1171.2095949 c 0,79,80
 1010.12535906 1104.7782035 1010.12535906 1104.7782035 946.88440448 1040.0315119 c 128,-1,81
 883.671088659 975.313117134 883.671088659 975.313117134 843.452503403 936.099996509 c 128,-1,82
 803.359058721 897.008887944 803.359058721 897.008887944 725.764667917 822.918759951 c 0,83,84
 657.284691594 757.53142772 657.284691594 757.53142772 616.897641695 719.085299558 c 1,85,86
 632.500486394 700.916197507 632.500486394 700.916197507 665.034525956 662.707616161 c 0,87,88
 707.925330662 612.335857146 707.925330662 612.335857146 721.814417368 596.462615197 c 128,-1,89
 735.860475483 580.409977351 735.860475483 580.409977351 774.406238345 535.857082613 c 128,-1,90
 812.906969783 491.356237185 812.906969783 491.356237185 828.909079311 472.853798323 c 128,-1,91
 844.824464909 454.451633726 844.824464909 454.451633726 878.738842664 416.048588327 c 128,-1,92
 912.548127478 377.764545229 912.548127478 377.764545229 930.85248599 357.97604954 c 0,93,94
 949.383489727 337.942531987 949.383489727 337.942531987 978.392455571 306.432736875 c 0,95,96
 1007.14238612 275.204364037 1007.14238612 275.204364037 1027.88440448 253.968488097 c 128,-1,97
 1048.78165222 232.573686836 1048.78165222 232.573686836 1073.17766953 208.17766953 c 128,-1,98
 1097.48127522 183.874063837 1097.48127522 183.874063837 1120.15491219 162.186237168 c 0,99,100
 1160.12708136 125.002823993 1160.12708136 125.002823993 1206.03451075 103.672099224 c 0,101,102
 1251.45356667 82.5682954635 1251.45356667 82.5682954635 1322.96756214 76.9224537163 c 0,103,104
 1336.46432579 75.8569197436 1336.46432579 75.8569197436 1342.94738932 63.971303267 c 0,105,106
 1352.786739 45.9324955244 1352.786739 45.9324955244 1349.31614694 17.4736406172 c 0,107,108
 1346.29307497 -7.3155494881 1346.29307497 -7.3155494881 1341.36067977 -17.1803398875 c 0,109,110
 1334.45084972 -31 1334.45084972 -31 1319 -31 c 0,111,112
 1093.76045172 -31 1093.76045172 -31 1026.65549801 -7.56652409889 c 0,113,114
 943.282369778 22.362291163 943.282369778 22.362291163 881.403418991 84.2412419494 c 0,115,116
 826.373337373 138.270776629 826.373337373 138.270776629 438 582.596192561 c 1,117,-1
 438 238 l 2,118,119
 438 134.983783407 438 134.983783407 445.744759665 101.612980734 c 1,120,121
 456.469795881 96.2711407166 456.469795881 96.2711407166 483.263535843 91.6337626464 c 0,122,123
 533.1474978 83 533.1474978 83 561 83 c 0,124,125
 573 83 573 83 581 73 c 0,126,127
 591.827008323 58.5639889024 591.827008323 58.5639889024 592.494576418 26.520720342 c 0,128,129
 593.196442919 -7.16887170917 593.196442919 -7.16887170917 579.814417368 -22.4626151967 c 0,130,131
 571.854877032 -31.5592327232 571.854877032 -31.5592327232 559.781936157 -30.9703087781 c 0,132,133
 355.390606206 -21 355.390606206 -21 327 -21 c 0,134,135
 296.609393794 -21 296.609393794 -21 92.2180638428 -30.9703087781 c 0,136,137
 80.145122968 -31.5592327232 80.145122968 -31.5592327232 72.1855826323 -22.4626151967 c 0,138,139
 58.8035570807 -7.16887170917 58.8035570807 -7.16887170917 59.5054235818 26.520720342 c 0,140,141
 60.1729916768 58.5639889024 60.1729916768 58.5639889024 71 73 c 0,142,143
 78 83 78 83 91 83 c 0,144,145
 118.8525022 83 118.8525022 83 168.736464157 91.6337626464 c 0,146,147
 195.530204119 96.2711407166 195.530204119 96.2711407166 206.255240335 101.612980734 c 1,148,149
 214 134.983783407 214 134.983783407 214 238 c 2,150,-1
 214 1080 l 2,151,152
 214 1183.01621659 214 1183.01621659 206.255240335 1216.38701927 c 1,153,154
 195.530204119 1221.72885928 195.530204119 1221.72885928 168.736464157 1226.36623735 c 0,155,156
 118.8525022 1235 118.8525022 1235 91 1235 c 0,157,158
 79 1235 79 1235 71 1245 c 0,159,160
 60.1729916768 1259.4360111 60.1729916768 1259.4360111 59.5054235818 1291.47927966 c 0,161,162
 58.8035570807 1325.16887171 58.8035570807 1325.16887171 72.1855826323 1340.4626152 c 0,163,164
 80.145122968 1349.55923272 80.145122968 1349.55923272 92.2180638428 1348.97030878 c 0,165,166
 296.609393795 1339 296.609393795 1339 327 1339 c 0,0,1
EndSplineSet
Validated: 1
EndChar

StartChar: L
Encoding: 76 76 46
Width: 1128
GlyphClass: 2
Flags: W
LayerCount: 4
Fore
SplineSet
438 232 m 2,0,1
 438 131.93298268 438 131.93298268 444.458174591 104.852465923 c 1,2,3
 456.192475008 97.6662016087 456.192475008 97.6662016087 472.312225382 95.8413242079 c 0,4,5
 497.410589218 93 497.410589218 93 567 93 c 2,6,-1
 681 93 l 2,7,8
 741.469380151 93 741.469380151 93 804.990094096 105.992873307 c 0,9,10
 865.976901045 118.467447456 865.976901045 118.467447456 900.835211027 142.600123597 c 0,11,12
 975.30051395 193.454476813 975.30051395 193.454476813 1018.09369115 334.608904497 c 0,13,14
 1026.26236357 361 1026.26236357 361 1069 361 c 0,15,16
 1117.35533906 361 1117.35533906 361 1136.67766953 341.67766953 c 0,17,18
 1147.74396789 330.61137117 1147.74396789 330.61137117 1142.62465184 315.822235903 c 0,19,20
 1133.54390979 289.588981112 1133.54390979 289.588981112 1112.45857792 232.357366029 c 0,21,22
 1091.52095589 175.526677654 1091.52095589 175.526677654 1079.08088348 140.196872014 c 0,23,24
 1066.77645373 105.252291534 1066.77645373 105.252291534 1053.44565713 60.8163028608 c 0,25,26
 1040.41882457 17.3935276662 1040.41882457 17.3935276662 1035.68102802 -11.9808109706 c 0,27,28
 1034.22118876 -21.0318143792 1034.22118876 -21.0318143792 1026.96901355 -27.0159071896 c 128,-1,29
 1019.71683834 -33 1019.71683834 -33 1011 -33 c 0,30,31
 907.772746053 -33 907.772746053 -33 687.545529658 -28.9958687928 c 0,32,33
 467.772746052 -25 467.772746052 -25 329 -25 c 0,34,35
 280.493228994 -25 280.493228994 -25 204.986074168 -27.9805455852 c 0,36,37
 128.493228994 -31 128.493228994 -31 91 -31 c 0,38,39
 79.6557943352 -31 79.6557943352 -31 72.1855826323 -22.4626151967 c 0,40,41
 58.7753752203 -7.13666386865 58.7753752203 -7.13666386865 59.5070831564 23.5950694487 c 0,42,43
 60.1976005685 52.596800758 60.1976005685 52.596800758 71 67 c 0,44,45
 78 77 78 77 91 77 c 0,46,47
 118.8525022 77 118.8525022 77 168.736464157 85.6337626464 c 0,48,49
 195.530204119 90.2711407166 195.530204119 90.2711407166 206.255240335 95.6129807345 c 1,50,51
 214 128.983783407 214 128.983783407 214 232 c 2,52,-1
 214 1086 l 2,53,54
 214 1189.01621659 214 1189.01621659 206.255240335 1222.38701927 c 1,55,56
 195.530204119 1227.72885928 195.530204119 1227.72885928 168.736464157 1232.36623735 c 0,57,58
 118.8525022 1241 118.8525022 1241 91 1241 c 0,59,60
 79 1241 79 1241 71 1251 c 0,61,62
 60.1976005685 1265.40319924 60.1976005685 1265.40319924 59.5070831564 1294.40493055 c 0,63,64
 58.7753752203 1325.13666387 58.7753752203 1325.13666387 72.1855826323 1340.4626152 c 0,65,66
 80.145122968 1349.55923272 80.145122968 1349.55923272 92.2180638428 1348.97030878 c 0,67,68
 296.609393795 1339 296.609393795 1339 327 1339 c 0,69,70
 355.390606205 1339 355.390606205 1339 559.781936157 1348.97030878 c 0,71,72
 571.854877032 1349.55923272 571.854877032 1349.55923272 579.814417368 1340.4626152 c 0,73,74
 593.22462478 1325.13666387 593.22462478 1325.13666387 592.492916844 1294.40493055 c 0,75,76
 591.802399431 1265.40319924 591.802399431 1265.40319924 581 1251 c 0,77,78
 573 1241 573 1241 561 1241 c 0,79,80
 533.1474978 1241 533.1474978 1241 483.263535843 1232.36623735 c 0,81,82
 456.469795881 1227.72885928 456.469795881 1227.72885928 445.731318114 1222.38032441 c 1,83,84
 438 1190.83796509 438 1190.83796509 438 1116 c 2,85,-1
 438 232 l 2,0,1
EndSplineSet
Validated: 1
EndChar

StartChar: M
Encoding: 77 77 47
Width: 1814
GlyphClass: 2
Flags: W
LayerCount: 4
Fore
SplineSet
919.358036635 340.281767751 m 1,0,1
 1197.34319348 1057.11533054 1197.34319348 1057.11533054 1211.65115054 1092.94198016 c 2,2,-1
 1299.5280921 1332.60636623 l 2,3,4
 1305.9477579 1350.11454567 1305.9477579 1350.11454567 1324.55945715 1348.95131446 c 0,5,6
 1451.78048855 1341 1451.78048855 1341 1481 1341 c 0,7,8
 1604.0015949 1341 1604.0015949 1341 1703.00636944 1348.92038196 c 0,9,10
 1713.03484404 1349.72265993 1713.03484404 1349.72265993 1720.93657421 1343.1210233 c 128,-1,11
 1728.83830437 1336.51938666 1728.83830437 1336.51938666 1729.86729485 1326.57247878 c 2,12,-1
 1735.86729485 1268.57247878 l 2,13,14
 1736.9007377 1258.58253119 1736.9007377 1258.58253119 1731.05127828 1249.7912656 c 128,-1,15
 1725.20181885 1241 1725.20181885 1241 1711 1241 c 0,16,17
 1685.65657569 1241 1685.65657569 1241 1634.75382606 1230.05828746 c 0,18,19
 1602.31427664 1223.08530021 1602.31427664 1223.08530021 1590.4631929 1216.35730003 c 1,20,21
 1584.10458757 1197.82383569 1584.10458757 1197.82383569 1583.99940947 1154.42735141 c 0,22,23
 1586.00703368 1092.97264828 1586.00703368 1092.97264828 1589.49358758 939.066197777 c 0,24,25
 1592.99395337 784.55005078 1592.99395337 784.55005078 1597.49412314 577.042041225 c 128,-1,26
 1601.99391044 369.551848702 1601.99391044 369.551848702 1603.99197825 280.637831077 c 0,27,28
 1607.81567568 146.80842125 1607.81567568 146.80842125 1626.01458751 95.8589496836 c 1,29,30
 1635.19073989 89.2313682492 1635.19073989 89.2313682492 1664.33747117 84.7037206712 c 0,31,32
 1713.93017299 77 1713.93017299 77 1743 77 c 0,33,34
 1757.35925831 77 1757.35925831 77 1764.59447252 64.5967756381 c 0,35,36
 1775 46.7587285338 1775 46.7587285338 1775 21 c 0,37,38
 1775 -2.53336454432 1775 -2.53336454432 1770.40822944 -14.7780860397 c 0,39,40
 1763.99465057 -31.8809630217 1763.99465057 -31.8809630217 1745.75155958 -30.9688084719 c 0,41,42
 1546.37539014 -21 1546.37539014 -21 1509 -21 c 0,43,44
 1468.50654871 -21 1468.50654871 -21 1432.01268167 -22.4794810964 c 0,45,46
 1395.30276843 -23.9677208221 1395.30276843 -23.9677208221 1348.59250386 -26.9492270716 c 0,47,48
 1301.19956558 -29.9743082382 1301.19956558 -29.9743082382 1269.80603235 -30.9870028585 c 0,49,50
 1258.98086282 -31.3362018757 1258.98086282 -31.3362018757 1251.32233047 -23.6776695297 c 0,51,52
 1247.30380646 -19.6591455161 1247.30380646 -19.6591455161 1244.73591804 -15.2475770743 c 128,-1,53
 1242.16802963 -10.8360086325 1242.16802963 -10.8360086325 1241.19473985 -6.82891095316 c 128,-1,54
 1240.22145008 -2.82181327384 1240.22145008 -2.82181327384 1239.76527811 1.53151841208 c 128,-1,55
 1239.30910613 5.88485009801 1239.30910613 5.88485009801 1239.514015 9.78690059987 c 128,-1,56
 1239.71892387 13.6889511017 1239.71892387 13.6889511017 1239.50743273 17.8904251886 c 0,57,58
 1238.88654188 43.3469502695 1238.88654188 43.3469502695 1245.66635984 60.9744769827 c 0,59,60
 1251.83002254 77 1251.83002254 77 1269 77 c 0,61,62
 1291.20376533 77 1291.20376533 77 1334.42598093 83.2432089211 c 0,63,64
 1370.90729737 88.5127324063 1370.90729737 88.5127324063 1384.84812901 94.8384854926 c 1,65,66
 1392 109.782693527 1392 109.782693527 1392 158 c 0,67,68
 1392 171.425590755 1392 171.425590755 1390.02638175 214.351787667 c 0,69,70
 1388 258.425590755 1388 258.425590755 1388 273.655098126 c 0,71,72
 1372.0451507 851.78375505 1372.0451507 851.78375505 1363.11730457 1099.15985824 c 1,73,74
 1284.02320709 901.688680225 1284.02320709 901.688680225 960.225466672 88.7491785291 c 0,75,76
 960.005333739 88.1965043573 960.005333739 88.1965043573 959.759161937 87.6549263925 c 0,77,78
 948.891537066 63.7461516775 948.891537066 63.7461516775 921.718097063 23.5085578273 c 0,79,80
 910.425764742 6.7872195828 910.425764742 6.7872195828 904.399402271 -1.07370553358 c 128,-1,81
 898.373039799 -8.93463064995 898.373039799 -8.93463064995 888.068462904 -17.2421161267 c 128,-1,82
 877.763886009 -25.5496016035 877.763886009 -25.5496016035 866.092838557 -28.5091452592 c 0,83,84
 861.820353633 -30.2402513364 861.820353633 -30.2402513364 855.84755352 -29.5094735284 c 128,-1,85
 849.874753407 -28.7786957204 849.874753407 -28.7786957204 848.438730307 -28.5501009417 c 128,-1,86
 847.002707206 -28.321506163 847.002707206 -28.321506163 842.107328042 -26.3722348118 c 128,-1,87
 837.211948877 -24.4229634605 837.211948877 -24.4229634605 835.09430585 -23.7170824513 c 0,88,89
 824.313422096 -20.1234545333 824.313422096 -20.1234545333 819.932436766 -9.63781751544 c 2,90,-1
 377.42540861 1049.47736463 l 1,91,92
 374.080896981 901.716425381 374.080896981 901.716425381 369.491587947 724.851515682 c 0,93,94
 362.991143538 474.334388872 362.991143538 474.334388872 358.490179604 313.799340759 c 0,95,96
 354.104837033 157.388789072 354.104837033 157.388789072 353.998636764 149.824969881 c 0,97,98
 354.106150599 115.380224897 354.106150599 115.380224897 359.719542903 98.69465413 c 1,99,100
 370.191206846 90.5752265797 370.191206846 90.5752265797 406.625071342 85.2357809209 c 0,101,102
 462.822164684 77 462.822164684 77 495 77 c 0,103,104
 506.344205665 77 506.344205665 77 513.814417368 68.4626151967 c 0,105,106
 527 53.3933779026 527 53.3933779026 527 23 c 0,107,108
 527 -2.53336454431 527 -2.53336454431 522.408229439 -14.7780860397 c 0,109,110
 516.081342992 -31.6497832332 516.081342992 -31.6497832332 498.074708487 -30.9828708442 c 0,111,112
 470.601979513 -29.9653623636 470.601979513 -29.9653623636 430.130251294 -26.9299827472 c 0,113,114
 390.497204362 -23.9575042273 390.497204362 -23.9575042273 357.864808477 -22.4742135053 c 128,-1,115
 325.432111361 -21 325.432111361 -21 287 -21 c 0,116,117
 246.527933481 -21 246.527933481 -21 211.555396317 -22.4777128379 c 0,118,119
 176.359387114 -23.9648681564 176.359387114 -23.9648681564 131.662975263 -26.9446289464 c 0,120,121
 86.222303383 -29.9740070718 86.222303383 -29.9740070718 53.7808688094 -30.9878019022 c 0,122,123
 42.9702933267 -31.325632386 42.9702933267 -31.325632386 35.3223304703 -23.6776695297 c 0,124,125
 31.3038064567 -19.6591455161 31.3038064567 -19.6591455161 28.7359180421 -15.2475770743 c 128,-1,126
 26.1680296274 -10.8360086325 26.1680296274 -10.8360086325 25.1947398545 -6.82891095316 c 128,-1,127
 24.2214500816 -2.82181327384 24.2214500816 -2.82181327384 23.7652781074 1.53151841208 c 128,-1,128
 23.3091061332 5.88485009801 23.3091061332 5.88485009801 23.5140150006 9.78690059987 c 128,-1,129
 23.718923868 13.6889511017 23.718923868 13.6889511017 23.5074327339 17.8904251886 c 0,130,131
 22.8865418783 43.3469502695 22.8865418783 43.3469502695 29.6663598449 60.9744769827 c 0,132,133
 35.8300225439 77 35.8300225439 77 53 77 c 0,134,135
 83.9832948536 77 83.9832948536 77 140.492666864 86.1767356257 c 0,136,137
 185.24968678 93.4449696291 185.24968678 93.4449696291 194.690767256 102.582896145 c 0,138,139
 211.358239479 126.894389693 211.358239479 126.894389693 214.020056016 189.003442229 c 0,140,141
 242 935.468376371 242 935.468376371 242 1144 c 0,142,143
 242 1194.03096502 242 1194.03096502 236.105864415 1213.65843652 c 1,144,145
 225.607455209 1221.07115273 225.607455209 1221.07115273 193.699433508 1228.68224047 c 0,146,147
 142.059595494 1241 142.059595494 1241 119 1241 c 0,148,149
 99.6653219892 1241 99.6653219892 1241 92.6653219892 1254.125 c 128,-1,150
 85.6653219892 1267.25 85.6653219892 1267.25 88.3326609946 1280.375 c 2,151,-1
 91 1293.5 l 2,152,153
 91 1296.95087502 91 1296.95087502 90.328212414 1305.25662128 c 128,-1,154
 89.656424828 1313.56236754 89.656424828 1313.56236754 89.831267057 1317.91310625 c 128,-1,155
 90.006109286 1322.26384496 90.006109286 1322.26384496 92.7259692122 1329.03250658 c 128,-1,156
 95.4458291385 1335.8011682 95.4458291385 1335.8011682 101.32233047 1341.67766953 c 0,157,158
 109.242987569 1349.59832663 109.242987569 1349.59832663 120.426244763 1348.95928336 c 0,159,160
 155.59379082 1346.9497093 155.59379082 1346.9497093 191.256213941 1344.43823796 c 0,161,162
 226.513023997 1341.95536401 226.513023997 1341.95536401 255.769546317 1340.46774423 c 0,163,164
 284.635182925 1339 284.635182925 1339 325 1339 c 0,165,166
 375.86597457 1339 375.86597457 1339 484.736606349 1348.89733016 c 0,167,168
 493.451548538 1349.68959763 493.451548538 1349.68959763 500.872532247 1344.65268481 c 128,-1,169
 508.293515956 1339.61577199 508.293515956 1339.61577199 510.846231268 1331.50714688 c 0,170,171
 527.505904441 1278.58818504 527.505904441 1278.58818504 600.569159666 1103.63399566 c 0,172,173
 674.052276501 927.674423372 674.052276501 927.674423372 776.044460363 685.192927658 c 0,174,175
 874.440241929 451.261780307 874.440241929 451.261780307 930.104853357 311.607118399 c 2,176,-1
 919.358036635 340.281767751 l 1,0,1
EndSplineSet
Validated: 1
EndChar

StartChar: N
Encoding: 78 78 48
Width: 1552
GlyphClass: 2
Flags: W
LayerCount: 4
Fore
SplineSet
286 1345 m 0,0,1
 381.10827881 1345 381.10827881 1345 436.21882375 1348.9364675 c 0,2,3
 451.032286727 1349.99457199 451.032286727 1349.99457199 459.046978474 1337.49165287 c 0,4,5
 508.253501406 1260.72947709 508.253501406 1260.72947709 817.320397482 884.365756873 c 0,6,7
 1074.18266161 571.573806196 1074.18266161 571.573806196 1197 408.140886735 c 1,8,-1
 1197 1090 l 2,9,10
 1197 1150.61537155 1197 1150.61537155 1194.15290663 1176.23921185 c 0,11,12
 1191.83761756 1197.07681349 1191.83761756 1197.07681349 1181.30558263 1213.94824018 c 1,13,14
 1170.25838106 1221.73669165 1170.25838106 1221.73669165 1130.98697026 1230.6154454 c 0,15,16
 1076.2091326 1243 1076.2091326 1243 1050 1243 c 0,17,18
 1036.98361096 1243 1036.98361096 1243 1029.51920199 1253.66344139 c 0,19,20
 1018.19621012 1269.83914406 1018.19621012 1269.83914406 1017.50780884 1297.37519522 c 0,21,22
 1016.85204403 1323.6057875 1016.85204403 1323.6057875 1023.63932023 1337.18033989 c 0,23,24
 1030.94123466 1351.78416876 1030.94123466 1351.78416876 1047.24844042 1350.96880847 c 0,25,26
 1246.62460986 1341 1246.62460986 1341 1276 1341 c 0,27,28
 1316.40509896 1341 1316.40509896 1341 1347.31087126 1342.47170344 c 0,29,30
 1378.42127038 1343.95315102 1378.42127038 1343.95315102 1416.03243786 1346.92245372 c 0,31,32
 1454.6479067 1349.97104336 1454.6479067 1349.97104336 1489.26502371 1350.98919386 c 0,33,34
 1503.90292721 1351.41972044 1503.90292721 1351.41972044 1511.43732314 1338.86239389 c 0,35,36
 1533.19133508 1302.60570732 1533.19133508 1302.60570732 1512.75916194 1257.65492639 c 0,37,38
 1506.09783176 1243 1506.09783176 1243 1490 1243 c 0,39,40
 1464.49588132 1243 1464.49588132 1243 1407.44250035 1231.49343577 c 0,41,42
 1365.53820231 1223.04214877 1365.53820231 1223.04214877 1355.1222579 1214.62609441 c 1,43,44
 1345.04484219 1198.01801986 1345.04484219 1198.01801986 1342.29256267 1176.78614928 c 0,45,46
 1339 1151.38638014 1339 1151.38638014 1339 1092 c 2,47,-1
 1339 278 l 2,48,49
 1339 106.480591563 1339 106.480591563 1342.98152937 2.96082805253 c 0,50,51
 1343.07967671 0.408997021357 1343.07967671 0.408997021357 1342.6598481 -2.10997468263 c 0,52,53
 1337.17817721 -35 1337.17817721 -35 1292 -35 c 0,54,55
 1274.71640853 -35 1274.71640853 -35 1248.67955738 -21.0290067016 c 0,56,57
 1223.77178346 -7.66385972198 1223.77178346 -7.66385972198 1202.13190866 20.8197810303 c 2,58,-1
 375 1066.11721605 l 1,59,-1
 375 230 l 2,60,61
 375 169.384628453 375 169.384628453 377.847093367 143.760788152 c 0,62,63
 380.162382439 122.923186506 380.162382439 122.923186506 390.734628063 105.987345704 c 1,64,65
 401.186973753 98.3181689845 401.186973753 98.3181689845 440.105740032 89.3634086017 c 0,66,67
 493.839015878 77 493.839015878 77 520 77 c 0,68,69
 533.016389039 77 533.016389039 77 540.480798013 66.3365586091 c 0,70,71
 551.803789881 50.1608559402 551.803789881 50.1608559402 552.49219116 22.624804779 c 0,72,73
 553.147955967 -3.60578750299 553.147955967 -3.60578750299 546.360679775 -17.1803398875 c 0,74,75
 539.058765339 -31.7841687601 539.058765339 -31.7841687601 522.751559576 -30.9688084719 c 0,76,77
 323.375390137 -21 323.375390137 -21 296 -21 c 0,78,79
 255.594901041 -21 255.594901041 -21 224.689128735 -22.4717034431 c 0,80,81
 193.578729625 -23.9531510198 193.578729625 -23.9531510198 155.967562136 -26.9224537163 c 0,82,83
 117.352093299 -29.9710433614 117.352093299 -29.9710433614 82.73497629 -30.9891938616 c 0,84,85
 68.0970727869 -31.4197204352 68.0970727869 -31.4197204352 60.5626768572 -18.8623938857 c 0,86,87
 38.8086649159 17.394292683 38.8086649159 17.394292683 59.2408380634 62.3450736075 c 0,88,89
 65.9021682418 77 65.9021682418 77 82 77 c 0,90,91
 107.504118683 77 107.504118683 77 164.557499651 88.5065642289 c 0,92,93
 206.461797692 96.9578512287 206.461797692 96.9578512287 216.877742102 105.373905588 c 1,94,95
 226.955157815 121.981980145 226.955157815 121.981980145 229.707437333 143.213850716 c 0,96,97
 233 168.613619858 233 168.613619858 233 228 c 2,98,-1
 233 1096 l 2,99,100
 233 1155.38638014 233 1155.38638014 229.707437333 1180.78614928 c 0,101,102
 226.955157815 1202.01801986 226.955157815 1202.01801986 216.877742102 1218.62609441 c 1,103,104
 206.461797692 1227.04214877 206.461797692 1227.04214877 164.557499651 1235.49343577 c 0,105,106
 107.504118683 1247 107.504118683 1247 82 1247 c 0,107,108
 65.9021682418 1247 65.9021682418 1247 59.2408380634 1261.65492639 c 0,109,110
 38.8086649159 1306.60570732 38.8086649159 1306.60570732 60.5626768572 1342.86239389 c 0,111,112
 68.1129452341 1355.44617451 68.1129452341 1355.44617451 82.7808688094 1354.9878019 c 0,113,114
 115.228493504 1353.97381363 115.228493504 1353.97381363 182.67533 1349.44380222 c 0,115,116
 248.838607558 1345 248.838607558 1345 286 1345 c 0,0,1
EndSplineSet
Validated: 33
EndChar

StartChar: O
Encoding: 79 79 49
Width: 1496
GlyphClass: 2
Flags: W
LayerCount: 4
Fore
SplineSet
716 1241 m 0,0,1
 634.566306002 1241 634.566306002 1241 568.106790747 1209.86162572 c 0,2,3
 501.435318587 1178.62394296 501.435318587 1178.62394296 457.420575194 1127.65950324 c 0,4,5
 412.33073169 1075.45021076 412.33073169 1075.45021076 380.832547152 1004.81791816 c 0,6,7
 349.049727272 933.54735237 349.049727272 933.54735237 335.089243288 857.48678446 c 0,8,9
 321 780.724700338 321 780.724700338 321 700 c 0,10,11
 321 585.464756944 321 585.464756944 352.557735078 473.798925131 c 128,-1,12
 384.081987203 362.251571456 384.081987203 362.251571456 441.174608608 271.290445828 c 0,13,14
 497.097350748 182.193195638 497.097350748 182.193195638 585.678415105 127.244514005 c 0,15,16
 673.124312682 73 673.124312682 73 778 73 c 0,17,18
 859.468730693 73 859.468730693 73 926.453721787 104.166627801 c 128,-1,19
 993.534441851 135.377796164 993.534441851 135.377796164 1037.50651164 186.755688235 c 0,20,21
 1082.6717046 239.527650533 1082.6717046 239.527650533 1114.69909998 310.752753699 c 0,22,23
 1146.94581218 382.465591272 1146.94581218 382.465591272 1160.90079605 459.458605716 c 0,24,25
 1175 537.247317175 1175 537.247317175 1175 618 c 0,26,27
 1175 732.46923795 1175 732.46923795 1142.97779922 843.576570955 c 128,-1,28
 1110.98368516 954.586451565 1110.98368516 954.586451565 1053.44115903 1044.52687056 c 0,29,30
 997.0268056 1132.70392718 997.0268056 1132.70392718 908.403918704 1187.20463302 c 0,31,32
 820.927974141 1241 820.927974141 1241 716 1241 c 0,0,1
746 1359 m 0,33,34
 882.085148545 1359 882.085148545 1359 1005.76622934 1306.51349092 c 0,35,36
 1129.17323222 1254.14329222 1129.17323222 1254.14329222 1221.57751516 1162.77725965 c 0,37,38
 1314.18522318 1071.21008768 1314.18522318 1071.21008768 1368.61695246 939.018745131 c 128,-1,39
 1423 806.945629682 1423 806.945629682 1423 656 c 0,40,41
 1423 513.981620255 1423 513.981620255 1368.56330746 383.852002855 c 0,42,43
 1314.21770564 253.940135654 1314.21770564 253.940135654 1222.37406973 160.02093734 c 128,-1,44
 1130.53798272 66.1094585362 1130.53798272 66.1094585362 1006.17993699 10.6664964807 c 0,45,46
 881.320505627 -45 881.320505627 -45 746 -45 c 0,47,48
 609.895109736 -45 609.895109736 -45 486.698885256 7.5013446096 c 0,49,50
 363.745430586 59.899230355 363.745430586 59.899230355 272.32233047 151.32233047 c 128,-1,51
 180.768575793 242.876085148 180.768575793 242.876085148 126.864229028 374.527085901 c 128,-1,52
 73 506.080106796 73 506.080106796 73 656 c 0,53,54
 73 798.974240691 73 798.974240691 126.904065744 929.06963013 c 0,55,56
 180.723349915 1058.96040251 180.723349915 1058.96040251 271.526944707 1152.8772634 c 128,-1,57
 362.349406693 1246.81363837 362.349406693 1246.81363837 486.205224191 1302.78195758 c 0,58,59
 610.613669923 1359 610.613669923 1359 746 1359 c 0,33,34
EndSplineSet
Validated: 1
EndChar

StartChar: P
Encoding: 80 80 50
Width: 1096
GlyphClass: 2
Flags: W
LayerCount: 4
Fore
SplineSet
1061 958 m 0,0,1
 1061 764.910067622 1061 764.910067622 931.278823302 647.467026989 c 0,2,3
 802.635698036 531 802.635698036 531 596 531 c 0,4,5
 536.098300563 531 536.098300563 531 498.819660113 549.639320225 c 0,6,7
 497.335515268 550.381392647 497.335515268 550.381392647 495.962464542 551.31310564 c 0,8,9
 470.302045408 568.725532909 470.302045408 568.725532909 461.443558021 591.873604117 c 0,10,11
 457 603.485044422 457 603.485044422 457 616 c 0,12,13
 457 622.814560089 457 622.814560089 459.788082728 629.784766909 c 0,14,15
 462.693852647 637.049191706 462.693852647 637.049191706 468.32233047 642.67766953 c 0,16,17
 480.331256881 654.68659594 480.331256881 654.68659594 498.341491242 650.18403735 c 0,18,19
 546.369055873 637 546.369055873 637 568 637 c 0,20,21
 681.374118966 637 681.374118966 637 754.000022993 712.349375428 c 0,22,23
 827 788.086851573 827 788.086851573 827 924 c 0,24,25
 827 1067.02457834 827 1067.02457834 749.867342727 1148.28934225 c 0,26,27
 673.260616726 1229 673.260616726 1229 522 1229 c 0,28,29
 462.831769169 1229 462.831769169 1229 444.065083625 1220.98316346 c 1,30,31
 437 1191.97913594 437 1191.97913594 437 1084 c 2,32,-1
 437 232 l 2,33,34
 437 128.983783407 437 128.983783407 444.744759665 95.6129807345 c 1,35,36
 455.469795881 90.2711407166 455.469795881 90.2711407166 482.263535843 85.6337626464 c 0,37,38
 532.1474978 77 532.1474978 77 560 77 c 0,39,40
 572 77 572 77 580 67 c 0,41,42
 590.802399431 52.596800758 590.802399431 52.596800758 591.492916844 23.5950694487 c 0,43,44
 592.22462478 -7.13666386864 592.22462478 -7.13666386864 578.814417368 -22.4626151967 c 0,45,46
 570.854877032 -31.5592327232 570.854877032 -31.5592327232 558.781936157 -30.9703087781 c 0,47,48
 354.390606206 -21 354.390606206 -21 326 -21 c 0,49,50
 295.609393794 -21 295.609393794 -21 91.2180638428 -30.9703087781 c 0,51,52
 79.145122968 -31.5592327232 79.145122968 -31.5592327232 71.1855826323 -22.4626151967 c 0,53,54
 57.7753752203 -7.13666386865 57.7753752203 -7.13666386865 58.5070831564 23.5950694487 c 0,55,56
 59.1976005685 52.596800758 59.1976005685 52.596800758 70 67 c 0,57,58
 77 77 77 77 90 77 c 0,59,60
 117.8525022 77 117.8525022 77 167.736464157 85.6337626464 c 0,61,62
 194.530204119 90.2711407166 194.530204119 90.2711407166 205.255240335 95.6129807345 c 1,63,64
 213 128.983783407 213 128.983783407 213 232 c 2,65,-1
 213 1086 l 2,66,67
 213 1189.01621659 213 1189.01621659 205.255240335 1222.38701927 c 1,68,69
 194.530204119 1227.72885928 194.530204119 1227.72885928 167.736464157 1232.36623735 c 0,70,71
 117.8525022 1241 117.8525022 1241 90 1241 c 0,72,73
 78 1241 78 1241 70 1251 c 0,74,75
 59.1976005685 1265.40319924 59.1976005685 1265.40319924 58.5070831564 1294.40493055 c 0,76,77
 57.7753752203 1325.13666387 57.7753752203 1325.13666387 71.1855826323 1340.4626152 c 0,78,79
 79.145122968 1349.55923272 79.145122968 1349.55923272 91.2180638428 1348.97030878 c 0,80,81
 295.609393795 1339 295.609393795 1339 326 1339 c 0,82,83
 359.731213869 1339 359.731213869 1339 452.462489871 1340.99422099 c 0,84,85
 545.73121387 1343 545.73121387 1343 610 1343 c 0,86,87
 724.081993768 1343 724.081993768 1343 824.260651483 1300.5158572 c 0,88,89
 925.959837839 1257.38688288 925.959837839 1257.38688288 993 1168 c 0,90,91
 1061 1077 1061 1077 1061 958 c 0,0,1
EndSplineSet
Validated: 1
EndChar

StartChar: Q
Encoding: 81 81 51
Width: 1494
GlyphClass: 2
Flags: W
LayerCount: 4
Fore
SplineSet
716 1241 m 0,0,1
 634.566306002 1241 634.566306002 1241 568.106790747 1209.86162572 c 0,2,3
 501.435318587 1178.62394296 501.435318587 1178.62394296 457.420575194 1127.65950324 c 0,4,5
 412.33073169 1075.45021076 412.33073169 1075.45021076 380.832547152 1004.81791816 c 0,6,7
 349.049727272 933.54735237 349.049727272 933.54735237 335.089243288 857.48678446 c 0,8,9
 321 780.724700338 321 780.724700338 321 700 c 0,10,11
 321 585.464756944 321 585.464756944 352.557735078 473.798925131 c 128,-1,12
 384.081987203 362.251571456 384.081987203 362.251571456 441.174608608 271.290445828 c 0,13,14
 497.097350748 182.193195638 497.097350748 182.193195638 585.678415105 127.244514005 c 0,15,16
 673.124312682 73 673.124312682 73 778 73 c 0,17,18
 859.468730693 73 859.468730693 73 926.453721787 104.166627801 c 128,-1,19
 993.534441851 135.377796164 993.534441851 135.377796164 1037.50651164 186.755688235 c 0,20,21
 1082.6717046 239.527650533 1082.6717046 239.527650533 1114.69909998 310.752753699 c 0,22,23
 1146.94581218 382.465591272 1146.94581218 382.465591272 1160.90079605 459.458605716 c 0,24,25
 1175 537.247317175 1175 537.247317175 1175 618 c 0,26,27
 1175 732.46923795 1175 732.46923795 1142.97779922 843.576570955 c 128,-1,28
 1110.98368516 954.586451565 1110.98368516 954.586451565 1053.44115903 1044.52687056 c 0,29,30
 997.0268056 1132.70392718 997.0268056 1132.70392718 908.403918704 1187.20463302 c 0,31,32
 820.927974141 1241 820.927974141 1241 716 1241 c 0,0,1
746 1359 m 0,33,34
 882.085148545 1359 882.085148545 1359 1005.76622934 1306.51349092 c 0,35,36
 1129.17323222 1254.14329222 1129.17323222 1254.14329222 1221.57751516 1162.77725965 c 0,37,38
 1314.18522318 1071.21008768 1314.18522318 1071.21008768 1368.61695246 939.018745131 c 128,-1,39
 1423 806.945629682 1423 806.945629682 1423 656 c 0,40,41
 1423 421.804012219 1423 421.804012219 1286.64759332 236.198835072 c 0,42,43
 1169.00634342 76.0635975634 1169.00634342 76.0635975634 994.972258821 4.23635808811 c 1,44,45
 1028.2246372 -13.5353383389 1028.2246372 -13.5353383389 1063.3375448 -34.5477869788 c 0,46,47
 1126.5192941 -72.3573377406 1126.5192941 -72.3573377406 1160.19553394 -91.1764129466 c 0,48,49
 1191.4043951 -108.616658886 1191.4043951 -108.616658886 1245.81054743 -122.80956819 c 128,-1,50
 1300.2072027 -137 1300.2072027 -137 1370 -137 c 0,51,52
 1466.49862638 -137 1466.49862638 -137 1505.1319718 -125.961901309 c 0,53,54
 1508.49862638 -125 1508.49862638 -125 1512 -125 c 0,55,56
 1552.64878032 -125 1552.64878032 -125 1569.02946188 -150.481060217 c 0,57,58
 1569.75809263 -151.614485818 1569.75809263 -151.614485818 1570.36067977 -152.819660113 c 0,59,60
 1575 -162.098300563 1575 -162.098300563 1575 -170 c 0,61,62
 1575 -185.027610831 1575 -185.027610831 1561.72888065 -192.077892986 c 0,63,64
 1463.90763414 -244.045430196 1463.90763414 -244.045430196 1385.95245794 -270.201443263 c 0,65,66
 1306.08224962 -297 1306.08224962 -297 1218 -297 c 0,67,68
 1153.75601474 -297 1153.75601474 -297 1088.24978627 -274.099448582 c 0,69,70
 1024.45458683 -251.797061787 1024.45458683 -251.797061787 964.357012507 -216.567449252 c 0,71,72
 906.080261415 -182.405215853 906.080261415 -182.405215853 847.815928456 -146.241004155 c 0,73,74
 790.909370351 -110.919692228 790.909370351 -110.919692228 719.066722552 -75.9825141887 c 0,75,76
 648.371705639 -41.6034306215 648.371705639 -41.6034306215 579.883319614 -24.2401778264 c 0,77,78
 357.458278359 31.8857671631 357.458278359 31.8857671631 215.167890833 217.278717334 c 128,-1,79
 73 402.51206415 73 402.51206415 73 656 c 0,80,81
 73 798.974240691 73 798.974240691 126.904065744 929.06963013 c 0,82,83
 180.723349915 1058.96040251 180.723349915 1058.96040251 271.526944707 1152.8772634 c 128,-1,84
 362.349406693 1246.81363837 362.349406693 1246.81363837 486.205224191 1302.78195758 c 0,85,86
 610.613669923 1359 610.613669923 1359 746 1359 c 0,33,34
EndSplineSet
Validated: 1
EndChar

StartChar: R
Encoding: 82 82 52
Width: 1242
GlyphClass: 2
Flags: W
LayerCount: 4
Fore
SplineSet
610 1343 m 0,0,1
 683.892642557 1343 683.892642557 1343 758.101004345 1319.31648028 c 128,-1,2
 832.17496348 1295.67585502 832.17496348 1295.67585502 895.756714421 1251.53645768 c 0,3,4
 961.031246973 1206.22190615 961.031246973 1206.22190615 1001.3539319 1133.64107328 c 0,5,6
 1042 1060.4781507 1042 1060.4781507 1042 972 c 0,7,8
 1042 859.611910832 1042 859.611910832 952.320520121 757.044361988 c 0,9,10
 875.970956535 669.722406031 875.970956535 669.722406031 780.899365981 629.332209327 c 1,11,12
 905.239066838 425.91350939 905.239066838 425.91350939 1086.87805632 187.161229398 c 0,13,14
 1128.64214524 132.403868369 1128.64214524 132.403868369 1174.45606972 107.455691672 c 128,-1,15
 1220.23283268 82.5277514494 1220.23283268 82.5277514494 1294.86974871 76.9299827472 c 0,16,17
 1308.43391647 75.912670165 1308.43391647 75.912670165 1314.94738932 63.971303267 c 0,18,19
 1324.786739 45.9324955244 1324.786739 45.9324955244 1321.31614694 17.4736406172 c 0,20,21
 1318.29307497 -7.3155494881 1318.29307497 -7.3155494881 1313.36067977 -17.1803398875 c 0,22,23
 1306.45084972 -31 1306.45084972 -31 1291 -31 c 0,24,25
 1091.77627711 -31 1091.77627711 -31 1018.66578855 -5.57026484902 c 0,26,27
 949.84597372 19.1618561068 949.84597372 19.1618561068 912.306697843 53.3888429365 c 0,28,29
 893.772218012 69.7427957282 893.772218012 69.7427957282 877.150385501 90.7971169087 c 0,30,31
 850.591317725 126.549708146 850.591317725 126.549708146 747.772461753 279.022548222 c 0,32,33
 645.126827176 431.238513643 645.126827176 431.238513643 558.090970616 566.294153133 c 0,34,35
 549.620406038 579 549.620406038 579 519 579 c 2,36,-1
 438 579 l 1,37,-1
 438 232 l 2,38,39
 438 128.983783407 438 128.983783407 445.744759665 95.6129807345 c 1,40,41
 456.469795881 90.2711407166 456.469795881 90.2711407166 483.263535843 85.6337626464 c 0,42,43
 533.1474978 77 533.1474978 77 561 77 c 0,44,45
 573 77 573 77 581 67 c 0,46,47
 591.802399431 52.596800758 591.802399431 52.596800758 592.492916844 23.5950694487 c 0,48,49
 593.22462478 -7.13666386864 593.22462478 -7.13666386864 579.814417368 -22.4626151967 c 0,50,51
 571.854877032 -31.5592327232 571.854877032 -31.5592327232 559.781936157 -30.9703087781 c 0,52,53
 355.390606206 -21 355.390606206 -21 327 -21 c 0,54,55
 296.609393794 -21 296.609393794 -21 92.2180638428 -30.9703087781 c 0,56,57
 80.145122968 -31.5592327232 80.145122968 -31.5592327232 72.1855826323 -22.4626151967 c 0,58,59
 58.7753752203 -7.13666386865 58.7753752203 -7.13666386865 59.5070831564 23.5950694487 c 0,60,61
 60.1976005685 52.596800758 60.1976005685 52.596800758 71 67 c 0,62,63
 78 77 78 77 91 77 c 0,64,65
 118.8525022 77 118.8525022 77 168.736464157 85.6337626464 c 0,66,67
 194.912982278 90.1643138596 194.912982278 90.1643138596 206.168056948 95.5673110516 c 1,68,69
 212.257718299 125.052913989 212.257718299 125.052913989 213.999762015 232.1886025 c 2,70,-1
 213 1086 l 2,71,72
 213 1189.01621659 213 1189.01621659 205.255240335 1222.38701927 c 1,73,74
 194.530204119 1227.72885928 194.530204119 1227.72885928 167.736464157 1232.36623735 c 0,75,76
 117.8525022 1241 117.8525022 1241 90 1241 c 0,77,78
 78 1241 78 1241 70 1251 c 0,79,80
 59.1976005685 1265.40319924 59.1976005685 1265.40319924 58.5070831564 1294.40493055 c 0,81,82
 57.7753752203 1325.13666387 57.7753752203 1325.13666387 71.1855826323 1340.4626152 c 0,83,84
 79.145122968 1349.55923272 79.145122968 1349.55923272 91.2180638428 1348.97030878 c 0,85,86
 295.609393795 1339 295.609393795 1339 326 1339 c 0,87,88
 359.731213869 1339 359.731213869 1339 452.462489871 1340.99422099 c 0,89,90
 545.73121387 1343 545.73121387 1343 610 1343 c 0,0,1
805 954 m 0,91,92
 805 1083.20683357 805 1083.20683357 737.151775288 1156.51934483 c 0,93,94
 670.073404978 1229 670.073404978 1229 522 1229 c 0,95,96
 462.831769169 1229 462.831769169 1229 444.065083625 1220.98316346 c 1,97,98
 437 1191.97913594 437 1191.97913594 437 1084.02990426 c 2,99,-1
 437.940262929 691 l 1,100,-1
 520 691 l 2,101,102
 633.720653458 691 633.720653458 691 720.188537663 765.445611535 c 0,103,104
 805 838.465105846 805 838.465105846 805 954 c 0,91,92
EndSplineSet
Validated: 1
EndChar

StartChar: S
Encoding: 83 83 53
Width: 1004
GlyphClass: 2
Flags: W
LayerCount: 4
Fore
SplineSet
522 1357 m 0,0,1
 567.616588678 1357 567.616588678 1357 607.719714524 1351.79180184 c 128,-1,2
 647.773970219 1346.58995045 647.773970219 1346.58995045 674.290846294 1339.69556267 c 0,3,4
 699.358256294 1333.17803607 699.358256294 1333.17803607 746.425567588 1320.66013413 c 0,5,6
 792.857678254 1308.31116853 792.857678254 1308.31116853 829.283319813 1300.43535414 c 0,7,8
 846.171938748 1296.78376085 846.171938748 1296.78376085 848.72548952 1279.69461338 c 0,9,10
 861.859167824 1191.79999703 861.859167824 1191.79999703 876.894945001 994.330123446 c 0,11,12
 879.886671342 967.404586374 879.886671342 967.404586374 847.940185941 953.561109367 c 0,13,14
 828.183779709 945 828.183779709 945 810 945 c 0,15,16
 785.644660941 945 785.644660941 945 770.32233047 960.32233047 c 0,17,18
 764.296162068 966.348498873 764.296162068 966.348498873 763.205553334 974.800716559 c 0,19,20
 759.541998294 1003.19326812 759.541998294 1003.19326812 747.413496509 1037.71285012 c 0,21,22
 735.379822559 1071.96253752 735.379822559 1071.96253752 711.953021526 1108.50834713 c 128,-1,23
 688.411428164 1145.23323278 688.411428164 1145.23323278 658.82233047 1174.82233047 c 0,24,25
 630.527903281 1203.11675766 630.527903281 1203.11675766 590.654926392 1221.24083806 c 0,26,27
 551.584770132 1239 551.584770132 1239 508 1239 c 0,28,29
 455.481582553 1239 455.481582553 1239 415.960272888 1220.79355397 c 0,30,31
 377.554664239 1203.10108257 377.554664239 1203.10108257 357.424196582 1174.58292006 c 0,32,33
 335.701419703 1143.80898615 335.701419703 1143.80898615 325.373452101 1110.579873 c 128,-1,34
 315 1077.20441841 315 1077.20441841 315 1042 c 0,35,36
 315 1016.18804058 315 1016.18804058 321.199922454 992.27405397 c 0,37,38
 327.538799076 967.824101286 327.538799076 967.824101286 336.860679775 949.180339887 c 0,39,40
 345.824964305 931.251770827 345.824964305 931.251770827 363.017975869 912.295373462 c 0,41,42
 381.837485859 891.545657319 381.837485859 891.545657319 397.098528222 877.238430104 c 0,43,44
 411.775513009 863.478756866 411.775513009 863.478756866 438.287343844 845.015160391 c 0,45,46
 465.879033524 825.799519364 465.879033524 825.799519364 483.459731928 814.567406495 c 128,-1,47
 501.163662209 803.256562149 501.163662209 803.256562149 533.362393886 783.937323143 c 128,-1,48
 565.653740017 764.562515464 565.653740017 764.562515464 583.428784547 753.088160707 c 0,49,50
 599.729756336 742.908236558 599.729756336 742.908236558 635.036250236 721.332045841 c 0,51,52
 671.122111284 699.279575201 671.122111284 699.279575201 693.70754717 685.226415094 c 0,53,54
 716.85412239 670.824101624 716.85412239 670.824101624 751.975011931 645.883180066 c 0,55,56
 787.573991233 620.602745489 787.573991233 620.602745489 810.582687858 600.208673481 c 128,-1,57
 833.575249043 579.828903339 833.575249043 579.828903339 860.46915062 550.349049688 c 0,58,59
 888.43638436 519.692658858 888.43638436 519.692658858 904.853931903 490.141073279 c 128,-1,60
 921.225439135 460.672360261 921.225439135 460.672360261 932.011659152 423.459901204 c 0,61,62
 943 385.550125278 943 385.550125278 943 346 c 0,63,64
 943 260.060366507 943 260.060366507 905.328460175 185.255451711 c 0,65,66
 867.887927859 110.909251828 867.887927859 110.909251828 805.157970209 60.5108243139 c 0,67,68
 743.319917262 10.8289698089 743.319917262 10.8289698089 663.779633042 -17.0891431953 c 128,-1,69
 584.260022146 -45 584.260022146 -45 500 -45 c 0,70,71
 451.401062826 -45 451.401062826 -45 395.315153458 -37.7963052188 c 0,72,73
 340.0175902 -30.6938659013 340.0175902 -30.6938659013 303.228258522 -23.5403847417 c 0,74,75
 266.761467066 -16.4496197363 266.761467066 -16.4496197363 210.798464967 -3.34116879422 c 0,76,77
 155.808056555 9.53946741053 155.808056555 9.53946741053 135.322197303 13.4415358394 c 0,78,79
 118.830055809 16.582896124 118.830055809 16.582896124 115.497484839 33.0374652839 c 0,80,81
 99.3116028629 112.955257543 99.3116028629 112.955257543 86.1949010263 217.384383704 c 0,82,83
 73 322.436095721 73 322.436095721 73 348 c 0,84,85
 73 358.355339059 73 358.355339059 80.3223304703 365.67766953 c 0,86,87
 111.644660941 397 111.644660941 397 150 397 c 0,88,89
 167.24065456 397 167.24065456 397 179.282849423 388.056039738 c 0,90,91
 192.762115482 378.044740189 192.762115482 378.044740189 196.768096602 357.691771599 c 0,92,93
 202.305723925 331.254754889 202.305723925 331.254754889 213.068056824 300.839466261 c 128,-1,94
 223.839199029 270.399281771 223.839199029 270.399281771 248.764070968 226.301431417 c 0,95,96
 273.132332532 183.188353265 273.132332532 183.188353265 305.304386262 150.550037887 c 0,97,98
 336.435881938 118.967361114 336.435881938 118.967361114 389.041537377 95.8947052198 c 0,99,100
 441.241465278 73 441.241465278 73 504 73 c 0,101,102
 596.023642145 73 596.023642145 73 657.788170773 131.631545292 c 0,103,104
 719 189.738426659 719 189.738426659 719 292 c 0,105,106
 719 319.255694284 719 319.255694284 713.595323495 343.576738555 c 128,-1,107
 708.207421597 367.822297097 708.207421597 367.822297097 699.918062391 385.273579636 c 0,108,109
 691.973149572 401.999711887 691.973149572 401.999711887 676.893942908 418.802256456 c 0,110,111
 660.44150251 437.134975756 660.44150251 437.134975756 646.62673654 449.10777293 c 128,-1,112
 632.949324048 460.961530423 632.949324048 460.961530423 608.918718046 476.510746071 c 0,113,114
 584.028356036 492.616274431 584.028356036 492.616274431 566.159862014 502.757852119 c 0,115,116
 547.891894633 513.126157929 547.891894633 513.126157929 516.626684972 529.999445683 c 0,117,118
 484.797660535 547.177014427 484.797660535 547.177014427 465.343033953 558.44021929 c 0,119,120
 423.454153998 583.374076406 423.454153998 583.374076406 412.198568583 589.735929032 c 0,121,122
 400.218070411 596.507514956 400.218070411 596.507514956 359.7500265 621.8000424 c 0,123,124
 318.562413113 647.542300767 318.562413113 647.542300767 302.965132225 659.912558023 c 0,125,126
 288.568089811 671.330902006 288.568089811 671.330902006 255.171900103 697.250332825 c 0,127,128
 219.330098299 725.067850643 219.330098299 725.067850643 203.478279764 744.882623811 c 0,129,130
 189.409783818 762.468243744 189.409783818 762.468243744 167.342041529 790.554461202 c 0,131,132
 142.985378626 821.553850352 142.985378626 821.553850352 132.130410485 850.119555984 c 0,133,134
 122.121729452 876.458190282 122.121729452 876.458190282 113.769230769 909.346153846 c 0,135,136
 105 943.875 105 943.875 105 980 c 0,137,138
 105 1089.77892458 105 1089.77892458 165.913613253 1178.18452258 c 0,139,140
 226.167269921 1265.63230747 226.167269921 1265.63230747 321.124200755 1311.51037518 c 0,141,142
 415.277145148 1357 415.277145148 1357 522 1357 c 0,0,1
EndSplineSet
Validated: 1
EndChar

StartChar: T
Encoding: 84 84 54
Width: 1252
GlyphClass: 2
Flags: W
LayerCount: 4
Fore
SplineSet
1016 1347 m 2,0,1
 1035.8458893 1347 1035.8458893 1347 1071.79061624 1356.21659665 c 0,2,3
 1107.95071621 1365.48841716 1107.95071621 1365.48841716 1124.3960571 1374.14385973 c 0,4,5
 1159.12818316 1392.26496898 1159.12818316 1392.26496898 1185.76470588 1378.05882353 c 0,6,7
 1197.34014748 1371.88525468 1197.34014748 1371.88525468 1198.83678106 1358.85207055 c 0,8,9
 1222.70809959 1150.97267168 1222.70809959 1150.97267168 1250.47902646 1017.07713141 c 0,10,11
 1253.21949537 1003.86415631 1253.21949537 1003.86415631 1243.67766953 994.32233047 c 0,12,13
 1219.95496465 970.599625592 1219.95496465 970.599625592 1186.91763995 973.003588927 c 0,14,15
 1153.62694235 973.509526581 1153.62694235 973.509526581 1139.51920199 993.663441391 c 0,16,17
 1136.50044722 997.975948198 1136.50044722 997.975948198 1135.4770227 1003.13959009 c 0,18,19
 1114.56228268 1108.66396022 1114.56228268 1108.66396022 1068.87360407 1170.67002405 c 0,20,21
 1027.367306 1227 1027.367306 1227 968 1227 c 2,22,-1
 739 1227 l 1,23,-1
 739 232 l 2,24,25
 739 128.983783407 739 128.983783407 746.744759665 95.6129807345 c 1,26,27
 757.469795881 90.2711407166 757.469795881 90.2711407166 784.263535843 85.6337626464 c 0,28,29
 834.1474978 77 834.1474978 77 862 77 c 0,30,31
 874 77 874 77 882 67 c 0,32,33
 892.802399431 52.596800758 892.802399431 52.596800758 893.492916844 23.5950694487 c 0,34,35
 894.22462478 -7.13666386864 894.22462478 -7.13666386864 880.814417368 -22.4626151967 c 0,36,37
 872.854877032 -31.5592327232 872.854877032 -31.5592327232 860.781936157 -30.9703087781 c 0,38,39
 656.390606206 -21 656.390606206 -21 628 -21 c 0,40,41
 597.609393794 -21 597.609393794 -21 393.218063843 -30.9703087781 c 0,42,43
 381.145122968 -31.5592327232 381.145122968 -31.5592327232 373.185582632 -22.4626151967 c 0,44,45
 359.77537522 -7.13666386865 359.77537522 -7.13666386865 360.507083156 23.5950694487 c 0,46,47
 361.197600569 52.596800758 361.197600569 52.596800758 372 67 c 0,48,49
 380 77 380 77 392 77 c 0,50,51
 419.8525022 77 419.8525022 77 469.736464157 85.6337626464 c 0,52,53
 496.530204119 90.2711407166 496.530204119 90.2711407166 507.255240335 95.6129807345 c 1,54,55
 515 128.983783407 515 128.983783407 515 232 c 2,56,-1
 515 1227 l 1,57,-1
 282 1227 l 2,58,59
 222.632694003 1227 222.632694003 1227 181.126395934 1170.67002405 c 0,60,61
 135.437717323 1108.66396022 135.437717323 1108.66396022 114.522977296 1003.13959009 c 0,62,63
 113.499552778 997.975948198 113.499552778 997.975948198 110.480798013 993.663441391 c 0,64,65
 96.3730576458 973.509526581 96.3730576458 973.509526581 63.0823600457 973.003588927 c 0,66,67
 30.045035349 970.599625592 30.045035349 970.599625592 6.32233047034 994.32233047 c 0,68,69
 -3.21949537324 1003.86415631 -3.21949537324 1003.86415631 -0.479026463453 1017.07713141 c 0,70,71
 27.2919004063 1150.97267168 27.2919004063 1150.97267168 51.1632189372 1358.85207055 c 0,72,73
 52.7522310726 1372.6897179 52.7522310726 1372.6897179 65.3550740918 1378.62046756 c 0,74,75
 93.1373245629 1391.69446778 93.1373245629 1391.69446778 133.25958636 1372.32510001 c 0,76,77
 150.056990418 1363.48436103 150.056990418 1363.48436103 182.226025995 1355.21232331 c 0,78,79
 214.162838887 1347 214.162838887 1347 234 1347 c 2,80,-1
 1016 1347 l 2,0,1
EndSplineSet
Validated: 33
EndChar

StartChar: U
Encoding: 85 85 55
Width: 1446
GlyphClass: 2
Flags: W
LayerCount: 4
Fore
SplineSet
295 1339 m 0,0,1
 323.390606205 1339 323.390606205 1339 527.781936157 1348.97030878 c 0,2,3
 539.854877032 1349.55923272 539.854877032 1349.55923272 547.814417368 1340.4626152 c 0,4,5
 561.22462478 1325.13666387 561.22462478 1325.13666387 560.492916844 1294.40493055 c 0,6,7
 559.802399431 1265.40319924 559.802399431 1265.40319924 549 1251 c 0,8,9
 541 1241 541 1241 529 1241 c 0,10,11
 501.1474978 1241 501.1474978 1241 451.263535843 1232.36623735 c 0,12,13
 424.469795881 1227.72885928 424.469795881 1227.72885928 413.744759665 1222.38701927 c 1,14,15
 406 1189.01621659 406 1189.01621659 406 1086 c 2,16,-1
 406 592 l 2,17,18
 406 354.797556412 406 354.797556412 498.457003955 239.698020876 c 0,19,20
 584.919193286 133 584.919193286 133 753 133 c 0,21,22
 932.989717123 133 932.989717123 133 1022.56657087 234.557803827 c 128,-1,23
 1112.14342461 336.115607653 1112.14342461 336.115607653 1116 548.227253948 c 2,24,-1
 1116 1090 l 2,25,26
 1116 1150.61537155 1116 1150.61537155 1113.15290663 1176.23921185 c 0,27,28
 1110.83761756 1197.07681349 1110.83761756 1197.07681349 1100.13553996 1214.2206341 c 1,29,30
 1089.89165646 1221.88764008 1089.89165646 1221.88764008 1053.59700408 1230.70690141 c 0,31,32
 1003.00617526 1243 1003.00617526 1243 977 1243 c 0,33,34
 963.983610961 1243 963.983610961 1243 956.519201987 1253.66344139 c 0,35,36
 945.196210119 1269.83914406 945.196210119 1269.83914406 944.50780884 1297.37519522 c 0,37,38
 943.852044033 1323.6057875 943.852044033 1323.6057875 950.639320225 1337.18033989 c 0,39,40
 957.941234661 1351.78416876 957.941234661 1351.78416876 974.248440424 1350.96880847 c 0,41,42
 1173.62460986 1341 1173.62460986 1341 1195 1341 c 0,43,44
 1235.40509896 1341 1235.40509896 1341 1266.31087126 1342.47170344 c 0,45,46
 1297.42127038 1343.95315102 1297.42127038 1343.95315102 1335.03243786 1346.92245372 c 0,47,48
 1373.6479067 1349.97104336 1373.6479067 1349.97104336 1408.26502371 1350.98919386 c 0,49,50
 1422.90292721 1351.41972044 1422.90292721 1351.41972044 1430.43732314 1338.86239389 c 0,51,52
 1452.19133508 1302.60570732 1452.19133508 1302.60570732 1431.75916194 1257.65492639 c 0,53,54
 1425.09783176 1243 1425.09783176 1243 1409 1243 c 0,55,56
 1383.49588132 1243 1383.49588132 1243 1326.44250035 1231.49343577 c 0,57,58
 1284.53820231 1223.04214877 1284.53820231 1223.04214877 1274.1222579 1214.62609441 c 1,59,60
 1264.04484219 1198.01801986 1264.04484219 1198.01801986 1261.29256267 1176.78614928 c 0,61,62
 1258 1151.38638014 1258 1151.38638014 1258 1092 c 2,63,-1
 1258 552 l 2,64,65
 1258 253.537605192 1258 253.537605192 1112.54816797 110.193770732 c 128,-1,66
 967.248606496 -33 967.248606496 -33 711 -33 c 0,67,68
 481.96856713 -33 481.96856713 -33 336.771339286 105.884304894 c 0,69,70
 182 252.232714151 182 252.232714151 182 502 c 2,71,-1
 182 1086 l 2,72,73
 182 1189.01621659 182 1189.01621659 174.255240335 1222.38701927 c 1,74,75
 163.530204119 1227.72885928 163.530204119 1227.72885928 136.736464157 1232.36623735 c 0,76,77
 86.8525022004 1241 86.8525022004 1241 59 1241 c 0,78,79
 47 1241 47 1241 39 1251 c 0,80,81
 28.1976005685 1265.40319924 28.1976005685 1265.40319924 27.5070831564 1294.40493055 c 0,82,83
 26.7753752203 1325.13666387 26.7753752203 1325.13666387 40.1855826323 1340.4626152 c 0,84,85
 48.145122968 1349.55923272 48.145122968 1349.55923272 60.2180638428 1348.97030878 c 0,86,87
 264.609393795 1339 264.609393795 1339 295 1339 c 0,0,1
EndSplineSet
Validated: 33
EndChar

StartChar: V
Encoding: 86 86 56
Width: 1276
GlyphClass: 2
Flags: W
LayerCount: 4
Fore
SplineSet
219 1339 m 0,0,1
 266.375390138 1339 266.375390138 1339 465.751559576 1348.96880847 c 0,2,3
 484.713347872 1349.91689789 484.713347872 1349.91689789 490.717082451 1331.90569415 c 0,4,5
 495.084653528 1318.80298092 495.084653528 1318.80298092 494.494576418 1290.47927966 c 0,6,7
 494.486209889 1290.07768624 494.486209889 1290.07768624 494.680998482 1284.58376443 c 128,-1,8
 494.875787075 1279.08984263 494.875787075 1279.08984263 494.755311621 1275.24060914 c 128,-1,9
 494.634836167 1271.39137565 494.634836167 1271.39137565 493.182937898 1265.12560784 c 128,-1,10
 491.731039629 1258.85984003 491.731039629 1258.85984003 489.004060539 1254.60257688 c 128,-1,11
 486.27708145 1250.34531373 486.27708145 1250.34531373 480.645784196 1246.50144217 c 128,-1,12
 475.014486941 1242.65757061 475.014486941 1242.65757061 467.109974683 1241.3401519 c 0,13,14
 465.069063257 1241 465.069063257 1241 463 1241 c 0,15,16
 455.828402774 1241 455.828402774 1241 440.637349762 1238.76602162 c 128,-1,17
 425.312166051 1236.51231813 425.312166051 1236.51231813 404.438491321 1230.48214543 c 0,18,19
 387.499132185 1225.58855279 387.499132185 1225.58855279 375.787985618 1214.97532621 c 0,20,21
 368 1207.91746425 368 1207.91746425 368 1200 c 0,22,23
 368 1163.45877404 368 1163.45877404 401.465256923 1072.62450525 c 0,24,25
 570.376592985 611.95722508 570.376592985 611.95722508 677.516451642 325.259533912 c 1,26,27
 691.144447911 358.169667293 691.144447911 358.169667293 711.851217004 408.941072281 c 0,28,29
 763.832918167 536.396204939 763.832918167 536.396204939 840.326329669 725.379818943 c 128,-1,30
 916.767250905 914.233859642 916.767250905 914.233859642 971.718930507 1055.10998371 c 0,31,32
 1006 1142.71716131 1006 1142.71716131 1006 1186 c 0,33,34
 1006 1197.8625523 1006 1197.8625523 996.560482709 1207.58811557 c 0,35,36
 984.536694612 1219.97626088 984.536694612 1219.97626088 966.182143198 1225.59500111 c 0,37,38
 943.056949143 1232.67414215 943.056949143 1232.67414215 925.470939263 1235.91367029 c 0,39,40
 908.716577955 1239 908.716577955 1239 899 1239 c 0,41,42
 893.868557451 1239 893.868557451 1239 889.152017536 1241.02137425 c 128,-1,43
 884.593421642 1242.9750582 884.593421642 1242.9750582 880.996994881 1245.83536579 c 128,-1,44
 877.40056812 1248.69567338 877.40056812 1248.69567338 875.079579515 1251.35674005 c 128,-1,45
 872.758590909 1254.01780673 872.758590909 1254.01780673 871.111922841 1258.13381957 c 128,-1,46
 869.465254772 1262.24983242 869.465254772 1262.24983242 868.642632639 1264.83773932 c 128,-1,47
 867.820010506 1267.42564621 867.820010506 1267.42564621 867.394763224 1272.14196766 c 128,-1,48
 866.969515941 1276.85828911 866.969515941 1276.85828911 866.916922374 1278.71763957 c 128,-1,49
 866.864328807 1280.57699002 866.864328807 1280.57699002 866.932164403 1285.23822341 c 128,-1,50
 867 1289.89945681 867 1289.89945681 867 1290.5 c 0,51,52
 867 1323.3933779 867 1323.3933779 880.185582632 1338.4626152 c 0,53,54
 888.198605429 1347.62035554 888.198605429 1347.62035554 900.34938145 1346.96355683 c 0,55,56
 1047.67518284 1339 1047.67518284 1339 1107 1339 c 0,57,58
 1147.36481708 1339 1147.36481708 1339 1176.23045368 1340.46774423 c 128,-1,59
 1205.24963674 1341.94329591 1205.24963674 1341.94329591 1238.27011756 1344.9003539 c 0,60,61
 1272.45311738 1347.96151806 1272.45311738 1347.96151806 1302.1384431 1348.98514998 c 0,62,63
 1318.18166741 1349.53836462 1318.18166741 1349.53836462 1325.36067977 1335.18033989 c 0,64,65
 1332.35630495 1321.18908955 1332.35630495 1321.18908955 1330.45512114 1289.50269273 c 0,66,67
 1330.4405865 1289.26044883 1330.4405865 1289.26044883 1330.69776887 1285.6750243 c 128,-1,68
 1330.95495125 1282.08959977 1330.95495125 1282.08959977 1330.85478654 1278.16330102 c 128,-1,69
 1330.75462182 1274.23700228 1330.75462182 1274.23700228 1330.18121409 1268.87206576 c 128,-1,70
 1329.60780636 1263.50712923 1329.60780636 1263.50712923 1327.51289924 1258.83261835 c 128,-1,71
 1325.41799211 1254.15810747 1325.41799211 1254.15810747 1322.1328281 1250.00771786 c 128,-1,72
 1318.84766408 1245.85732824 1318.84766408 1245.85732824 1312.87684836 1243.42866412 c 128,-1,73
 1306.90603264 1241 1306.90603264 1241 1299 1241 c 0,74,75
 1280.78056899 1241 1280.78056899 1241 1242.3920932 1229.11785273 c 0,76,77
 1207.36782709 1218.27700846 1207.36782709 1218.27700846 1190.00310085 1197.75505926 c 0,78,79
 1154.71220903 1156.89192137 1154.71220903 1156.89192137 1094.24985921 1002.81044924 c 0,80,81
 926.095575576 580.422903451 926.095575576 580.422903451 706.09061765 54.4172988974 c 0,82,83
 690.088662988 15.5554090042 690.088662988 15.5554090042 665.232605381 -6.72229549788 c 128,-1,84
 640.376547775 -29 640.376547775 -29 607 -29 c 0,85,86
 589.276352704 -29 589.276352704 -29 578.408462807 -11.9218873048 c 0,87,88
 573.680987753 -4.49299793475 573.680987753 -4.49299793475 569.016410099 8.0654803645 c 2,89,-1
 564.639320225 16.8196601125 l 2,90,91
 564.099596753 17.8991070573 564.099596753 17.8991070573 563.666359845 19.0255230173 c 0,92,93
 523.630111676 123.119768257 523.630111676 123.119768257 397.094625996 460.21430323 c 0,94,95
 270.657889929 797.045766113 270.657889929 797.045766113 183.692288589 1018.95799022 c 0,96,97
 136.626173309 1141.52599876 136.626173309 1141.52599876 94.15075877 1206.2044709 c 0,98,99
 85.3079398582 1219.46869927 85.3079398582 1219.46869927 50.1680727452 1229.45161606 c 0,100,101
 9.51776128669 1241 9.51776128669 1241 -13 1241 c 0,102,103
 -32.3346780108 1241 -32.3346780108 1241 -39.3346780108 1254.125 c 128,-1,104
 -46.3346780108 1267.25 -46.3346780108 1267.25 -43.6673390054 1280.375 c 2,105,-1
 -41 1293.5 l 2,106,107
 -41 1296.95087502 -41 1296.95087502 -41.671787586 1305.25662128 c 128,-1,108
 -42.343575172 1313.56236754 -42.343575172 1313.56236754 -42.168732943 1317.91310625 c 128,-1,109
 -41.993890714 1322.26384496 -41.993890714 1322.26384496 -39.2740307878 1329.03250658 c 128,-1,110
 -36.5541708615 1335.8011682 -36.5541708615 1335.8011682 -30.6776695297 1341.67766953 c 0,111,112
 -23.0297066733 1349.32563239 -23.0297066733 1349.32563239 -12.2191311906 1348.9878019 c 0,113,114
 20.2411540007 1347.97341799 20.2411540007 1347.97341799 64.7005972034 1344.94209232 c 0,115,116
 108.378226954 1341.96407211 108.378226954 1341.96407211 143.555396317 1340.47771284 c 0,117,118
 178.527933481 1339 178.527933481 1339 219 1339 c 0,0,1
EndSplineSet
Validated: 1
EndChar

